<mxfile host="app.diagrams.net" agent="Mozilla/5.0 (Macintosh; Intel Mac OS X 10_15_7) AppleWebKit/537.36 (KHTML, like Gecko) Chrome/127.0.0.0 Safari/537.36" version="24.7.6">
  <diagram name="第 1 页" id="VwQLEQzMZ7BBVcr8F_IS">
    <mxGraphModel dx="954" dy="606" grid="1" gridSize="10" guides="1" tooltips="1" connect="1" arrows="1" fold="1" page="1" pageScale="1" pageWidth="827" pageHeight="1169" math="0" shadow="0">
      <root>
        <mxCell id="0" />
        <mxCell id="1" parent="0" />
        <mxCell id="Ilp4ZEadHi4LMg1LGD61-1" value="" style="rounded=0;whiteSpace=wrap;html=1;dashed=1;dashPattern=12 12;labelBackgroundColor=none;fillColor=#cce5ff;strokeColor=#36393d;" vertex="1" parent="1">
          <mxGeometry x="210" y="190" width="550" height="190" as="geometry" />
        </mxCell>
        <mxCell id="Ilp4ZEadHi4LMg1LGD61-2" value="" style="shape=image;verticalLabelPosition=bottom;labelBackgroundColor=default;verticalAlign=top;aspect=fixed;imageAspect=0;image=data:image/png,iVBORw0KGgoAAAANSUhEUgAAAbgAAAEmCAYAAAAQpoWAAAAMbWlDQ1BJQ0MgUHJvZmlsZQAASImVVwdYU8kWnluSkJDQAghICb0JIjWAlBBaAOlFEJWQBBJKjAlBxY4uKrh2EcWKroootpVmx64sir0vFhSUdVEXGypvQgK67ivfO9839/45c+Y/5c7k3gOA5geuRJKHagGQLy6QxocFMcampjFInQAFw4EuQIARlyeTsGJjowCUwfvf5d1NaAflmpOC65/z/1V0+AIZDwAkHeJMvoyXD/EJAPD1PIm0AACiQm85pUCiwHMg1pXCACFepcDZSrxTgTOV+MiATWI8G+IrAKhRuVxpNgAa96GeUcjLhjwanyF2EfNFYgA0R0DszxNy+RArYh+Rnz9JgSsgtoP2EohhPICZ+R1n9t/4M4f4udzsIazMa0DUgkUySR532v9Zmv8t+XnyQR82cFCF0vB4Rf6whrdzJ0UqMBXibnFmdIyi1hB/EPGVdQcApQjl4UlKe9SYJ2PD+gF9iF343OBIiI0hDhXnRUep9JlZolAOxHC3oFNFBZxEiA0gXiiQhSSobDZLJ8WrfKF1WVI2S6U/z5UO+FX4eijPTWKp+N8IBRwVP6ZRJExMgZgCsVWhKDkaYg2InWW5CZEqm9FFQnb0oI1UHq+I3wrieIE4LEjJjxVmSUPjVfal+bLBfLHNQhEnWoUPFAgTw5X1wU7zuAPxw1ywKwIxK2mQRyAbGzWYC18QHKLMHesUiJMSVDwfJAVB8cq1OEWSF6uyxy0EeWEKvQXE7rLCBNVaPLkAbk4lP54lKYhNVMaJF+VwI2KV8eDLQBRgg2DAAHI4MsEkkANErd313fCXciYUcIEUZAMBcFJpBlekDMyI4TUBFIE/IBIA2dC6oIFZASiE+i9DWuXVCWQNzBYOrMgFzyDOB5EgD/6WD6wSD3lLBk+hRvQP71w4eDDePDgU8/9eP6j9pmFBTZRKIx/0yNActCSGEIOJ4cRQoj1uhPvjvngUvAbC4Yozce/BPL7ZE54R2giPCTcI7YQ7E0XF0h+iHAPaIX+oqhaZ39cCt4GcHngQ7gfZITOujxsBJ9wd+mHhAdCzB9SyVXErqsL4gftvGXz3NFR2ZBcySh5GDiTb/bhSw0HDY4hFUevv66OMNXOo3uyhmR/9s7+rPh/eI3+0xBZiB7Fz2EnsAnYEqwcM7DjWgLVgRxV4aHc9Hdhdg97iB+LJhTyif/jjqnwqKilzqXHpcvmsnCsQTC1QHDz2JMk0qShbWMBgwbeDgMER85xHMFxdXN0BULxrlH9fb+MG3iGIfss33bzfAfA73t/ff/ibLuI4APu94PFv/KazYwKgrQ7A+UaeXFqo1OGKCwH+S2jCk2YITIElsIP5uAJP4AsCQQiIADEgEaSCCbDKQrjPpWAKmAHmghJQBpaB1WAd2AS2gp1gDzgA6sERcBKcBZfAFXAD3IO7pwO8BD3gHehDEISE0BA6YoiYIdaII+KKMBF/JASJQuKRVCQDyUbEiByZgcxDypAVyDpkC1KN7EcakZPIBaQNuYM8QrqQN8gnFEOpqC5qgtqgI1EmykIj0UR0PJqNTkaL0PnoErQCrUJ3o3XoSfQSegNtR1+ivRjA1DF9zBxzwpgYG4vB0rAsTIrNwkqxcqwKq8Wa4HO+hrVj3dhHnIjTcQbuBHdwOJ6E8/DJ+Cx8Mb4O34nX4afxa/gjvAf/SqARjAmOBB8ChzCWkE2YQighlBO2Ew4RzsCz1EF4RyQS9Ym2RC94FlOJOcTpxMXEDcS9xBPENuITYi+JRDIkOZL8SDEkLqmAVEJaS9pNOk66SuogfVBTVzNTc1ULVUtTE6sVq5Wr7VI7pnZV7blaH1mLbE32IceQ+eRp5KXkbeQm8mVyB7mPok2xpfhREik5lLmUCkot5QzlPuWturq6hbq3epy6SH2OeoX6PvXz6o/UP1J1qA5UNjWdKqcuoe6gnqDeob6l0Wg2tEBaGq2AtoRWTTtFe0j7oEHXcNbgaPA1ZmtUatRpXNV4pUnWtNZkaU7QLNIs1zyoeVmzW4usZaPF1uJqzdKq1GrUuqXVq03XHqUdo52vvVh7l/YF7U4dko6NTogOX2e+zladUzpP6Bjdks6m8+jz6NvoZ+gdukRdW12Obo5ume4e3VbdHj0dPXe9ZL2pepV6R/Xa9TF9G32Ofp7+Uv0D+jf1Pw0zGcYaJhi2aFjtsKvD3hsMNwg0EBiUGuw1uGHwyZBhGGKYa7jcsN7wgRFu5GAUZzTFaKPRGaPu4brDfYfzhpcOPzD8rjFq7GAcbzzdeKtxi3GvialJmInEZK3JKZNuU33TQNMc01Wmx0y7zOhm/mYis1Vmx81eMPQYLEYeo4JxmtFjbmwebi4332Leat5nYWuRZFFssdfigSXFkmmZZbnKstmyx8rMaozVDKsaq7vWZGumtdB6jfU56/c2tjYpNgts6m06bQ1sObZFtjW29+1odgF2k+2q7K7bE+2Z9rn2G+yvOKAOHg5Ch0qHy46oo6ejyHGDY9sIwgjvEeIRVSNuOVGdWE6FTjVOj5z1naOci53rnV+NtBqZNnL5yHMjv7p4uOS5bHO5N0pnVMSo4lFNo964OrjyXCtdr7vR3ELdZrs1uL12d3QXuG90v+1B9xjjscCj2eOLp5en1LPWs8vLyivDa73XLaYuM5a5mHnem+Ad5D3b+4j3Rx9PnwKfAz5/+jr55vru8u0cbTtaMHrb6Cd+Fn5cvy1+7f4M/wz/zf7tAeYB3ICqgMeBloH8wO2Bz1n2rBzWbtarIJcgadChoPdsH/ZM9olgLDgsuDS4NUQnJClkXcjDUIvQ7NCa0J4wj7DpYSfCCeGR4cvDb3FMODxONacnwitiZsTpSGpkQuS6yMdRDlHSqKYx6JiIMSvH3I+2jhZH18eAGE7MypgHsbaxk2MPxxHjYuMq457Fj4qfEX8ugZ4wMWFXwrvEoMSlifeS7JLkSc3JmsnpydXJ71OCU1aktI8dOXbm2EupRqmi1IY0Ulpy2va03nEh41aP60j3SC9JvznedvzU8RcmGE3Im3B0ouZE7sSDGYSMlIxdGZ+5Mdwqbm8mJ3N9Zg+PzVvDe8kP5K/idwn8BCsEz7P8slZkdWb7Za/M7hIGCMuF3SK2aJ3odU54zqac97kxuTty+/NS8vbmq+Vn5DeKdcS54tOTTCdNndQmcZSUSNon+0xePblHGindLkNk42UNBbrwo75Fbif/Sf6o0L+wsvDDlOQpB6dqTxVPbZnmMG3RtOdFoUW/TMen86Y3zzCfMXfGo5msmVtmIbMyZzXPtpw9f3bHnLA5O+dS5ubO/a3YpXhF8V/zUuY1zTeZP2f+k5/Cfqop0SiRltxa4Ltg00J8oWhh6yK3RWsXfS3ll14scykrL/u8mLf44s+jfq74uX9J1pLWpZ5LNy4jLhMvu7k8YPnOFdorilY8WTlmZd0qxqrSVX+tnrj6Qrl7+aY1lDXyNe0VURUNa63WLlv7eZ1w3Y3KoMq9643XL1r/fgN/w9WNgRtrN5lsKtv0abNo8+0tYVvqqmyqyrcStxZufbYtedu5X5i/VG832l62/csO8Y72nfE7T1d7VVfvMt61tAatkdd07U7ffWVP8J6GWqfaLXv195btA/vk+17sz9h/80DkgeaDzIO1v1r/uv4Q/VBpHVI3ra6nXljf3pDa0NYY0djc5Nt06LDz4R1HzI9UHtU7uvQY5dj8Y/3Hi473npCc6D6ZffJJ88Tme6fGnrp+Ou5065nIM+fPhp49dY517vh5v/NHLvhcaLzIvFh/yfNSXYtHy6HfPH471OrZWnfZ63LDFe8rTW2j245dDbh68lrwtbPXOdcv3Yi+0XYz6ebtW+m32m/zb3feybvz+m7h3b57c+4T7pc+0HpQ/tD4YdXv9r/vbfdsP/oo+FHL44TH957wnrx8Knv6uWP+M9qz8udmz6s7XTuPdIV2XXkx7kXHS8nLvu6SP7T/WP/K7tWvfwb+2dIztqfjtfR1/5vFbw3f7vjL/a/m3tjeh+/y3/W9L/1g+GHnR+bHc59SPj3vm/KZ9Lnii/2Xpq+RX+/35/f3S7hS7sCnAAYHmpUFwJsdANBSAaDDvo0yTtkLDgii7F8HEPhPWNkvDognALXw+z2uG37d3AJg3zbYfkF+TdirxtIASPQGqJvb0FCJLMvNVclFhX0K4WF//1vYs5FWAvBlWX9/X1V//5etMFjYO54QK3tQhRBhz7CZ8yUzPxP8G1H2p9/l+OMdKCJwBz/e/wW9HpC5MZQvNwAAAIplWElmTU0AKgAAAAgABAEaAAUAAAABAAAAPgEbAAUAAAABAAAARgEoAAMAAAABAAIAAIdpAAQAAAABAAAATgAAAAAAAACQAAAAAQAAAJAAAAABAAOShgAHAAAAEgAAAHigAgAEAAAAAQAAAbigAwAEAAAAAQAAASYAAAAAQVNDSUkAAABTY3JlZW5zaG90Lh5SoQAAAAlwSFlzAAAWJQAAFiUBSVIk8AAAAdZpVFh0WE1MOmNvbS5hZG9iZS54bXAAAAAAADx4OnhtcG1ldGEgeG1sbnM6eD0iYWRvYmU6bnM6bWV0YS8iIHg6eG1wdGs9IlhNUCBDb3JlIDYuMC4wIj4KICAgPHJkZjpSREYgeG1sbnM6cmRmPSJodHRwOi8vd3d3LnczLm9yZy8xOTk5LzAyLzIyLXJkZi1zeW50YXgtbnMjIj4KICAgICAgPHJkZjpEZXNjcmlwdGlvbiByZGY6YWJvdXQ9IiIKICAgICAgICAgICAgeG1sbnM6ZXhpZj0iaHR0cDovL25zLmFkb2JlLmNvbS9leGlmLzEuMC8iPgogICAgICAgICA8ZXhpZjpQaXhlbFlEaW1lbnNpb24+Mjk0PC9leGlmOlBpeGVsWURpbWVuc2lvbj4KICAgICAgICAgPGV4aWY6UGl4ZWxYRGltZW5zaW9uPjQ0MDwvZXhpZjpQaXhlbFhEaW1lbnNpb24+CiAgICAgICAgIDxleGlmOlVzZXJDb21tZW50PlNjcmVlbnNob3Q8L2V4aWY6VXNlckNvbW1lbnQ+CiAgICAgIDwvcmRmOkRlc2NyaXB0aW9uPgogICA8L3JkZjpSREY+CjwveDp4bXBtZXRhPgq1jbrRAAAAHGlET1QAAAACAAAAAAAAAJMAAAAoAAAAkwAAAJMAAFGdjeoe0wAAQABJREFUeAHsnQncVVP3x7cxhJfXkFkq80uIZHoTEpn7R4RMGcoQhRKpVxGJVyJRUUqKTGUoScYyRKWUaDJXQoYi0f2v7+pdx7mne+9z7n3u8zz36e71+dx7ztnz/u1z9tp77b32Wish5Dx5BDwCHgGPgEdgDUNgLc/g1rAW9dXxCHgEPAIeAUXAMzj/IngEPAIeAY/AGomAZ3BrZLP6SnkEPAIeAY+AZ3CV7B14e9Kfru9jf7i5X/zlvl6QcI/33sgdcsC6lawWvrgeAY+AR6DsEShYBvfWW2+5J5980p188snu6KOPLhUSf/31l7viiitc1apVXc+ePUuVVkVG/nbRSrdPo1+0CAfvt67btfrarnWLKm63XdauyGL5vD0CHgGPQEEiULAM7umnn3Z33323u/zyy91ZZ51VKvBWrFjhGjRo4DbffHM3atSo2Gl9+umn7tFHH3V169ZVRhs7YhkFHDVuhbvg2mWu0b/XdY/1qlpGufhkPQIeAY/AmoFAwTK4yZMnu7Fjx7r69eu7gw8+uFRo58rgJkyY4K6//np32mmnuXbt2pWqDPmI/PATf7jru//mrr24iuvQeoN8JOnT8Ah4BDwCaywCBcvg8on4msLgBgz/w7W//Td3gzC3dsLkPHkEPAIeAY9AegRiM7gbbrjB/eMf/3AdOnRIm9rHH3+sIj1mXE2aNNFwv//+uxsyZIj74IMP3FdffeW22morFfmdf/75boMNkmchP/zwg7v33nuT0j/++OPTzuC+++4717dvX/fee++5DTfc0B1yyCG6Xod486CDDnInnHCCphVmcA8++KAbNGiQY4YIHX744e7SSy91VaqsYhhLlixx3bt3V78FCxa4OXPmuK233trtuuuu6sYfa4LHHnts8MzNpEmT3LBhw9ysWbPc8uXL3RZbbOH22Wcfd8YZZ7hatWolhc31wTO4XJHz8TwCHoFiRCA2g6Oj/uabb9yLL77oNt1005RYwTj69eunYj02h8CArrrqKvfll1+6jTbayO28885u5syZGrd69equf//+SUxu0aJFuhmEADCaZcuWpV2DI+0LL7zQ/fjjj7q2ts0222ja5EO8U0891V177bWalzE4HrbbbjtNe+ONN3bkBzVt2tRdffXVev/TTz9pmdmYQjqEIU2YnBHM2xg4bvPnz3fnnHOOerPOB0P7+uuvFS82t5x55pkWtVTXDnf85voP+8N1umoD1+YCP4MrFZg+skfAI7DmI8BJJnFIZjWJww47LPH++++nDX7ddddpmNmzZ2uYW265RZ9vuummxG+//aZu0vEnLNyAAQPSpvXUU09p3KFDh6YMIzM99Zc1ssQff/yhYYR5qhvlvPPOO4N4+OPGj7xlhpVYuXJlYsyYMYG7pRFEkpu3335b/WXnZdh5tftOnTppOGHwSX6ffPJJgjLlg/5YkUjs0+jnxBb7LUk8N3ZVffORrk/DI+AR8AisqQi4uBV74YUXkjrxxYsXJ2699daEbOXXJGAYDRs21DB//vln4ttvv9V7mAr3Yfrss8/UTzZvhJ2T7jMxOPIyhjVv3rykeLfddpv6pWNwMC0jymnpLFy40JyDa1wGJ7M/TWf8+PFB3Hzd3Hb/b4nrbluWqHvKKubWpssyYej5St2n4xHwCHgE1lwEYosov/jiC9e8eXMnDMHdcccdTmY/rmvXriq+Gz16tK6v4X/ooYe6Hj166LpY27ZtdQpcs2bN1abCrG1B7JRk/SxKmdQEECOyvobo8OWXX06KihoA5UsnoqSsiCeNrrzySl2PGzhw4GprZXF3UT7//PPu9ttv1/Igutx3333d3nvvrWuWlk+u1+qH/ex+XbbqPOyGR6wrm0s2cAfus06uyfl4HgGPgEegaBCIzeCEx7tGjRopMDC3bt26KZPD4eGHH3YwwC5durjLLrtM16NGjhypjI41qT333DMtoCLec5tssslq/pkYnMza3LnnnqvraU888URSXJlFOdJMxeBS6cGxTvfOO+9oHXbbbbektOIyONbqWE+MlqVZs2Zazs022ywp3Wwfvl6w0j323ArXo+/vGnXC05t45e5sQfThPQIegeJDIJvJqeykVFHc559/ruJI6dT1Onjw4ESvXr3Ub8qUKZrkG2+8oc+skeVCmUSU33//vaaNSDRKMptSv1QiyhNPPDEaPCH6bRpedj+u5hdXRGkRKRdiys6dO2uaiD979+5t3qW+nnDBr7oGN/DJ5aVOyyfgEfAIeATWdARir8EBxPDhw7XjNmY2Y8aMhMzaEq1bt060bNlS/WwzCRtN6OBPP/30hOxIzBrHTAwuvAYnOzuT0pbTTzTffDC4iRMnalrUMVsSNQSNC1OlvPmg3gN/VwbX86Hf85GcT8Mj4BHwCKzRCGTF4ETPTTttGBezJxhXeCfiJZdcEoDFBo4WLVpo+GeeeSZwtxs2qZBeOsrE4Igj62yaNhtdjIGInl2w0SUfDI5ZndWV+qQjdkpG/ZnJWtx08bJ17z9suWdw2YLmw3sEPAJFi0DsNTiEt2F9ssaNG7uOHTuqHtpJJ52ksl10wViDM5o2bZpr1aqVPkpnr5svSIMzHkWEqec7chSWEYcri5hPH9GXQzl8//331w0bOLKpRJim+qM0jh4c61+snaFjJyJFfSZAPtbgRHVAddjQhWP9DkVyNqiwkebAAw/UcvDHWZm//vqrKoDvsMMOqvf36quvKjbUD53AfNCjT//h2nb9zV1zURV34xXJSvL5SN+n4RHwCHgE1iQEsmJwVNx2HbLJ5Mgjj1QsOAmEU0zYPUnnHyYRVequRhhWmGBKMCtLAz9TJg+HC99HN4mgYH3XXXfpLkiYX7169TR/ykZaKJlDxpij8fFr3769MkaU1FPt9qT8Dz30kCqRo1QOwVj5GWGh4Nlnn7XH4MomExHfunXWyc+ux7Fv/unOumqpO6Luum7EA1XdOt6IQIC1v/EIeAQ8AlEEsmZw0QTiPi9dulRVCdZaay1XrVq1vGyht7xFPOjWXntt/dnuyzZt2jhZ/7MgZX6lDBztBRNklsfJKqnUH0pTkB9/Srj9G/+iagPbVVvb1dx5bdft2g3c3rvmh4GWpmw+rkfAI+ARKDQEyo3B5bviIlRW1QREk0YwUWaYiED79OmjIlHzW1OuMz77yw0WUeX8r1e6hYsTrmfHDd0B//IMbk1pX18Pj4BHIH8IVFoGx/rYUUcdpetvBxxwgEP5+6WXXlJkTNk8fzD5lDwCHgGPgEegsiFQaRkchyGzfoaSthHrcNhuu+CCC5IOcTZ/f/UIeAQ8Ah6B4kGg0jI4ayJElexghFKdiGLh/NUj4BHwCHgEiguBSs/giqu5fG09Ah4Bj4BHIC4CnsHFRcqH8wh4BDwCHoFKhYBncJWquXxhPQIeAY+ARyAuAp7BxUXKh/MIeAQ8Ah6BSoVAbAY3ffp0989//lNN1FSqGvrCegQ8Ah4Bj0BRIuAZXFE2u6+0R8Aj4BFY8xHwDG7Nb2NfQ4+AR8AjUJQIeAZXlM3uK+0R8Ah4BNZ8BDyDW/Pb2NfQI+AR8AgUJQKewRVls/tKFwICb731lsMGIvYCjz766EIoUsoyrJBDzMe2a6N+h91wk/vHztVd2O3wmzq7TXfYMWXcsnb85euv3F9yLu2GW2zhqmz6j5TZLV24wC2eOcP9+u23bv1NNnGb7VLDbbX3v1KGxfGPX35xC6Z86H75+mu3XtWN3OY1amUMnzahDB4rxI7lR4Me1nx++58NTLDdts5BGWKVjdf8V19xU6Usezdr7mo1PrFsMkmT6lvd/uN+/upLt2fTM9wuxxyrod7s1sX9IvY+92p2lqveoHTfhWdwaYD3zh6BskbATDtdfvnlajS3rPPLNX064EcOraPRT396lHT2+7hlixe7gYetMvp7+tPP54UBfDryGTfvlZfdvudf5LY94G+DwqnK/dWEt9wHD9znvn5v1Vm0R3T6j9vnnPOSgv75++/updYXuy/ffjPJnYft69ZzR91xl9tku+2T/Oa+PNqN69BOGXjYY8fDjnDH3nNfWiYaDhvnnnLNGzdWg25WfRe31rrrugbdbnfb7L8K5zhp5CvMtMcedW/ecrM79PqObr+LLslXsrHSefyEhu7H2Z+5wzre7Gqft8rG5tBGDdyS+fPc4eK27//cYiWWIpBncClA8U4egfJAYPLkyW7s2LGufv367uCDDy6PLHPKo7wY3MQ7u7vJ/R90jXrd72oed0LKsv6+5Ef3fMvz3aJpU5P8UzG45T//7AYctK/O7nY76VS3ec1abvGMj90sYaTMQLfep7Zr8vgIt/Z662laP30+3z127JF6X6NhI7friSfr7GLa4EHu1wXfut1OOsUd07NXUr65PPz+4w/u4XoHaNTz3nzXVd26Wi7J5C0Og4TPnh/pqPNOR9TPW7pxEiprBufksOJYNG3atMTXX38dK6wP5BHwCKw5CMhsLXH/bjvrb9H0j7RiS7/7LuQ2LS+VndDjNk1z9kvPp01PRvYaZthJjRKEk9mWPn80eOBqcUR0mZj51JMJmckl+VEHq8+3H04K/D569BF1f/iQAxIr//orcJ8z5qUg/F9//hm453rz3cwZmt7IC87JNYk1Jt7QxscoFlMGDgjqJIMMdZsacgs8s7wpqhncpEmT3LBhw9ysWbPc8uXL3RYit99nn33cGWec4WrVqpU04BAc3QsvvOBee+01DY91bsJefPHFaq3bAmO2p3Pnzmq9GzM9gwYNcozMocMPP9xdeumlrkqVKhZcr8QhbX7ffPONuqFEzyj+7LPPXs3a+aJFi1z//v2dDDLUckL16tVdgwYN1DQQFtKjRBlmzJjhEH3NmTPHjRs3zk2dOlUtjZ9wwgnunHPOiUYp8Tnbev7www9qnw9zRvPnz9f0d9hhBzVC26JFC1e1atUgz/vuu89Rx2233da9+OKLjvpdd911iuWbb77pdt99d8V4yy23DOLEbZ8gQswbcAM/2mJdERvRRvPmzdNyn3nmme7AA5NFZ+DLLOyDDz5wn3/+uWJco0YNh01CTDdF2wdc7r333qTSHH/88RlncJ06dXJYjO/atauu2U2YMEHfSYz9nn/++e6www5LSg887b3Cf7fddkvyz/Yh2xkc4stZz45wX7z+mvthzmea3WY77+K2EbFjnVZXuPXF4r3RN++966Y83E8fF3402ZEX62NVt97Ggri6V7dzW+6xpz4zg1s4ZbLbuX4DJ+C6127u6GYMH+pSzeCCBFLcmBjsqO493R5NmmqIKQMecsJkdfbILNKINbxB/66njxd/+LGsy/397lqYkq7CMN3Ya66Q9cIVbvlPS5wwVp1ZVtt3/yBqndZXumr71tbnz14Y5eaOedHt2+ICt+2BdYMwS+bNde/+90631T77ugMubhW4c4PYdsoj/d13H09ziGerbrW1YF5HxHwXBfhZBNro7dv+Y4963f20pmlncL9++41779673YIPP3DLf/nZ/bPmrq7GcY3dPs3P1XawhL6f9YmUr6fb/uB6bgtps+ki/qSuG2z+TxUh/+us5L6nrGdwRcPg6GStY998882VocmMVDuCK664wtF5GdGZ33TTTY7OFdp7773dxx9/rPfYnHvggQdczZo19XnFihXKbHjYbrvt3JIlS7STo8OGmjZt6q6++mq9tz86ze7du+sjnTmMdubMmW6ZLDz369fP7bnnqo+ZAHSuMEn8KDd5WFkaNmyoHb+la9cbbrhBy968eXM3dOhQdabcpMH15ZdftqCxr9nWE+woBwRW66+/vtaR5x133NHdf//9ejIOz+edd54yYu6tnNxD9gyzaNeunbpl0z4aIYs/mMf1118f5AvelN2YNO12xBFHBCn27t3bDR8+XMPvsssu7scffwyYy7///W936623JjE53gveN4h3hTYpaQ2OgRLEO8oADTJcMPp7yy23qJv9hfG8++67Xd26f3eQFiaba7YMjnW0ly6/RLPYYvc93DrrVwlEiqw3nfrYE26jLbdSfzrlN29d1dHSiSI6ZMMIHaLRUbfd6arV3s8ek665MjjWFKnXaUOfDDZ2/Dhntnu88THKwC56b6pbWwY40Kznnnbjrm/rdvr3ke7EfgPVLdu/ldJPDD+1sUZDREne0Oa1dtUrf/U7d3Pb1V0lqp50fy9hKP911H2P/zs9CANzf6rZaSpOPO6+BwN3KzsO4LflHnu5n7743P385RfusA43udoXtAzCcgPWz567qs/77YfvFfd0a3A/fPap5mlts+mOO+kgg3SiYtuv353onmtxltt4m21VrMsVhkhc6Lh7H3A1Gh2v9/yVNYMrGhGljIITMtJNyOg8aZL7ySefJIS5JLmNGjVKw0qHkliwYIH6/fzzz4m+ffuqe+vWrYPwYllc3UhbZh0JmRkmVq5cmRgzZkzgThgjGYknTjzxRPWTWZU5J6TTTrz99tuJ77//PnDj5sYbb9Sw0lEmiAsJ00sIc1P3jz5aJTJSj//9dejQIcibMv/222/qI3bzEk888UQ4aOz7bOspTDjx7LPPJpYuXRrkIR164qqrrtKyPfzww4G7zOjUTWbWCbHMHpSduhEfbGkLo2zax+LEvdIG5MdvwIC/xSYjR44MykFbGdHOshsyaBvcv/rqq6B9PvzwQwu62vWpp57SNGUQsppf2MHKw1Vmi/qu4M+SAc9RMjwJ/+6770a9s35GLLfwoyn6W7FsVXv+tWLFam6W8IIpkxPTH38s8Ye8b0a//fhD4tkWZ6no6f377jHnpGscEWVSBHkY3+kGTTOViDIa1p5lc4fGeWj/vRIrfltmznp9vfON6ocIdNID9yVe7Xh9gnCILb95v/RYksnCaVM1jxdbtUzKO/wARohRZ45I/l4XTP5Q3WUAEQ6eGNPmcnWnzGFCHEt+meijIYM0rqx/pgw2+srL1B9xsIlohekpLpTxmw/eD+J99c4EDYv7pD691R2M3+zaRd1HXXhuEJabxbNm6nu0dNHCwH3xJ6u7BZ5Z3hQNg5NZlHYm48ePLxEimS1o2GjnQSdvjMUYX7jjp3M0ghlZx7Rw4d+NBwM09ygzs7h2hammCwuDwO/OO++04MHVGBx1zhdlW890+YIp5ZYZchDEOmRjHIY/eUIitlXcLYL5x2kfixP3agyOdqatjBi0nH766Vp2OZfVnNNeaRfqKTsl04bJlsE9+uijadMKe7Rt2zYBRvxEXB72qtD7T58fqZ3c6Kv+HiCGC1QeDG6ZDCBhWHTAc14eHc5e73+XAdYLl14UdNKE40enmy8qCwbHep7WafSLWRczE4P7/aclARZLv1uUlLYx4dc6dwzcwwxOxMmBu9V58NFHBG7lcbMWmQTzxQw3lf2w5eeff97dfvvtKtpp0qSJrqkgevzHP5J1Z2S24xD9QYjSEE+FiTUXyEQ/YdHd6NGjVTxp4a+88kpdjxs4cGDSGh9rKTLy1/RZE2Ntj3WmDTbYwKLqlbzOE/EdYswhQ4Yk+bHm06ZNG3fQQQe5//73v0l+JqJEzHrccccl+eX6kEs9EQHLzEfFrMLkHaJFYVoqwguXmzpSV/TCIETJiATtmXVPRLg8Z9s+2dbXRJT16tVzPXv2TIrO+8N79J///CdJb01mmo62p74yaNE4MhNVceVll10WiMaTEpOHuGoCJqJEFLr99ttHkynIZ8RjM4Y/7n6Y/amKw1iD+kvWvRGZseX+pIcHr1buOLsoo5GyEVGyLjXqohbu20nvid5VM9fg1juSkmN97+lmTXSLOqLU3U4+VXdRfvL0CA33785d3b9YcyolyazKjfi/k90uRzd0x/dZtf4YTTJbEeXMEcPd+Bvbq3j1X81buO0OPEjFumFRbzQPe86kJsCa2vCTj1NR6lkvjLUoev36nQnuufOaJ7WniSjZodp0xHNB+JV//un67l1Ln1vPmh+4l/VN0TA41jrYqCEiuiRMmzVr5s4991y32WabqTsdq63VsVEgHRFm3333ddbxsz4morOk4Ndee61jk4XMtpIW+r/44gvXpUsX9+mnnwbhiU9Hf+qpp+rmBjzee+89J6NxV6dOHderV/L2ZGN+MOHHH388SIcbY3CsD+2//9+L2EmBsnzItp5WPsuGdUU2icisVDe8wNRZy4So97eihGtrgxdeeKFiYwyuVatWusGG52zbx/KPezUGx8YPEQ8nRevTp4+uaTJw4b2BRAybxAhpK9bHKOeXX37pqAu/VJQtgxPpg1vvf1vaU6VXKG7WKVp56Oyqbr21k9mRMhd03E6T7flRKksGB4N9uU1rN3fsGF1La/xA/2CNzcrxyVNPulc7XqebOk6TdUKjhR9NdU+dfsqqtbl3pwRqBeaf7bUsGBxrXO/1uksVtsPlqX3+Re6ASy93G8omtnSUicF9+dYbOijYvt6h7pRBq9bzLR1rZwYDzceMV2djcLuf0sQd3eNuC6rXPrtX12t5MriiEVHadBixIGJK2fmoIiTESMIIzDshmwQC98Axw42J7lhXi5JsitC0WFtKRbLrLsF6Emt6lIOfbM4IgrKOhZvszgzc7Ib1KfxkhmBOwdVElMTPF2VTT8R5spFCyyeDimANkLKkKjciSkSCRtSXuhlRR3vOtn0sjbhXE1GCYZRkRqflkFmcerGmaCJr4tkaKZ6DBw/WsOF1vGh62Yooo/EL8lna/tlzmqlY691edydszY6ysiUfMdrTZ/5fyqKXlYiSLf+mTjDijFOTyhQuCGtilI/1wySSOiFaww8RXGnJxHVx1uBmjBielN388eO0HNE1OAuEGHGOiClfvuYKDUeZ3+re1bxTXjOJKBdMnaLpPHHaCavFTdWeJqJ85bprVgtPWfiVJxUdgwuDy/oEHSfMiU7ZyDot2WptTmmv2XT8aRMRD1tTkx1xQbDvRNeI8lGe8HoQAZ577jn1C4e3iBXN4MJMSGbOViy9siZFncKMORsGRyLZtE9S5jEejMGx3hZ+J4hqA5H331+1qP7GG29oXcKbjiwL1hipZ0UwON6lO+64Q38MosqTWOOyjuyP0AYjyjBt6GD1S8vg7rxd/T8ennnTTbg+cTaZvPm/DQ5sHGFNKR3hT9nDOlmEhUGyyQS/KMNJl1Ym9zgMTlQnNL+3b++WlNSEHt3VPR2DCwf++r13NSxll5c57JV0n4nB/bpwgabBumVUn5B2ApOx1/691u8ZXBK05ffATsnwCJucp0yZop0QHWaYZE1L3WEe0TjsSAzvTMuWwYmoL5FqRifrdJqniC6DotDBssGCjvKZZ54J3CmDbcwQlYPA3W4qmsEZJpR7nuz4NGLGYxtESsPgsmkfyzvu1RgcZZ84cWIQbfbs2doOuP/yyy/qbu8PA6Twe8ImFMLxqwgGZ+8G+Yff1aAyZXjzp2zMMQb3w+zPgpxkK3pCdMnULx2DYyckcdkRGJdKYnDMIkkT5WGU0zPRuPZtNSyzFdstSPiv331H3Unnu49L3mCUKQ/84jA425AD0zXmhOK6KUFHZ3+kGS4z+bDrkzLDnDJRJgYHczdl7OlDhwTJsDPSBgQo0xsVGoNbi4IlCUrTPFT2TSZnnXWWKklzqC0Kx6yPvPrqq7oRAL0nDrw1kg7MoUOGThNKsug9oayNIu94WQfZWBRVWT+Bsl2bWiwKlqyzkS7KxCh4o1wsOwI1Pdkp51AUNgrrkxFvm2220XKzfoeOFnpuKCSHydbgHnroIbfXXnuFvXK+z7aeVoatZe2lUaNGunYkTFoxpRC5rsERN5v2IXw2ZGtwFoe1Vta92ODBOi6K0y1btlRvnlmL4z1hjRG9N+7D67zRNTgOV7aNKGycYbMQ66RseIJYvxMGpff2Z5tMbE3S3NNdbdMO/rYZKl3YsnC3cxbRgdrtlNNED259N33o4ED3K90a3A+fzXLDTmykRWJdZ4dDD3frCPb7iLJz+DBn1oxmPfOUhvtx7mzVsSKvjUSxGarX9jqNi1L00OOOUjeUs0kzSvucfV6gZ2ZrSoRBl4zjvTgT8fPXXtVoOx3+b3eC6MGttfba0WSyeo6zBhc+zoty1zyusZyp+VagTxjdoILiOvpmuzY+WQ7D3lnLLSe9KOZHdu3u9jrjrKQyctDzssXfqRtrjGwY4XzOavutWrNfr+rGrs5ll6t/WK9x77POlvM7d3BzRr8gCuXTHTpxzUe/GqxnFtoaXNEwOHbEsSEgSnRQImJy66yzTpIXSrj33HOPe+WVV5Lc2Qwis5Bg40Cmjr99+/ZOZgR6MoYphosumsOdk0XCRMfGrkh2VUYJpoqCMR2qEbsQ2SWJkniUcH/ttddceTG4VPWkE0cBmQ7cCKYuenCq6FwaBkd6cdvH8o57NQYHU2YnJJuEjFC0ZsNL+F1B6Z5dlXZyCGGJW7t2bdejR4/VNplwak44rKVt11SblSobg1v23SInYivtNK1enE5yWIdOolzcTA9STrXJhLAwE04UsUOUcWNzA5scjCb2vMNN7rdqg5K5ha92lmWYwYX9w/cHXXG1O+jKvw9ioIN+Qw4e5gDgMHGQc902bfNy2DLnYcos0dUUhedGovicjj6VMzNlLSvwRmm+7lVtVYmeszrDp6283uVG9/HjjwVh7YZNJofIIcprR/q3Icf8W3e0WrjoFQZ/wYS/v10YmugEBgrbhGc37NFyYLUNLHD75v333LPnnKGnw3BKTJjYZMJAg9NgyouKhsEBqIiRnOiv6SibWRizIY7gykQwMFHc1e3p7ALcaqutkk6myBQ3k9/vsmWZsjAboVOrVq1axh1yTLTZaUjHzhFN4aOuMuVTkX6UWdYR9cduz0033TTvxcl3+xiDY7bMLlhmZLQTp5RE1TisMqg/oCLAAIRw0aPZLFxRXaXtOaB4qaiHbAYm/1i1S7lSYCBlX/b9YjWXs750yJuIxGfdDTL3E2VVL3ZH/jhvjh7IXNKhzGzFx3wQJ5Osv/EmbpPtd3DrycA5XySi0lXpyzex+S411PRQvtIuq3SKisGVFYiVLV30tubOnRur2JylyKwyKgaNFbmCA+VST1QzEFkbg6vgKvjsCxABdPy+EnFhXOLczI1lOcFT+SPgGVz5Y17hOaIYLlvUY5eDszOjCvGxI1dgwFzqicjRM7gKbLRKkPUcOQR5zFWtY5cUnbvqRx0TO7wPmD8EPIPLH5aVJiU2qLDJJi6xeaIyKBhH65NLPUUFQBkca2WsF3ryCEQRwLrAtx9MijqnfeZEfzbBeCp/BDyDK3/MfY4eAY+AR8AjUA4IeAZXDiD7LDwCHgGPgEeg/BHwDK78Mfc5egQ8Ah4Bj0A5IOAZXDmA7LPwCHgEPAIegfJHwDO48sfc5+gR8Ah4BDwC5YCAZ3DlALLPwiPgEfAIeATKHwHP4Mofc5+jR8Aj4BHwCJQDAp7BlQPIPguPgEfAI+ARKH8EPIMrf8x9jh4Bj4BHwCNQDggUDYMbMmSI48ipMPXt27dSHkEVrkOme8yrYJ4FU0CYCaqMdOutt7r58+c7MeCppoVS1eGRRx5xYpvNXXPNNa569eqpghSdGwdz33777WrGR2zvlar+HCYtFtr1gG+sclRG4nDzTz75RA/P3nXXXd3222+fl0PTDYtFixY5sRmoB3NjAutf//qX43B2TxWLQNEwuJEjRzoO0oUwJQPhxstYGWjMmDEO23CY98HUTBzCZh32wC6//HKHPbzKSNhT48gt6oJtuVTUsWNHJ9a182oeiA4R5sr7AeOsbERne77YrqtXr54rLVPKZBIqEy60G/YN69atm2RvMVOcsvDD5BGWIcKEDT4GTZipKg2BzZ133ulefPHF1ZJhcLnttv6IrtWAKUeHomFwYUwxYsmsoDIxuD59+qhx065du7oGDRqEq5P2fvLkyWpItX79+mpcNW3AAvaIw+BoR0bntCtGYPNBmDE6/vjjNb2wAdN8pF0eaWBY9+GHH1bzPaeffnqpssyVwZnpIewntmvXrlRlyDXyrFmz3EUXXaTRGRxiagq7kDBfbCpyIHdpCMYJA8XklVh21/QXiomg0aNHa9qY5PJUgQhg0TsOTZs2LSE2r+IELfgwZ599duKwww5LiFHOgi+rFfD+++/XMosVcnMqiusFF1yg9ZZOo1zr+/PPP2u+whzKNd9CzOyPP/5QLKQDz6p4YuxX48kMMqt4+QwsszQtw7333hskO2/ePHWjD5gzZ07gnu3N9OnTNR1h4AkxYpsUfeXKlUnP/qFiEPAzuDQiSkRUiFc4Xf7zzz93O4jRwwMPPNBJh5vWSOqkSZPcc889p7J4LFoTh9kWI1gMrEIYXWV0h6Vv+bjUgClijN133921aNFC49h4h3Wlxx9/XB9nzJih6wdYxcboqtHFF1/satWqZY/uhx9+cPIxB8/cMBM5+OCDk9zsgbWD/v37OxnAOKyNs4ZlZcYWnBHrMJ07d9a6g8GgQYMcM0QIi9OXXnppqQ19Pv/887pOCi577723imOxSp5KRAk2UQvtrDWlGzF/8cUXbvDgwWpJHaOxtAdrMYy6jzjiCKumWuGm7aRT17bHQzrCwB+DptmuaTEDuvnmm3W9t0OHDkFa0RtM9fDO0VZNmjRRb+kWFBPE6sxGMNCLiJp2T1VXZiRYIjfaY489HJbIUxHGaFmHRnRPuocccoiu1SIOZnZj1uXDM7gHH3wwY9uDLdbnIQzF0paIlsHaiPXgY4891h6DK2I+1o0hpA5YRi8NLV++PFh75n2tWbOmJnfbbbcFIkW+uUsuuSSnbLDkPnbsWJ2d8o17KjwEPINLweD4MHjp+TiR0fNhcI/FZixTwxCiFrXpKNjIAiEm20JMvlucu+66K2AwdAB0quFwMBcjmam52rVr6yMM85577tF7GBH5IwoJ22Zj/Wmvvfay6I5wbAiAyIs46dbgZCSrjMnSpdx0slDDhg2VoemD/FknxzPhjEmQH9S0aVN39dVX630uf4jT+EF77rmndo5Y0zaKrsGx5nbfffept4ye9QozDGNhcWFWdPKUlfYkfcpP+xx66KHK1CzsDTfcoKaEYOhmUii8cYW4N954owWPfcX8DuWkE09n2ZxOuF+/fmquh41BlOGmm27StVcygulb+1CPBx54IOi0rSCtWrVyMOjffvtNB0Tp1uBgboh/wZh3CmY5c+ZMxYf3IWzwNZu2h7liZoiyk45hHl4/hXkbA7dyc6U9hw0bpk6lYTyWJlbWEUuCFWvYDNg+/PDDJDNImIKC4eVCrGvzjrB5jboy4Ft//fV1wBl+Z3JJ28fJEwJxJ47FJKIUY6AqepCPLCEdoUIks5uEMD11l1F2EmxiOVrdhSkk3n333cBPZmsJmYElpFMK3EhnwIABibDITWaLCWGQmkbr1q2DsOGbXESUVo+hQ4eGkwrupaPWPGUzRYKyQohvqAfiG+plZGIq3K+77rqEDALEgv3KhHQcGhZ3wuRC0tkGaVie0qkmhNkE7mG8onlYuDDO4TAy09N02rZtq2U2P9JEjJaK8i2ilFmNlkEkAqmyUzdwBUfZIKLPo0aN0mdhzgmZDakb5SrpXSHgZ599pnFl7UvjRf8Q2ZGXGHcN2k0YnLrhLhsngii5tn22IsrevXsH+ctMMcg/1xsTIYIfxHeGyJn3W6QomhffdK4ETvz4nu3eruCX6/eQa3l8vNURcKs7pXYpJgZn6z4yS0gC44MPPtAXObouI2IndRcRWFL4bB7obPk4+PhSUb4ZnHXg5Bldi5SZlJYlXScXZgowRvuoMzGhVHUyN2PEXbp0MSe9img4VtolMTgGJJRRxHdJ6Wd6MHyibZ0pTiY/GeVrGWSWpsFkE0iCgYXstNNnBgs2sLDBBms7lFvEYElJ03FaWGN8SQHkIRODIy9rMwY0YZLZjPrlo+2zZXCi7pGgzvxEGhIuVk73Iu7UuhgTM0bEoIzBEBiQVy5k74fhCF4TJ05MMJiytpHNSbkk7ePkEQHP4FKAaS+oiG+SfJm12AttnRAB6ARxp0OOQ3wczKromGGmbHqxjS+kk2qBOt8MjlkCeZFvlEQ0qn4icgy8wqN42WEYuHMjIlENT6eaC9nIXcSQq0W3tsjEPEticGFGCVOBYZS0Yco6sHwxOCsDMybIZhDUT8R5+u7QHsziIBF5Kaa4MQNBmhD+4c4vLDHQiP/7y8TgkEoQl7yjJDtS1S8dg8um7bNlcNGylPbZ8m/ZsmUCRk6dbUZrs7tc2xccrA1EJJtUVAbG+GW7KScpEf+QFwQ8g4vAGO5Y6HiiZB0uYjWIMPaiL126NBp8tWdZG9FRo8Wh86LTs1kg7ohSopRvBkfHSF7Rj5N8jfmZaAc3Y3CpPlo6DdKSTRAEzZo6deqk8aMzFRKiDKRdGgZHOiNGjAhG1qTHD8xNHEiYMOWbwdkMjfeH+1tuuUXLYLhRd+5NCmAdMm4wvXS/qVOnhosd3GdicHPnztW8UnXu7NIlz1QMLtu2NwZTUbsoZWOW1oVZGqJ/6mW7HWVrvz7LhqEAs2xuwrPg6EzNvhXyY0nCU8Uh4BlcBPvwixt9OcPiOBiVkTG9TJ2whTXxH+tBsuPRnHUNjA+CX3kwOBPRMIOMkq0phj9++2iz7eSiaad6FmV0rbfsolzNm/zAJBO2Jc3gLFHajDUw1p+szZgVpaJ8MzjysHIymyN/2aykV5har169tJ6yO1SLg/TA3odU5SvJLRODQyRN2pQhSrQBfmsCg5PTXAIMqdPw4cOD6lo9ZRNP4Ba+oR+wX9g9fG/vZnRdNdxPlCQpCKfn7/OPQFEyONsswqJ6KrJZQ3TTgo2qox2Dieji6KiZKFJ2cyVlbbMmPsRUDE52zOnHKmoISfEyPdjaVqpNJraxg7ogeg0TeVAOZhlGZcngWG8hP0SVYZIdeUEHlQ8GF02bupNvKtEygxv8CENHlw+igyVNY2bMMFh3ZHaBGA2/VAMnm3VkU4ZMDC48iIumbYONfDA41qSoU3RtNV09XnnllQR6a/yY/ZWW2KhkbQy+4WUFykTZohvGyNO+G/z5pZPM2KYgBq1hCm/WiX5b4XD+vuwRKEoGZ+IhFp1TkXVAoveV1Lnx0fPCd+vWLSmaMQQYY3hWRiCY4ldffRWERyRIGqx1GPHhlSSiRMRGPMR5cck+1FQMjk7OmO0zzzwTJEkHy6yGvNgYYVSWDA7RJvnRGcHUjNiQgTu/0jA42iA6G+fZOj/8U5HlLeoEqbyzdrNZs9UV8XZ4F6pthrCE2RRDWN7XcOeMP+2Ubv0N/0wMDn9TgGZN0hg476lhkg8GF27XaPkpQ5RsLZY652MXJembaD+8g1ZOMQreK2Z5UbJvzdqfZYtUZOJcvheYqRGbZYiban3bwvhr+SBQlHpwsm6humFoWqA4zfE9KGXbkT7o7pieDnpEnFsni9KBPpIwDLfTTjsFihrSUanyL3pE6BQ1btxYr7LWoXpPYT04zqcTBqq6Occcc4we+opOl3R+QXrjxo1bTWmatORD0jDo4qF0vt566zlZR0k674700YOCKI/s/NTyo0MFoRNk6XC2pYjN1B29J3Sh5KNVxWp03ajnuuuuq/6mC0X9ZPu6utmfHVeEHht45kKWBnVDMR2dMRS/jcJ6cDLDVWVj+UTUmzITHsVgU4JHsdgOmEb5WZi9plujRg1VaH/99df1uDbp0JP0/Sw/rjLKdzKrUCf0pcCH8smaTjhY7HvDkAi8I+gwood20kknaRocNRZWIue4sObNmwcK/iikV6lSRQ8eGD9+vCqrg4sRR2OJeFkfUfhH5w79s7BSNbpb6FEKM1M9OPS37BuQWZPqc5FAKj24bNteBkWB/iFxUSRHwR7dQ97fKOVbD470w/WsU6eOHl3G9wXu1gbRcvCu8M4YyfpoysMdZHam532iC4d+JO0Tfm979OihdbV0/LX8EShKBgfMvOScGoGyL8QLipKtEe4o2ZqyL+50+nR6qZSJ6XRRADdFVUuHdGUmGJxQAjPkpBE+IiM+fs6YlNmZfnipGBxh6cA42cROEMENZsmHa2QKxfYcvUY7KTpKTp6gozPiFAvqjrK6kXXO0fj4t2/fXk9mCZ8WYfHiXskfDGC6RjIj1pNHYNRhBhcegFjY6BUmaQrZMGSUwOnUwiSjbCdiprSnvqMMLmJFZbQWl1NEULDOla688kptP5ECuCOPPFKT4RQYBjipOkTKgLK/MVrLl3aA0aKsbcShytHTXczPrryfDOYgmck4Bl+8Twx8GMzBfCgb7xEK21Bp2l5E74o9bWgYUuZwuTUT+SsLBkfafMsM5GA+RjBwDtFeZ511zCm48q5xSLlROgaHP4rt9AmceGQElrJxzDGA9VSxCBQtg4sLOyNhTI9Uq1YtbUcYTgsGRnhe/Exx8OekBZgI4SqSmAlRZjpTZrPRU1rKs2yyuUNH3ZwEQUeRL6KOnN7B7JZODczDJ8LkK5+ySgcmw2xERJP6HjJTDR+lVpp8RXzo1l57bf1Z596mTRuVDpQm3UKLywHUtD/HrXHiSD6JAa6IuvWUGo7eA09PFY+AZ3AV3wZrVAlg2uHRbEmVQ2xV0Qy+pDKm8kcUiNg4DsGIONfRxL1x4pR1GBg+53MyoDGSzRSOGSZnf2K9Yt999zUvf/UIVEoEPIOrlM1WuIXmUGDEm3EJo5wc1lzZyNb14pab8woLacbI+thRRx2l628HHHCAShxeeuklrU70fM64dfThPAKFhoBncIXWIpW8PIgBbaNDnKqwphU+iDdOnEIIwywnvD5bUpnYpMKmoEIhROmsnWLLzAiRMOt6WIvYYIMNzNlfPQKVFgHP4Cpt0/mCewRKjwCiSlGZ0IQ22WST0ifoU/AIFBACnsEVUGP4ongEPAIeAY9A/hDwDC5/WPqUPAIeAY+AR6CAEPAMroAawxfFI+AR8Ah4BPKHgGdw+cPSp+QR8Ah4BDwCBYSAZ3AF1Bi+KB4Bj4BHwCOQPwQ8g8sflj4lj4BHwCPgESggBDyDK6DG8EXxCHgEPAIegfwh4Blc/rD0KXkEPAIeAY9AASHgGVwBNYYvikfAI+AR8AjkD4GiZ3Bi8FHNhogBSPfPf/4zJbJiwNBNmTJFzWtwyv2aSpgU4VT0sC2sylTXadOmqSkijsU699xz0xa9stczbcVK4ZHPdxw7dGJE15133nmV8pxRYOTQcDEaq9YB9thjj7xatrBmwt4fVjwgLBwU0lFuVsZKf5WjemKRdB4JafRYYStTIDl3r9QWowutvlh7lgOPE2LTKquimQXjrCIVUOCJEydqW4atUacqXlnUc/To0QmxP5eQczhTZVnwbsL0FTusjpeWxPCtpiUGa7NKqhAw5Ntp166dlt/eE65yiHhWdYkTWGwRBvkIo4sTxYfJEgEXN3wxM7jnnnsuITO8SsPgxaaafjhi7Ttu82o4McSaKIk5ZJVgOQeOy+DKop7333+/Yi7Wxcu51vnJLp/veK4MrhAwZJACQzv77LMTYhsvIcZtAyYkUpz8gC2piAHbIF3y8wwub9AmJeQZXIwZXBJileAhVwZXCaqWsYhxGVzGRHL0LITOOcei5z1aZWVwMBmbtYUZTqdOndSdaz5IjB0nGjZsmGjdunWQ34IFC/KRtE8jgkBRrcGJyMRhlwsT9nvvvbdr1qyZe+ihh9TAI5aMw2ZbWHN79tlnk0TQl112mdtmm22S3OzhrbfecqNGjXKNGzd2WFsmr0mTJqkF5iOOOMJdfvnlSZaySf+pp55yIhLSJGrVquXOOusst//++1uSSVfWBAYPHqxlxbIzlsDr1q2rVpd32GEHDdujRw+1WIytLzM6Kh9skA5yfuoQJupIWYywdNyxY0d7XO2KKZzHH3/czZo1S/123XVXLcOBBx6YFBa7cNgXk1mkmpWRmY2udVJWylC7du2k8Nk+YJanb9++bvLkyWpIFMOp++23n5NOyJ166qnu2muvTUoym3piSob3hN8333yj6bA+e/DBBzsZ2Qd23cANLKAZM2a4H3/8Ue2r0f5GF198saNts6HZs2e7fv36uYMOOsg1bdo0bVTesTfffFPfG+oOSUfpBg4c6GbOnOmwRr/TTju5Y4891p188smrWQDP9h3n/WZ9je8HM0d8P+BPnm3btnVmjYD1vAEDBjjWOnkXM7V9rhhi2bxr164BNp07d3ZVqlQJnnO5eeyxx5zM2FyDBg2CtDEK27x58yA53mmrZ+CY5Q3f6ciRI92gQYN0nZLo9AWV0fBvllUv9+BFw+BkVOn4QXvuuad+lHRIRlEG98Ybb7j77rtPva2TgxnutddeFiXpOmLECHfPPfdoRyLiB7ds2TJdmOYKwZxgMNCwYcOCtHfbbTdHZ21loYNu1KiRhrM/OjE6C2jzzTd3bHSZP3++xmEzxaWXXqp+hMFGGR202SoLb4qh3iKC0bD2B5OgA4KsnjDrVES9unTpol477rijW2eddbQcOFx//fVad/WUP+vktttuO02X8FYmwkTxtnhxrosWLXIXXXSR1h88GHTQoRulYnDZ1BPG1r17d00O/BhMkD5tCeMBR4gBDG0OUSb8KU/YsCmDhXTvjEZM8UdaTZo0cTVr1tROMEUQdcL6NgxmyJAh+k58+OGHrkOHDloOcKd9DPMTTzxR/cJpZfOOW3sSP/rO4hZuTwsbp+1zxVBmQWolnbyhsWPHug033HDVQ47/t912mzJwmDX4y2TAXXXVVYqxJUkfQv1zJRj6FVdcoYMD2s+M/XoGlyuiJcSLzOjSPlbmNThhIIEowDYBrFixImEL64glFi5cmLbuFi7TAvyTTz4Z5MEiNXlCf/75Z0JGfcHzvHnzgnBTp07VMDLKTbB2QzkQXSxZskTd+UPciBt+MsJMrFy5MvB7++23E6kW8nMVUZIHv1QkuysT0kmqv4zkgyDhcotdscDdxFSkJ52wun///fcJmb1pGtIpB2GzvWENjXRpF9oRol2t/CWtI1q4VPnSXlZPax/CyaAhAd7UIRXlW0Qphke1PsI0U2Wn7xX14N3gnVi+fHnC4gwdOjR4T8DF3IWZpEwLx0zvePj7sbYEJxnsBJiHv59c2z4bDPlGrB25psMpbYVTeNjmkvHjx6uvDHQ0D+rTsmVLvX/33XdTxIznxDfEujhtxjcKWR28iDIehtmGKoo1OBkd6YvEBxmmzz//PHjBwh9oOAz3mT5+C2sMjpc33NGbv13ZrMJLnaoTtnxkNGrBE0888YSGl1Fl4FbSTVkwODp3ys3ie5RsLSFcbuvkWrRokRRcZq9p658UMMODdQoMFsJ0yy23xErb4ofj2j2MwvzTMTMLG75m0zmH46W7F/UVLYcxWRgLbtbBihhT/WXGpkmMGTNGn88880xlxuF07f3n3UtH9u6lGsRZfBEDJkUXUXmAVfj7ybXts8GQdxzGbT92P5aWeFdpexHvJ0S8q4wIPBmAGvNjp2euJGJbTZ8Br5G9a57BGSL5vRYFg+vdu7e+WCJGWQ09mx2FP9BooEwfv4U1BkcnlIkuueQSLQv58kGFf1aWBx98MEgCRshHkGqmFgSK3JQFg7NOjtlTlOzDffTRRwMv6+TYhRYmOmrqA6a5kI3cwSpK7AQk7VSDh3BY61TCbuF7Y5R0biJaTohYKVFSB5pN5xzOK909s2TKyYAAEpGpPttGB94H/GUNUP1FfK7PuIXfKe5tBscsJB1lesdtxhz3+8m17fONYbq6pnM3laF33nkn0a1bN8XTJD4MMME2PIhLl04qd1m31Ph8/2EpDGny8wwuFWqldysKBkenkO7lpBPDL18Mjo87ExkTY9aDHkyqX7gjufrqq7V8fHRxqSwYHEwXnGRhfLViGPML691ZJxdlzNOnT9d0cmVwc+fO1fipVCDQVaKMpWVwzOytsyM9fogtGcSYSDQKQr47Z+sQeXfpEE1syvuDeNAkAdYBm7iQGXaqdwq3TLhkYnD2/SCOjlKq7yfXts83htGylvQMRrS1DXDC77OJKJnd5UKy7qZps9OX2aH97P2STVvqlkvaPk56BIqCwfGi8iJFO1tgsY4jXwyO9Y9MRAdEWT755JNMwQI/+9iyGTmWBYNjpkC5ozMyCsosB7/+/fsH5c61kwsSSHNj60G0W5RszSRTR04cysqvJILRMZMyESxxZMNPymj57pxZ84OZUU8TR7IGSxlgavYeIVKFbJY1fPjwlOUryTETg5OTbTRfZshRSvX95Nr2+cYwWtaSnm3QAMbUK7zUYPWkLaLEACT8i/rzbPFJO9MvVVzvljsCRcHg2NDAS4WoMkzoo9jLVl4MjhNGyDOuLP+RRx7R8OHRZLgOqe75MMmDDjIsDkkVNuxmWITd7N42k7AWESWbPYQ3n+TayUXTjj7T8Vs5w5txCNenTx/1yxeDC+dt9WHAkYpMITgVE0gVPo6b7EzV+vTq1UuvMDM6SmM4MF4jZv3ggigzF8rE4GzdNJq2DTbIN/z9GFbRAWVJs/dsMGRTCQyJX8+ePdPOrLPBwiQR1Ed2EgdRWeu1dy6VqNqUwwmTTgzMu4nYM/qzdMEfP0/5RaAoGBzTf14kOnyYmhHiNnvBwh+o+ds108dvYWwNrqQZnInREO0w0woTzAgRCLutjExURTllq7o565W6mIgqyUMerF7Ej0sWJ1V42boepBkexYY3GsiW9CBqrp1ckECGGzZWUNbwmh/MjvbFvTQMDhEk70uURLdM045uVLJwoiai/rZGZu6lufIuWZtYuuFZhqgsBMmzhmNh5QzFwN1uaLNMR+1leseJZ2mH294YLX7h7yfXts8GQ1uLtXLlYxelqOoE9YQZG9n6J9inIsOOsqRjcKni4Wbl92tw6RAqnXvR6MGh+CvrWA59rOOPP151s2SEGShRyAg4UPTmwGGUMAVa9ZfZi4ZHP82UeFFwPvroo4P4pgeHQjcK25nIyoLO1AknnKCHPKODNmHCBM1HRpJJSp8ysnUooULoeFEHOWnBjRs3zsmIPtCDC+cpHbFDbw3i8GF0xYgnGw6CYDIydbL7LnhGnwo655xzArf69esHel8yA3YiAlP9PhSQ0bNCgRodPhTcwwriMvMMlH2poxGK7ejtUSb0jnIhS4O4KDCjICsz4kDnK6oHl009Fy9erBij64RiNwreKHGLiFiLKkzV1ahRY7Viy9qgkw0d6g7OKL5zeC6K7ttuu+1q4eM4cHh0q1atNKjM/N1xxx2nit3SoaqbzFxcvXr1gqSEITqZKegzuKDDh7K37MR0pMU7ccwxx6h/tu84+n6849BRRx2lupukaRT+fnJt+2wwLAs9OOoiol4nO5f1Hed7531ADxWiT0A3MUq89+gUQuhIoisZl7weXFykcgtXNAxORnh6OoG9rMAlsyj9+FHiDX+gpmibCVKYZFhpmvgiRtQTS0picDJLUOVcTnsI00YbbeQ49QRF06pVqwZeMFpOkBBRlSrxmgcnr8AsDz30UHMKrjLCVWYEEzclck6fgFkahRW3zS165eOFeUEokMvofDXlY0604HSS8Gno6To5sOZ0j/BpEdE84zwzGKDDpl0hBguyLqUK9FEGl009Rbzr2rdvr+9FuBy0TZs2bZKUi8P+3FMmTjaRnaKBF21Wp06d4DmbGxFJBoMoBhJbbrmlW7p0aXAQAO/EpptumpQkJ8jcddddQZubJ8xaRJpBB53tO847SAfPCRzEpaM///zzdRDDoQMintY2IL/StH1cDEX6EbyX5MkApLSK3qRDPTnggYGcEd+ZiA/TKuzng8FhfcEGz5avv5YegaJhcAYVHwZHXTG6pdOqSBKRpBPRjo4SmSnwIYWZRLRsfHyim6VxNttsM52VMYsqb4JBc4QRxGyF470qgsBPNoLoTJJyrLXWWnkrBjMcERs5TJrAPJklZmqbvGWcp4SYuTHLZ9K/w7MAABFdSURBVKBE2fPR+VvRYLwci8X7yCyHQQYDx3zib3lV1JV3nJk/31n4CL+KKo/PNzcEio7B5QaTj1VWCCBmhYnEITqbI488Mk7QggoDs0SEGpcQf3NWaiERszZmixtssEFQLJsZM0NlpurJI1BoCHgGV2gtUmTlQZxr5yWWVPWSzmYsKX5F+TPrPuWUU2Jnj+ic8woLiRBN82PGxoyGGRuiSSjTGa0awP95BCoIAc/gKgh4n+0qBOToKce6VxxC3BbeVBEnTiGEQdxlmxDilAdxa2kO9I2TR7ZhWNsTZf+kwQgbKjiMmLVdTx6BQkTAM7hCbBVfJo9AgSKA+RsGJFhMqIj13wKFxRerQBHwDK5AG8YXyyPgEfAIeARKh4BncKXDz8f2CHgEPAIegQJFwDO4Am0YXyyPgEfAI+ARKB0CnsGVDj8f2yPgEfAIeAQKFAHP4Aq0YXyxPAIeAY+AR6B0CHgGVzr8fGyPgEfAI+ARKFAEPIMr0IbxxfIIeAQ8Ah6B0iHgGVzp8POxPQIeAY+AR6BAEfAMrkAbxhfLI+AR8Ah4BEqHQFEwOI5K4kghDosVo4UlIoaJGbHM7C644IKUpmhKTKCSBsDOGAcDiyHLSlkD7JNhzwtbc+eee27aOlT2eqatWCk8MHEzZcoUd80116iljVIkpaadMP9y3nnnObN3Vpr0KiKuGHl1YjhW+4w99tgj75ZHMGHFIeNYefBmcsqwhcXkRSySziOjReBYiVRQIMzMYzlXjH3GKoEcHqvh5QT4WOHXlEBmXbiy1mfixInabqWx6J1r3XlXxD5gWgvruaZbXvHMKrUYky11luksepeUcCFgSF/Rrl27wNK2fRNyFmdJxY/lLyZ4EmLoN0gf3D2VHQLYdIpFnsHFgqlSB5LZT6Ik5lDIFYzL4Mqinvfff792WmL9vZAhSls2kVgkRLqRl0FsrgyuEDBkkAJTE+O5CTFinBADwQEzkhluWvzieNx6661BWsY4PYOLg1zuYTyDS4Fdsc7gUkBRqZziMriyqFQhdM5lUa9c0qysDE4MxAYMiHujTp06qTvX0tCJJ56Y4CdW35V5wuQ8gysNoiXHLYo1ONaVjjnmGLVj1aVLFzdkyBBdb9h5553d0Ucf7Zo1a5Zkjbhfv35u0KBBrkOHDmr9+/XXX9cT1Pfbbz938cUXu5122mk1ofFHH33k5MV1s2bNUj+MVp5++unuwAMPTArbs2dP991337nmzZu72rVrB37SVO6+++7T/LAdduihhwZ+2dz89ddf7oUXXtDfN998o1GxFn7wwQc7GZXqKfDh9J599lnFwtywzt2xY0d7TLqyTiMirCS38MPNN9+saxbmRp0oC6ZWwIX1BkyrgOE222xjwXK6gmHfvn3d5MmT3brrrusOOeQQR/tIJ+ROPfVUd+211yalm00942LImhVtDs2YMcOxroKZm/CaCnWtVatWUllKepg9e7bjHTzooINc06ZN0wZnrRi7bNjUo+4QVsgHDhzoZs6c6bDqzbt67LHHupNPPjnpHScs5QeXMF122WVp22bUqFG6vjZnzhxtR74b8CfPtm3buk022UST4j0ZMGCAk87bYX1AZrVqO26HHXZwpB9+73PFUESJrmvXrkHRO3furFbGA4ccbh577DEnMzbXoEGDIG0s1/OtGr300ktBPc0t7hUDsaxJYjTWjMWyXiwiy7hJ+HBZIlBUDM6w2Wijjdwuu+wSdNbRDtEYnIWn01qyZInDqjFxMfBYvXp18w5eVhyw5YUZETMGef3112vnYoEnTZrkrr76arf55psro8XsCPTUU0/p5g5sbPXp08ett956FiWrKwyle/fuGocybrHFFtrZLVu2TDtN0g8TTIIOCDKG+NZbb4WDBPd33XWXo/xhWr58ueKCGxtzyA+CSdx0003aAfOMhWpjjmBIR4IB01yIdrjooouUoYAjzJIO3SjanrhnU8+4GILFPffco9lSJjCmPNameDBY2GuvvTRM3D/SatKkieLDQCsdXXnllcpgGLDR1h9++KEOyijHdtttp++hGZOVmYP6hdPCRh2DKsjaPp3xUmNahOV7YIABQzcScZ4OIHm2sJSBdPkmrBz4h8PmiuFPP/3kTjjhBJJTGjt2rA6g7DmXK4zmxRdfVGYN/gzQ2JwGEzfC6Gs+bPV5BmeIlvG15EneqhBrwhocIgF5YRMsJEMyUk40bNhQxQ8s/hqZiJLwiL2glStXJoRxaFiZBVrQhMwOVexAWBnhBu6sxeBG+mI/K3DnRka36ifMT9OV2U0QVjqEpLDZPPz5559BWaZOnRpEFWaTePvttxNiWTpwS3VDefllQzIj1TgszJOPEViQllinTsgIX51//vnnhDAadW/durUFzfrKGhppI96RHbIaX2bQ6oZ7SeuIhOGXinLFMN8iSjZEUUZhVqmKmaCc+PN+8W7KQEM3UeE2dOhQdSMiuFhawkxSpoUjWBI31SYTYWbqh7909poG+fMd4MZv4cKFQdomogyH592T2ZuGFYYchA3fZIOhDDiDvMknHU7h9Eu6t80l48eP16Ay0NE8qE/Lli31Xgz0lpRMLH9hyJqeF1HGgivnQEW1BseHwAcfJtkSry8aTMfIGJyIXcxJr4sXL9awpGNMEsbBM4vSUaITx4+XOUx0DldccYX6iThJmQDhRBQaDpb1PZ0c6fAriZmlStzipvJL5SYiMs1LRLEJmFeYrFON1l1EVsGgwhhfOF6ceytneFBCvFtuuUXLUxoGlyuG2XTOcepoGxJsoAJjwc06WAZn4CBidE1uzJgx+syAIjzQwFOkA+rHJpJ0lInBWXwRAyZF/+qrrzRdypGKwbVo0SIp/LBhwzR8uvbJBkPeN94x+9n3mJRhlg+Ul7q8//77CRHv6nsKnryzxvzytbOa74K8PIPLspGyDF50DA7mEiabadE5GhmDE/GQOQVXOnNeTBG5qJt9/MwqomQztUcffTTqlWBUbLNH0uvVq9dqYXJxsE6eD3Pw4MEJdn7F/fgpB784xEjfwsuaTFIURtPmRznoOMI/87POOilyCQ82cge7KLETkLTTdaAW3vK35+g1Fwyz6Zyj+aV6thkwTAEy6YFtdLDBBRsWIHtnqVsYa+5tsMEsJB1lYnA2Y2ZXYZTsHU7F4NiBGCaYNOVL16nnG8Nw3nHuRe9Vy/fOO+8kunXrpvc2IGawS9mjA7Y46aYK4xlcKlTy71ZUDC5Vp0gny4uL6NLIOgs6zChdcsklGh7GAT344IP6nIoZGvO7++67o8nos4nryB+Glw/6/PPPE/ahki4/dm49+eSTgTgvXT4WPp2/uTM7JE3CmzjH/Lgys7K0rrvuukS6n81OwnFLup87d66mzUAjSugqkW9pGVwuGOa7c2bQQF1gaIggDW/eYQZpzMbwtw7YxIVIEtLhnQmXTAyOMpAXg8EoMYDBLxWDgwmHafr06Rq2UBkcuFEXG+CEv1sTUTK7ywd5BpcPFEtOo6gYHC8vnUWYZKFdX2obGeNnDM5Gx+HwdCCkY7MWwvAcHa0ShxkUfv379w8nofcmYsKfn63HrRYwRwc6aWYBJiYlD9lxlzE1K0umQIhrbC0F5p6KZPOB1on08k22HkSHHyVbM8nUkRMnTj0Jlw2G+WZwiBlhZtTT3hXZ5adlh6nZe4hIFbJZ1vDhw/U5279MDM7E+KkGfMZ41wQGZ4MG3g/qFV47t3rSFlGiTwn/ov6pnj2DS4VK/t2KjsHJETxJKBoTkp2LgbsxOE4cCBMbSqxztDUnE3Eio4+SjarDm08Iw4djok5k+sYw2BxQFmSL/mExbKp8rG6p/MyNUS3hoptKzN+uJroqzaYZSyt8peO3ciKuDBNtiF++GFw47ZIwZIBD3qmYQDidbO4Z9JAm4muuMDM6WmM44Y06iA8JgygzF8rE4GztLJq2DTbINx8MLhsMEYPDkPix0ck2G+VSd4tjEhfqIzuJzTkxLySRSCXuN+Vw4mUSAwcJyo1ncGE0yu6+6Bhc7969AzT5SIzRhEUPxuB4YWXLdhDe1ngQUxrhTzh+4dFdeAHe1ussjjE+6zBgAsYQTORkYbO58pGzIzNKbGShfOSbiawe6cLYDAnMjMGnC2udMEw1uu5JJ5HL+pvlxcYKyhpe24TZGYalYXC5YjhixAgtU1gSYOXN9cqAx9rE0g3PMkSdJUiaDTsWVs5QDNzthnczOrgzP66ZGBzxLO3wO25tjF8+GFw2GNparJUrH7sow5IHxKlGtv4J9qnIsKMsnsGlQqji3IpSD046QtUxktmX+/TTTx26YcLUAkXYsB7c1ltvrXps8kE5+QBVaQNl7Xr16gUKHMI0nYiGVEcOxVz04FCgRU+ocePGSYrTI0eOdD169FDdoEdEIRalTwhlaPTGovpxQSYxbmSXpyo5o6eDYjcK3iggy2hRYwtDcDVq1AhSkpGpk913wTP6VNA555wTuNWvX1/xwQGFYelIVKcNRfYoocS78cYbqzMHyaIgCwaU54gjjlBFXBH7OVm303DoQ+VC6NNdeumlGhUF5mrVqjmZCQe6VlE9uGzqmS2GVn5ZG3SyoUMf0ftCwR9dRhkMuG233daCZXXl8OhWrVppHN6N4447TvUKpUNVt+h7KAxRdSjxBBd041D2lrVOR1oywNEDD/Dn8AN07KTr4VF1IdFZa9SoUaCoThtzEAKEvp+9/0cddZTqwZGmUVi3jffaFL3DumrWbumUm7PBsCz04KiLiHrdE088od8yWPA+oEwPgVcq3U10HdEphOhL6D9SEXiRPkT5wRudUA6cgI488kg9jEEf/F9eECgqBgez4pSQ8AtYp04dJ7OMJOVcY3CcQhHuOEGc0zro6MMkYjMnIiz9AMLunPRAp29K2yh/G/OQWdVqJ1zQYcEYYQYyagwnFeteRJ+uffv22qGFI/ARtWnTJkkxFn9TNg2Hjd7z8cKkoZJOhpcZbqDoTXgGBXSM5BMmmLjs7HMXXnhh2Dmr+wkTJmiHDcOFSFPWpVRxOcrgsqlnthiGC02ZONkkrBgs4kXHO5YLiUgyYDC8F1tuuaVbunSpMiHSQykZCxlhYqCEQj4DizAx4BGRZtBBmzJ5OEz0/vjjj3ciflNnGCEdPAM04tLRn3/++crIeK9FDK9tQOB0DA5lfL6p8Ekh0TzjYigShOC9JA0GcZyUU1qinii/M2A1ot+QXZVpFfbjMjjqxsEP6YhvQkT/6by9ew4IFAWDi+LC6JVRPSdg0DGWRJjOIA4jYmZn6UjEW46jfSBG8Rx7VRFEWTk+iVkU9WOGY0y2IsoDLiKydSKa1E6ao6zWWmutUhdFFvYdM0LaBLzzkaYVqtAwtHLFvTJzk/MUXdWqVbX989H5W94w3ipVqujsj1kOgwxmOfnE3/KqqCvvLH3EZpttFpzQUlFl8fnmjkBRMrjc4Sq/mLIW5xDZxCE6FkRBnMlY2WjcuHHKiOOUm84GMU5lI5glkoC4hGiQo80KiZi1MVs0kTpls5kxM1Rmqp48AoWGgGdwhdYi/yuPLODr+ZRxi8f5ieEzEOPGq+hwHBQcPqcwU3kQiyEmq2wkeoMqGo9bbtEtc3LSTdzg5RIOETw/ZmyI7JixIZqEWL/O9rxNjej/PAJljIBncGUMcK7Js/klbsdPHizcV6QYMtd6ym5KtdQQJz7itvDmnjhxCiEM4i7bhBCnPIhb83Ggb5y84oZhbU/0HpPeSTZUcBgxFiI8eQQKEQHP4AqxVXyZPAIFigDmb9iIg7Qg03p0gRbfF6vIEPAMrsga3FfXI+AR8AgUCwKewRVLS/t6egQ8Ah6BIkPAM7gia3BfXY+AR8AjUCwIeAZXLC3t6+kR8Ah4BIoMAc/giqzBfXU9Ah4Bj0CxIOAZXLG0tK+nR8Aj4BEoMgQ8gyuyBvfV9Qh4BDwCxYLA/wMAAP//8wO7LQAAQABJREFU7Z0JuBxFtceLJeyBpxADGuGxaYRPCQJfABd4hLCEsMWIj30HRWJYBUUgsoTNAIGExRDZxUAUUBDZX2QJgkHDY4fHKlEWEZWw+DDzzu88T1PTt6enZ6Zv7sydc75vprura/1XdZ2qU3XqLFIRCgXo0UcfDR/96EfDxz/+8QK+3Ysj4Ag4Ao6AI9C3CCziDK5vK8BTdwQcAUfAEegdBJzBlYzrH//4x3D66aeHz3zmM+HrX/96ybF7dHkI/Pd//3c477zzwpe//OWw55571vT6ne98J7z33nvhnHPOqemn215ceuml4fe//304/PDDw7//+7+3VPxf/vKX4frrrw977713+OIXv9hSXH0V+JVXXgnPPPNMWH755cPQoUPDMsssU2pW/vKXv4S///3vYemllw6DBg0qNW6P7EMEnMF9iEUpd88++2zYZ599wsYbbxx+8IMflBInkdx6663hnnvuCV/72tfCZz/72dLi7U8RPfDAA+Goo44KO+20k15rlc063XvvvbeWl4bdO71+vvvd74Zf//rX4Yc//GFYZ511Gi5/HABmOX369MBAYrvttotf5d63A4YMfL73ve8F2lJMp556athss81ip6buX3jhhXDNNdeEm2++WcMzGJs4cWJTcXmgAgggoixCMjquyKimiNeu9vP6669XzjjjjMq1115bKg5Tp06tfOELX6jcddddpcbbnyKbPXu2YnTWWWflFktmeZV6fnIjyHjZ6fVz4403arst4xv/0Y9+pPVw0003ZSBV26kdMDzuuOM077vvvnvlZz/7WeXCCy/UZ749meHWznyBN8Ikk7iIj58MAgqEdC/NIhCKBnQGVxSp3vHXDh9/75SsvFiLMrjyUvwwJq+fD7HoVAYnywsJA+Le6Pjjj1d3rq3Q6NGjK/xkBqfM0xlcK2gWC9sVIkrEDieddFL4t3/7t7DVVluFq666KjzyyCNh9dVXD1tvvXUYM2ZMj7kuYa644orw0EMPhRdffDEMGTIkbLjhhmHfffdVuXk6AOs5f/3rXxNn5Pb/+Z//mTzbzf/8z/+oGGj99dcPa621VpBRYmDtaIUVVghf+cpXws4772xedU0EcQb0+OOPB+T2n/rUp6pk9gceeKDGkwRq4EY6ovDUU0+FcePGhV/84hcqlnnzzTdVBHrYYYeFj33sY0lsH3zwQZgwYUJYbrnlwrHHHpu4c3P55ZfresUhhxyiu2yffvppFVGBAWLVt99+WzFmbWfKlCmKE+szY8eOrYqnkQeZKYeLLroo/O53vwuLL7542GSTTcKwYcOCdEKZIsobbrhB8bQ0llhiiYBYLov++c9/qggJMdK8efPUCzuIhw8fHmRkr3WFI2tWvVE/iLmnTZsWNtpoo1yMZIak+O66665advL0pz/9KVx22WXhiSeeCNTlqquuqm1+hx12CIsssgheEiL/4BIT68Yrr7xy7JTc00ZYX6MNIyZHXA7+pHnEEUeEgQMHqt9YRPmPf/wjiNQhIJrjGyL+9dZbL4mzWQzffffdcPLJJyfxnHjiiWHJJZdMnpu5ufrqq4PM2MJ//Md/JHG/9NJLYbfddkuiu+WWW5JyJo4Fb+644w5dk1xqqaUC93xPLqIsCF6T3rqCwbGYu+222yYQsWC82mqraSeAIw2Yztno/fffDwcddJB+yPhdc8019f6dd94Jn/zkJ8Mll1wSll12WfOu12984xvhz3/+c+DDgxHVWoN7+OGHw7e+9S1lHq+99ppeYQDEDZ1yyilh88031/vf/va34dxzz9V7/OLnIx/5SNLB8oJOutk1k29+85th7ty5ypToyCnbyy+/rOnBjK688sqkU/zf//1f/fBJn44uJta9WLOAYcKAWdsyJoh/8DCKn+lcV1ppJXtV+AoW+++/v8ZLfHTIdOhGWWtwMEM6WsiYVq01OBjbaaedpn7BYcUVV9T4wR/GwwYiqLfqh/Ix6KLdMXioRQxMYDAM2MgnbQvcySfqPIsttlhSnzJzSOrE4mPNjQEHZJjUWoMzpoVf6pgBRlyvDNRsQGR+yUO6XRE+9tsshgwm4/W922+/PXPgSXpFibUwGDjMGvxljqDfKhgbWRu352avzuCaRa7BcMUmepVKJ4so//a3vyWiB2m8FZmdabFl9pK4y4eYQPHTn/5U3ffaa6/KW2+9pe7ChCrC9NRdZnaJ3/SN7LxSP0ceeWT6lT7PmTMnSVNG2uomTLEiM0B1J39Z1BsiMGHqmqbMGiuvvvqqJiuj88rIkSPVXXQfk6zISFzdELGkibIibgFPSGZt+sz6woIFC5J1DPzJ7KhiIqy7775b/Tf6xxqaiXeE8WpwmZGrG+711tfwwy+LZKaqYiTeC/NPvJDv++67ryKDmMQtvim7fqgT8iDMKk4muSefvKeuwFgGZRUL8+Mf/1jd8Awu5i7MJAmfvqGuiO+xxx5Lv6qwrsw7ftLZ63vSlxlI4m7th5dWv7F/cJPZm/oXhtwjDRwawZDv0vLEtRZOmQnVcLR2bO1SBjqaBuU54IAD9P43v/lNjdCNOQtD1vh8Da4x3Br13RVrcDGDE1FfFUZ0hnwg8UcnYkh1kxFulV9jTl/96ler3OOHRhicjEKToDID0TRrxd3Ix59EWufGGBxxx/Ttb39b88JHaNQMg7OBgH3MdBTQrFmzNH42NjRD1rE9//zzVcFFDK3xtsLgYBQWfy1mVpXovx7Krh/bkGBMFsaCm3WwIsbUfMqMTXMgOxD1WcTiOoiI82gDNjY/1aI8BmfhRQxYFfwPf/hDglUWg2OAGNNPfvIT9V+rfhrBkG8axm0/BomtEvml7mVZoiLiXR08gCdt35jfr371q1aT0fD2TTiDKwXOmpF0HYNjtBsTDZZGLVv6E2ebwYgIJnHjJu78GMFmUVEGx4gwJmYi1rHG7nbfyMdvYepdjcGxOSMmZpbkZebMmYlzMwzuuuuu0/AMFIiPmQVkm0HsWR0L/tnInTpKEwyTdGp1oOY/D2f8GKOkcxMxre6eq9eBll0/IgbWssAUIBGZ6rNtdGCHIuVgwwIkokV9xo2OOv7ZDC7d5jTgv/7yGJzNmNlVmCb7VrIYHDsQY4JJk79anXrZGMZpF7m3ga2I2yuyVKB5ZQYMIVkh7zCmMsgZXBko1o+jqxhclngNsRMNl1kLhKiDZ36IpdJkHzRimywqyuDoRNNk6abdee6Nj98YnKy7VSUpi+1a/lYZnHWIhrGpTjBCpqwwj0bpueee07BZM93/+q//0netMjjZVFSxzs7qhLYDwzaRaDrfZdcPomLShqExKCN9nml/DK6YjfFsHbCJC9nefvTRR2f+8nDJY3DkgbSyVFQYBPAui8Gl1QQQeeO3XRkcuJE/G+CcffbZSTWbiJK2WwY5gysDxfpxdBWDo/GmiY/WGjXv6Ex45se6W0y27sG7WiP6bmRwxgzSa3C9weBsPShrsGJrJnkdOfVp9RvXbdY9jI6ZlA0ECMf6YhaVzeAYXMHMKKeJI23gAVODkZEfpAqQzbJmzJiRlb26bnkMztaHs0TKxnj7A4OzQQO4Uq74+7dyUhdpos+If+n3Wc/O4LJQKd+t6xhc/CECpy2Iy87IBF0blaYX3J+XNR8aPx1PLeotBmcKp1mdTK281HO3jrvIDC5m/PHaIfdgwm9hMDg6fkvPNgBZOS+44AJ9VxaDs3i5WjvJmnnzvjfqx9ZCJ0+erOWCmdHRGsOh/owYTIALosxmKI/B2dpZOm4bbJBu/F0ZVo3O4BrBEEkLDIkfywu1ZtaNYGFrjZRHdtgmQe27xz1rYGvK4bzPEwMnEcqNM7gYjd677zoGF68LMEKz9QnZYp2gbB0Ki+p07EZ0nDRi5PO1qLcYHOJC0rY1mFrpN+LeCIMjXsSC5CGexdiHivvCYHDkg40VpGebWHCD2Zn4uBUGR0dp5SBeI1uXRBSYRb1RP6xRUk5+Vu/xLENUFpKsiC5a4pc2mCZmHnmnlOQxOMJZPuIZjDFa3pXB4BrB0NZiLV9l7KJkzd3ii3cQ2/on2GeRYUdYZ3BZCPWdW1fqwaHcjd4QuiimtCqML1GwMD0kHNBnQykbc0EoLUPS8agCrT7I3/3336+K4zyjXIsuDTpBKJUboYyLMrfpwZEH6bTstV7zzkiUtacgGwfUH/pqKJ0PGDAgCNMJq6yySlU8RR9MD05G6KqEa+Eon8yG9OBdlM+N0CVD5woaNWqU6h3JqNde99CDk51nqrgOPjIbCePHj9f8ovuEIjlKv3vssUcSvuiNzKzDwQcfrN5RYB48eHCQzUKJzldaD05G4HqWp8VvZYjT3kzOGUS/7Y033lBFcXS9UOxGwRsle2HkGhzl/zXWWMOiSq69UT8cAIB+JcT5iNtss422QelQ1Y2zTmmfRlZvPIMLbZz2iK4jcQlzDltuuaV65yADdOyk69FndATRWaNd2uG/a6+9dhgxYoS+Rx9TGJDeb7HFFqoHR5xGMoPsoQdHPmNdNau3WsrNjWDYG3pwlEVEvUHWivVwZbCgPdh3D17oJqbJzvHEnTaErmQWgRfxQ+QfvE0nFzf0XzlIwKk8BLqKwaF4CtOR0XiCIKdFfP/739dTwxNHuYHx0amY4jPvCE8nkVaspqNJnwgRx8W9MRFObjj00EOVQaRP0oDB0eBvu+22dHB9hlFwckaseCqzzbDBBhtk+q/nWIvBkVcUgE3h1eLhoyTPdJhGlIX8yEYS7TDpAEzRO83gLL5WGRxpgwV1ISN3zQoK33QO5DvN4Eyp1vKcdaVcMG2Z1Ydjjjmmqoz4p15g0HGHnY6n7PoRkWTCYEwpfv78+cqESJuBFKfdxyQbbcKkSZOqlLB5D7OWGXvSQceDuDh8fM/hCCJ+UycYIR38z3/+80BY6plDxTlUmVNKUP6nDqBLaxy2jDI+J+/EJ4VogOivKIaiJqD1ZUEZgHAyf6tEOWlDspaZRMVglQMY0t+9eSjK4CgbA71aJNKkwDfjVB4CXcfgGJ0xemW0CMPi+K48YgSMCRxmCc2cupEXdye+owMADxgBMxmOyeorEvGxHqPGiR3MatNHUbWSL9oIR1BxCg4dN/XPjLlTyNotJ+6Q9zI6fys7jJdjsWgLzHIYZDDLKRN/S6uvriKqDsz86R/shJa+youn2zwCXcngmoerPUPSGSOiK0qIntZdd92i3nvV35133qlMpEgidDZ2jFkR/+3ip5PrxzBk1sZskXMUjWxmjAQBSYKTI9BuCDiDa7caaSI/nIG54447Fg4pu0RVTFo4QC96ZG0yFgPnJVXvbMa8sH35rpPrx3CTnZG6xsqMjRkNMzZEk1Ct8yv1pf85An2IQFcxOBbdbYNBH2JeetKIUzg4tyghzmMTRTuQHD2l4s4ieUHcFm+qKBKmHfx0cv0YfqztXXzxxVWDETZUcHC4G+A1lPzabgh0BYNrN9A9P45ApyIgR7bpgIQdwax9OjkC7YyAM7h2rh3PmyPgCDgCjkDTCDiDaxo6D+gIOAKOgCPQzgg4g2vn2vG8OQKOgCPgCDSNgDO4pqHzgI6AI+AIOALtjIAzuHauHc+bI+AIOAKOQNMIOINrGjoP6Ag4Ao6AI9DOCDiDa+fa8bw5Ao6AI+AINI2AM7imofOAjoAj4Ag4Au2MgDO4dq4dz5sj4Ag4Ao5A0wh0BYMTK9B69iJHPWHaplHC/Admbg4//HC1sdVoePe/cBAwe1vYG9tzzz1rJoqdMg5AFoOdNf1024sy2zhmfK6//vqw9957B7Nx2Il4YjWDY9awJjFw4MCWi4AJLvqiLFp55ZV7mD7K8udujSHQFQyORooNKhoqdqsaJbP3VOahsnSwp556qhrUhHE6tY7AAw88EI466qge9uDSMVuni926sujWW2/VA4i/9rWvdeTZjGW28Vr24Oph3S4YYq8Q23dmd5HvMzb8W68ctd5vv/32Pez0md8TTjihykCyufu1NQScwRXADyOPTz75pFqfxoZcGYSdMQxKEh826pxaR6Aogzv//PMDNs1ghmURFtCxqH3yySfrYKqseBdWPGW28WYZXF9jiEFf2gSGWWMqm8GNHTu2xzme9AVrrbVWnKzfl4GAGC0sRCL+qbzyyiuF/LabJzkgtvKFL3yhMnr06LbJmlgk1jx99atfbZs8dXpGZs+erZieddZZC70oU6dO1bTvuuuuhZ52uyUopnUUi5tuuqmhrPU1hmK2SfO91157VahHkbDo88yZMxsqRy3P9D/0QyJRquXF3UtGoOtmcJj8iMUPiKsOPvhgtVAcDxhYc7vhhhtip/D1r389ICvPIsQaP/nJT8JTTz2ls4MVV1xRRVW77LJL1cjszDPPDNgH41T2hx56SKOSRp9Eufrqq2s6iYPcYGzykksuCawxYUkbsz+IXDFxn7aiTLzY7kL8xoh0/fXX17WQK6+8MpCncePGxVGHP/zhD4EZzdChQwMiFPmYk7CYQznkkEOSdUdmSJhNefTRRzVPGCD99Kc/HeTDDcOHD0/iffrpp8P06dM1TuyGkecxY8ZoPFOmTNF8sT7DSLZZev3118NFF12kYiSsim+yySZh2LBh4fjjj88UUVKX1KnREkssERDLZRHrJDfffLP+5s2bp14++tGPahl33333wEn6EPFdc801ev/444+r+AkzRIMGDVI3/g488MCq+k9e5Nw8++yzYdq0aWGjjTbKxUgYiIpFsalH2SGskF922WU6C8Gq96qrrqqirx122KFHW2m0jSPeZ32NtSRM5CCORYxHmkcccUSyThXP4GiPwizUdtyQIUO0ba+33npJ6ZvF8N1339XZskV04okn9viG7V3RK9/LY489pm2J74pvlZlt2TM4viHarFPvI9BVDA44EQm+9dZbYbnlltNOGjc62sMOO4zbhLCvRmcMWSdXaw0Ow4977LGH+mWdD1GDzHY13KGHHhowMGrEBgcMfNKJmqFPGJYRTOW4446zx/D8888rA37nnXd0DZH88xFCI0eODHzYRjL40XLMmTNHneiE6IwgwmeJQ2FG++23nzJC1gXT4pmjjz46MaZKGSkrZaTjfOaZZzRe4scuGMwcgrkee+yxeo/fv/zlL3rPX/wM01lppZWSd0VvYPj777+/xkt8DDrifO+00049xI8wQzpayOqz1hoczO20005Tv9QNAwPiB0MYD3UEMag599xz9Z48WR0ZA+QFTHSdddZRP0X/iIsBQT0DrwxWYDDYOCSfDz/8sOJudY05G2tjDEKsTiwfjbRxY1qEhYkzwIjr9Wc/+5kaQuW9+aW9gTX2By0fvI/9NoshzGi77bYjOqXbb789LL300vZYyrW3GBzrbQz6MBxLHa+yyiql5NcjyUCg6IywP4goEQ9Ih12R9ZfKggULKrKorSID3BFj1iJhSupPGEumF5k16HuZGVa9l3W7inSMVW72UFREKcxO40Zc8sEHH2hwYXoVYW7q/sgjj1iUFemw1E1mdpVXX31V3YWZV4TBqnuWOFRmnPoODHgf51dG1xV+RpQvfg+GMkNLwstHq17NDdzwc+GFF6qfI488siKMvWIirLvvvtuibuh63nnnaXzEb+IecKAM/OqJKM1fVqJgbKKkuXPnJl7I93333VeR2XfiFt+ULV6jDsmnMKs4meSefPKedgDGtGkLI2uB6oZncDF3YSZJ+PRNXhsXZpZgKwxVg5L+hAkTEndrb7y0+iV/5h/cRAKi/oUhp5PX50YwpF1bPebhlJlQQcczzjhD0yhbRBnnm3uRoGj9FcyWe2sAgVDUb39hcHRSRtZJ0MjiD9Te2zXv48ePzP70Q2ikwy7C4MwP+Ut3rNaJxJ255fPGG2+0rOv1V7/6leavHoOLmWVVBDkPdK7ESx5FtKY+jcFdccUV+iyja31PnqFZs2bpczqf+rLAH2nxe14YfUwnnXSSuseYxO/t3sLbc3yFUdj7NOaxv/R9I51zOmzWs63/GJOFUeAmFtDVO1iTT5mV6bMN1hjMwIxj+ulPf6p+6bBrkbWdrEGchRdpQVVwEW8nWMXfj7VN1rJiEhG++q9VP41gyLcB47afiCzjpEq5L5vBiXi7wuCMtUkRfVasvVKPsgRRSp49kmoEuo7Bye7FKgREhKgfnYjbqtzjh7yPH3+yNqFxMJpmtgITZYSZR8a8spiOhbNOjA8jTYzG+TBgrkb4w80YjbmLWFHds9KyGRyzlnrEgABmxcid0Tjp8UvPJo3BXXfddRqlzSyZWUC2GcSe1bHgn43cSTNNMEzKX6sDNf/44VeLrOOBWcjapc5i63WgjXTOtdKN3a1NwRQgEZlqnpEWQHSSlEHWAPVZxOf6jBuMJf7ZDO6AAw5Qv1l/eW3cZswiWuwR1Oo+i8HxLcQEkyZ/pJVFZWOYlUYjbmUzuKy0rR7BRcSuWV7crQUEuorBZXXiiM1oXHT0tSjv4yfM/PnzK5MnT046GOLjR8cg6xSZ0RZhcIzWiUfWt3rEYcyPTtjIOhtESjGZiCmPwclmkjhI5r2JYskTWCLuZQZhIj3ZNKPhjMFZhwjDJ4yoQ+h7/PEM82iUnnvuOQ2bVRZZvNd3rTK4F198sbLvvvtqXOTTygvDNpFoOt9ld86ydqrpgjmzZMOYOmagYZ2vzbpNXMiAg3rJ+uXhktfGrd6zdoia+DuLwdF5xySbk7RMzuA+RCWuW6vLD9/6XasIOIMrgcFZJSDSQkyJKMc6RuTrWVSEwSEuIh462zTxMfCOmZSRdTZp0Z0s8KvfLKZgMzgYfR7JBgaNgw6W+GKSHXT6bmEwOGPWWYMV2Ryi+cjryMm31U1chqx7GB0zKZi/hYF5Z1HZDA4xI1hTThvMXH311ZoP6t5m64hUIZtlzZgxIyt7dd3yGJyc+KLpZomUjfF2M4ODScW/umCnPBx00EGKb9YAIuXVHxtEwBlciQwuxt7EMXQANP40sSGDTpNOLOs9/q0zx491ZBaPieMQpxl9+9vf1jhZc4uJD4e0WmFw1oHaOprFz+Yc6+QWBoOj4zdmkxYDi6KwviuLwVkZudq6Uox3/N420mQxgdhfI/dWnyYdoA2AtTGceNbNbBlcEGU2Q3kMztbO0nFb+yTdMhhcIxiy+YZZLD85fq/mzLoZLCyMzZLrbTKxjWDgkCcGtnjjK98P3zdh2ZTmVC4CzuBKYHDsLERsFBO7D2m0NN5axHt+iKOyCMZnI3U52y/xwnoQayyEZdZiZBsNCGNrjfjlo8NvKwxOdKs0DkRhMbGOZuVYGAyOtBGLkqZtYsENZmcdRSsMDhFklri6VvlJG6ITJE+2Rvb/rq39x9havNbpkpaoLCQJiC5aUg9Z68nMAvMOashjcISzOo7Xd43R8q4MBtcIhrYWa/mqtds0AaiJG8O6HoMz7MhLLQYHbmzKiYnBmjF12q6o6cSv/b4EBLpKDw6dKZRVY+JoHhSYZYSu+j28Qx8MZXDBV72iP4U+z9Zbb50o8a699tphxIgR+h5FW/RaeEaZFZ0fwqAnJKPwgJJtFgmzCHfccYe+4oBg9LnQGZJNAYl3EYkF+YD0Gf0u/BA3+mvoGUknmCiNCpNV/TB039CxQckb5XDT+8rTg9t4441zD6LmqDL5eDUf8iFr3Cg3kxcjdMI23HDDRA9OxJ5alvvvv19xGD9+fBAmq/pj6B2iOG/6gxZHkSt6gCjnQ2A7ePDgILPWRNcqrQcnItsgzD+JGr0xKE57s802U/22N954QxXF0fVCeR0Fb8opm2s0jDDVsMYaa+h9/Cdrg0EGHepEHYLDgAEDtLzN6jlRd9/4xjc0zu9973thm222UcVuaw8cHE69GdEWOO4KAhd041D2lp2Y2g5ob1tuuaW+b7SNU7fS0WvYLbbYQvXgyJ9RrNt2qRxOjqI/+Yx11azeaOsTJ060oMm1EQx7Sw+Octxyyy2aJxFRq24j3xK6kBDtjrqNyc7xxA0dSXQl00R/gju6qRzmgI6iSHlUrxS/cd2kw/pz8wh0PYM75phjgmyCUIaG0iVkirZ5sHJ2nClk09GkTz0hLCc9cBIIjTmLZBQaZM0kyGJ8ojTLByCjuirvsq6nisco8BpxygWdnn145i4bXsLZZ5+tHSH+YXL77LNPgLnQ4Vnnbv5hhpwqUo/B4T9WgLbwKLLTMXHCRT0Gx2kXKDCj3NsKgyNtmCadgmHC4EVmrqqcn2ZwDCLwm0d0UqNGjdKBCm0CphDTMsssoxjGHXb8nnvyxMkmdFxGIl4MG2ywgT02dBWRZDKIMqV46peBFgTmyy+/fFWcnJIxadKkpD3ZS5g1bbHZNs5gj06akz34PoiHdgUjQ/mfgSN1ANVicCLp0JNdOIWHMzuzqCiGsoat9WVxMAApQ9GbAwHS34ilwTXrrNEiDO62227TAaS1V4uTQSffwqabbmpOfi0Rga5gcCXiVTMqZk8cWcSsjVNSmGmV8cFZgnQwmO+AKa622moB0z95hH/yxCzCmNiXvvSl5ISOvLB57xj5c7wXTJt8LLroonnee/WdiHADo2zywqwpfWxZK4lTTuqTQ7HpuJklgmWnEDM32gvthLyX2RZhvEsuuaRKOGC2dNpIGsrEv1NwbiSftFf7hgnHzB4JgVPvIeAMrvew7ZOYYT6MCo3xiJw/yAaRIMq6QXZrJWK0PslcRqJ33nmnMpGMVz2cOPty88037+He7g4wS0SoRQnx97rrrlvU+0Lxx6yN2eJSSy2VpGczY2aozFSdHIF2Q8AZXLvVSIv5Yc0GJgcj4EBhRCPMKpmFcBh0vZlfi8k3HJz1y/icwrwIEIshJus0EvWR5DzPInkXdQ810FvE78Lywxo1P2ZsrEkxY0M0CdU6o1Vf+p8j0IcIOIPrQ/B7I2k6G9ZDYGpGLOoj56djajcSZXZd9yqSL5hzvKmiSJh28CM7MwMHGxclxK1scmknYm0PSxzxYIQNFRyyzbqxkyPQjgg4g2vHWikhT6IeoLtBEev52kgJgHoUigDmb9gxjMWEWpunHCpHoF0QcAbXLjXh+XAEHAFHwBEoFQFncKXC6ZE5Ao6AI+AItAsCzuDapSY8H46AI+AIOAKlIuAMrlQ4PTJHwBFwBByBdkHAGVy71ITnwxFwBBwBR6BUBJzBlQqnR+YIOAKOgCPQLgg4g2uXmvB8OAKOgCPgCJSKgDO4UuH0yBwBR8ARcATaBQFncO1SE22QD8ybcG6i2PlqKDennnqqHtsk9rMWyuGxnKIv9vHUCsIXv/jFhvKK50bKyYHLHHGGyR07CR6rCX155BlmajhflBNq9txzz8zyc6jv6aefruZbMEvk9P8INFL39TBrtR3Wi39hvBdbf0HsB+o5o0OHDg1YzehP5Ayuj2oTRgJj4DTxww8/vI9yUZ2sMYt77723+kWdp/3220/t08U2weoEael1LXMsRSMtWk5Og9lll12SY88wN8TpHRxZFR86TLrYm+N8Rkwk9fbRVdgvxI5h2ixQXH4xsBn2EXM2RcwgxeHq3WNOhrNOsXOYNtVTL2w7vC9a90Xy2mw7bAcM6X8wt0Vbiok+CduI/YbErEohklFjrkXgQpG4pwQBsWelVpKzrGwnnhbyjcwKKvWsYWdlad9999WyxFads/yV5SaH/mp6YkevqSiLllPOj9R0xI5aBcvoeTR16lT1KwZg87yV8m727NmaVl5dvf766xUsUl977bWlpGmRmCV54u9EKlr3RcrWbDtsBwzFlqW2IbGhWJGBaWJZHKvkv//974sUvyP8YNOpEDmDKwRTYU/tyOAKZz7lsdMYXCr7NR/FxJB2AmLBoKYfe9FuDM7yVfa1HTrnssvUbHydyuBEfK3tGmbGvdHxxx+v7lz7C3WdiBJr0jfeeGNAhIMZkyFDhgQsDO+8885qqNSm5lLBasGaU9SfeuopNRiJ6OnAAw9UY6bmD3trJ554or6Xjl7NuZhFZ8QhmLjHOKTRmWeeqelyaO1DDz2kztLQ7LWas0+vmSASOv/88wMy8u233z7MnDkzIEb861//qmssWGpGfGaEhXAsHGNpG+Or66yzTkCM+IlPfMK8JFcsRcuILXnGxA4WimsRcWPZGyOq2CxDJIcFg6effjq0KqKkbljvAm+MamKtHMwRE6611lpJlmLREDjKrEnXAKlLsFtvvfUSv3ZTtJyUi/JAL730kp6ez+n+q666qkWl1sExIApuWPCGHn/8cRVlYgVg0KBBiV/aS5z35EXBG5kpBURatKnFF188bLLJJmHYsGFBOqFMESXrp7QLI9oM5neyCGOu4D1r1iy10k07BUPaLdbRjahXrD5A9913n16xKE9bMUK0Rf4aIUw5YQ+Q+s2zes6aJ2uKrJ9xeDgE9tg4fOyxx/QZjDG9hAX7NBWte8LRnjALZN8X8WHx/sorr9T2OG7cuCT6Rtphsxg++eST4YorrtA0aYeYw2qVrr766nDhhRdqv2eW1Wnru+22WxL1LbfcEgYOHJg8d+pNVzG42Bw9RkHpQOnQ2DwwadKkMHz4cK1HmBbyadZUIDpy+5BYhKVxYJsMwhQKDBIiTixuw1QwEAmNHTtWTdXog/zxkWJyhDTM9EjMnDBBIuID865XmAcMio8N2fkTTzxR9f7oo49O7I1RDjZgQMQFEycv5Bsm+elPf7oqLJjAIKB58+bptdYaHB8+P4i4zYK5OshfKwzuBbEttscee2hU2K6jw2IBnDwdeuihVZ20dSzgzXs+fMOSCLLyUbScYH3SSSdpPsCNtkF+OD3fiDU4NpnAkOl8oVp+GSwwwGiGiHP//fdP7PlhJT6u+6w1ODpA6pz1Q0wm5a3B0bmxdggxkMDitLXzuA1cddVVicFW6gkC89iaAHXSqMVzM5hKx8ogLYsY6IwYMULbL3nFMgZMecqUKeqdAQWDADMPBePHZl1MReueQS1mpebMmaPBwYT+AaId0N5E5KvP/DXSDpvFkHo49thjNU2+uWnTpiXpN3szceLEwAaZI444IowZM0Yts2P2yAbmxMt33m4mm5oqb9GpaKeLKB955BGdfo8cObIio9Gk2B988EFFRuEV+bATN7Gnpn5l5FuRTlzdESnKh6LurMkYyYhP3ZjuC6OpyAdZkY6iIh9j4o6fNDUiopQZTRIXa3bSySXRIS/nB8msNPFHGIi8yKhe3eXjVbdaf5SBXxax5mLvwRIS5l4Rhp24t7IGZ+KRtDhQRrBV5SVd+fiSNOWjxKkinXpFZm/qLp2JutX6s3LUem/u0pFqfNddd5051bz2hoiS9SLyCsZgDVk7xj1vDU52xmnYI488MjPP0nHre74HmcklfqQjr4j18eQ5fVOmiFIGJ5oHsTSfTiZ55rukrDLgVDfZzarPuM2dO1fd+L5Y+8SN8sggMwmfvsEPvyyyNVeR5lSsLRMX/QBh0uvlzbbDRjCUQXZS3gMOOCAr2w270SYoz913361hRSKjz5SHNHgX95ENJ9BGAbpmDU5GQVpxImqoCz8NnEoWMV+VXz4kPiDeGeOLGZyIbxL/ME788bOPJXkpN80yOGMucVx2LzNLTY+OMSax35WbF/Nr+bXn+GrrURMmTIidKy+++GKhuKsCZTzAfEnfProML4mTdSx0FDEZQ8rr+PGfV86s+PqKwVk+6dRjkhmmliGvnPUYnDFKOu9GqJHOuUi8o0eP1rLYIFDEiRURdyZrQ9bubLMMG2fAJavsNthKf7dxPgzT2M3uLbwsYZiTXmH4hKvF4Bpth41gCKOhP+JHH1YGWfqyRFJ58803tU+jHVAHxvzyBjll5GFhxdE1DI7GSSOlQ84jRrD2EVDpNIb4Z+9shBMzuHgkTBoiWtO46GzS1AyDozPII0a55I+RaJpsdpPHIK1s6bA8i3hT4xbxX4/XxvSzGHkPzzUcbNZMXDBqBgu1RuLG4PAXE7M5ykBHlUd55YzDGcPsCwZH2ckneKSJDph3WZ28+a3H4BiAGXNhcAFjYdbPjD+PrHMsaxelMWuTStjgUsTsmg17bxIWZnuGS/xdcm/tUETINYuQV/fsKOQ9kpCYRCyr7rUYXKPtsGwM47wWubdNYaIiUDnllFO0bNYviNhSn/MGCUXSaBc/XcHgZL1LK43GO3/+/FzsYxEIIsdav1g8QrxZzMdGQyYujBNuhsHFotE4Lrs38YLlzdy5GvPL28ae9/GbCDGr4ZsIpxUGR71Mnjw5qSfLC7NRWV+Ji5KIKNNqAo8++qiG7w8MTjYIaVnSnSpAyMYnfdcKgyMeBhHG5AxvOt9YEoG/mMrunGFkpM01lgbYbMUYns3wjInxLdT6NrMGYVYGK6c9x1eLO828TTyfrgsbaDXaDsvGMC5DkXtwAwcbPJx99tlJMOtDmN31B+oKBkdFWeOt1wnTmeZ9BOlKtxncwmBwtdZTLE/WcNGTSpOJAPMabl65+Qh4n/6YScc6yXrYpvOU9cxaGmJK2Zma1AOzx5ia7Vgsjrxymh+ufTmDs041q13ZmkmrDI4yMvhjdoTo3qQc4IPoKovK7pxtpolY0sSRl112mdY9ywDkRTZAJFmxWRZrs81QXt3bQC0tEpYNTJqP/sLgTMwLFrQvljCM7FtOz2Ltfaddu4bBmbgwbwZjlWfMkEXwetQsg7N1MdKqJxayTSb1GJwxoR//+MdV2Y7FUXki2ryPn40bvE8zG9mSru68K4PBxRk3kSMfXYxROzI4W/9Mr9/E5WnkPpY6pEW1F1xwgWJeBoOL8wTG9p0gMs4iE2+lmUCW3yJutlYN85DTUXRWZiJB22RDfRuZJKLZNaK8Nk76vE/HbRtYymJwjWDItw9D4pf+rg2TRq82kKCsskszCR5Lr+odbJAEavObrmFwtm7BKC09OqViRdcsqSrbdcgUng8wJire1t9wb5bBEdY+Nna05VFRBif6TBonH2I8KkOsSFqIe2w3XlZ6lp+sd5YHGDJMzYhdjxauFQbHGkwaa3aHEjdpxtSODE50EzWviHLLItsYJXpQSZQwOxuAtcLgmCHaRqkkcrlhtgTmtRi1bcSwNbI4bLP3JsonXYvXRJO4xVIHE8/yHSPmjwkGjV9RpYmdq+6Jj18W2c5nZom2ns73bmK7shhcIxj2xi7KWEqFWN/otNNOU2xgpv2FukYPDr0zlIDRI0KvadSoUXpFGRqdkFgPDgVYdHPQrUEX5Etf+pIqa8vsJ4j4TPXc0LWCTA+OOGXUW6WqwXmBnPUmHXKmTonsSAzoAkEcnIueE/pF8nFXxWN6cHk6TQSQRqnnD6K7g27dVlttFYSZq2I472X0G7bZZhtulYSxJ3pQOKCrA5k+GvecS4f+DWTlIY/bbrut6qCh+G2UpX9m7+pdUdIVpqw6Tygbo9cmI2etA8493GGHHZIoLhWdq+nTp6tO4XbbbZe4i6hNFevBEl0fo0bLaeFmzJihuoMi3lV9RnPPutKORHynr8Bnww03VL0w6RTDKquskhWkrpuVB4+Uf/DgwaqPZjp/aT24+++/P8hmAY2Xeqddf+xjH9N2YImBMzp9tGN0xjbddFPV00OH7eGHH1aFbsLIbKHHeZvE8fOf/zxwWAGEQv3aa6+tCt7osS266KLq3ugf7Q5dNQjMOZAAnU3uIZlRVR3CYO2Qb4765zxX9CEpP1eZoShWhG2k7mWApXqHfD9ggN4pB1sTJ1RLD04YluZDPcmf1Vu6Hdr7RjDsDT048iGzY9XpQz8WvcE33ngj0fuVQWui52t57tRr1zA4Kggl6UsuuUQVReMKowOXNR89xcHcZaSsSrzGgMydjwoGhOI1lMfgjjnmGD35oVaDIQ0+YpgEzBRCuVTEXXpvf3xwe8tpCvUYHP45xYJT5E1J3eJA4RimHpMp2sZu6fs4HMquKAfHcctIOsimFh04tMLgfvCDHwROnEgTJ6XQeaaVirMYHIMXTg5B8d5OaCC+RstpeeDEGBS5TSHW3Gtd6WA52SRWmJWNM7mndNSKy9yJk4EQ2EO0P04ZQdE5zeBqYWhxcZV1RW3ndMIyYg8iDoxfa8cGA6EdZhEDRZndBdlZWqVcz2AkPtkkK2wtN04lQZmfgYGdDPPggw8q7hyowPcTE98cTJE2EBOdNYNR6susPTRa97LZKYioX9s4mMPkOLR6/PjxOmi0QSDp1hpo1WqHltdGMJQNP4F+BCpL0Zu4GAzThmwQgRtMXXZVNn0wAXG0G3UVgzPwaWAc/QMzYFS80kor2aseVz4mjsriZAj8cQwTpym0O/FxMuPkuB1Gns2OrrPKKaIhxYRZIp1KWcQIWsRmyuw5DYYZLUdidTuJ6E3rEiYPEyiz/fENiLhSj0ajbXdK+6ZNgIuIxXX2wSyODrrR01RqtS0YAO2R+GyACfNkUNCfiP6NWS5HoIFff6OuZHD9rRLbqTwcryXrIIWzxNmKDDL6MyE5QMxWlBD7cTxcp1F/qHsGs/GAkMEw4jzEnqKDl4ihO61uujW/zuC6teZ7qdyyCUDX+opGjzjVbHQVDdNp/jgbcscddyycbcS+iOw6jfpD3XOWJ0xu8803V5ErB0KzfIBoGPGuiT47rW66Nb/O4Lq15nup3Ii7bKNDkSRY6+mPopG47IiB5HSZ2Cn3HjFkJx502x/qHksSbBazNXEqis0ibDTq7+00t1F26EtncB1acZ5tR8AR6D0EWHNHtMzaVJlrnr2XY485CwFncFmouJsj4Ag4Ao5AxyPgDK7jq9AL4Ag4Ao6AI5CFgDO4LFTczRFwBBwBR6DjEXAG1/FV6AVwBBwBR8ARyELAGVwWKu7mCDgCjoAj0PEIOIPr+Cr0AjgCjoAj4AhkIeAMLgsVd3MEHAFHwBHoeAScwXV8FXoBHAFHwBFwBLIQcAaXhYq7OQKOgCPgCHQ8Al3B4DgqSQw5huWXXz6IMb+6lYb5GkyCiOVdtZdVN0CbesCWFGZNsCU2YsSINs1lfrZOPfVUNelCvXFifBZhtgSTK4cffriaNMny021uWMvgnE9MrGAHsRXiwGHOxuQcRkzydCJxKsmTTz6pR3BxmDU25/yEkk6syQbzXNRyqxj+q8hp4UW9t5U/rPJixRcrwUVIzqNT/2nT9UXCtpMfM01flqn7viibDDK0LvKshZuFZLFxVloWaTNiILYitsFKi3NhRvTMM88obljLbpXyrNbnxY0V+OOOO66mdfC8sGW+mz17tmJh1ry5CsOuiO23MpPxuNoQga6YwTF623LLLfWwVLPEnTcOmDZtmhpZxOIx1m47lTC8efvtt6tV7uHDh3dkMTAsi0XzPGOqWEhmdI4lckydlEFYdcdqedqKcxlxL4w4sNCMJfnVV189YFW8FUICghFZTtRPW63PixdjrVhjx0CwMNo8r732TpisWukmAYznrrbaampYlza10UYbhXPOOafX0vaI2wCBokzXZ3BFkXJ/ZSJQZAZXZnoWlxh11VG/MAdz6tprszM4sUatGIpYs8+wE9G25kFsuiV5EAOfyYxOjJkm7n7T/xDouhnchAkT1Nw9azaM5libYmQXy+NtBnfssceqbahZs2aFt99+OwwbNiwceOCBYdVVV+0xNMFEzDXXXBMYMULI+Rk5b7jhhlV+WcPArMhuu+0W1ltvveSdNC01IY8tKmyHbbrppsm7Rm7efPNNNdAYh2EmUmsG99prr4VLLrkkyABGy4iVbkbrjLpjTLBuDHZY2gaXmC6//PIgIrFwyCGHtDSDYu3z5ptvVgvKGPykXjBfkjWDo/5uuOGGOBu61oQV8Cx66aWXwpVXXhnmzp0b3nrrLS0HdTR69OiApWajM888M2C/TTr1xHCriLTstc6IGl3TYgZ0wgknhBVWWKEHdknEciMi1nDFFVdoXY0ZM0Zf0S7ABFtrtC0snGNiiHaYVVZmJFjpNho6dGjAvlwW0Q4vuuii8OCDD2q8GJ/le2C2zOxmu+2202DxDO7iiy9W6QbSAQhbfgcffHBYcskl9Rlszeo11tmxho2ZGbA2Io2tttrKHpPrL3/5y8C6MbTZZpu1LD15//33k7Vn2uiaa66pcU+cODGQFrTXXnupIVN98L9+h0BXMTirvWWWWUY7KjoUaKeddgpHHXWUvQ7G4MwB21x8uDADwtLpwgiM7rjjDu38ecaW12KLLaYbI3hGRMMmD6Pf/va3alsKcc9VV12lnR7vsBhM58SmgAsuuCAMGDDAgjR0JY9mLJM8v/POO+Gb3/xm2HXXXXvEg6l6Oif8kB/EcYbJyJEjw4knnpiEiTu5tJgK7B544AEViTVrxwxxGj8IDOgcY5tcaREl9tWmTJmi/ufNm6dX6mWdddbR+/gPZkUnb/VH/GBD58tAAqZmJOt54eWXXw5srOAKxXVNWFlXMu+Fr7vssksgn3SsbHbKIjph2p61GfIg64DhnnvuUe8wfasf2uGFF16YdNoWHwY7YdCYewG/jTfeOHNjCMwN8a8Z84RZPvHEE9q+aQ/xN2F1Txq0EbBjoAOe0NixY7VNcw9zZUMXeScewzy2pQbzNgZOGCPqE6OiUBmMBwvjDJLA6tZbb9UB28MPP6z5szSx9QbDc+qnCBSdlPYHESWLy/LxVdhAAD377LMV6chVXIHYwsg2meCfBWpowYIFFRmZql+ZyZjXiqzvVWQWoO7S8Sfud911l7oRv8z+Endupk+fru+kI9N4WYwnLfxKJ1jlt5WHeptM2ABAurJTsSIzNE0KHAwTmZUmyeeJqdjIQDyUoxmSzlbDE4elKZ1qxTaP4N7KJhOZ6Wn8RxxxhOJteSROxGhZVLaI0trOQw89lJWcuh199NGaT9olRHui7MKcK8Lw1Y18yaxL3WXGrG5Zf/U2mSCyI27aIHULCYNTN9zPOuusJFqre9zJo8yMFEdhGol/iyMJJDeNiijPP//8JD6ZKcZRNXX/6KOPanzgB/GtInKmfbOBjPIcdNBBTcXtgToDgVA0m/2FwVkHauWWWZM2dJiOkTE4OsSYZOE++QCNSdpHvPvuu8de9Z4OiI9INnpUvYOZsIuLd5dddpl2YNyLKLTKX6sPeQzOOnDSlRF/VVIyk9K8ZXVyMPM0tcrgLJ/xwIE0XnzxxQTvVhiciP00Huq6KBk+Za3BiZhR8yCzNM0CbYmBhahx6DMDKBtY2GCDXb9Z7QdmYn6N8aXLlcfgSIt4+TGgiUlmM+qeVff4jwcE5NPiyaof+zaKrsGJuofudKbcIt2Is9XUvYg7NX/GxGxgCWOWmbC+Iy2n/otA1zE46zysSm2mddJJJ5lTxRicdUbJC7mhw+OjFvGVOlvnHC9im3/7oOhg08SsxTop4ps8eXLaS8vPlrcsNQFmCaSbxZhFjKrvDjvssCQPNorvDQZnI3cRQybp2Y1hlNWBmh+b6dFpZVHMKGEqDDjqqbyUzeAsD8yYIJtBUD4R5yXMnBkSJOI9rQPqiBmIiOyqfrjz+81vfqP+0395DE5EjBqWtNMkO1L1XS0GJ7tLq4LYQI300tQog0uHb/XZ0j/ggAOUkYOXqU3Y7K6sAUyrefXwvYNAVzG4rA+aDoKGj+jSyBicKHubU3JlNIh/2eSgbohSeM5ihsZgaulSmaiJ8DC8ssnSz2JwWeW29I35mWgH995kcKKOoRimZ7qkSx7ApxUGRzwzZ86sGlAQp2yWUTE179NUNoOzGRptkHsGVOSBH6Jdys69bITRrDCzsvcwvVo/2TSTzro+5zG45557TuPO6txtwJfF4Bod3BiDKTqDyyxIC46PP/64lpNZmklTbAlA1oz1nWwYaiEFD9ruCHQVg6PDoHOJSTYraEOnkzUyBie7Is0puTLjIR7bXowfnmXBP/FjN3RWvJNdiuaUXI2J8J6frcclHkq4yWNwJqJhG36aEOOSp/jjz2NwtpW/2TU4BgCkJ7so01lJ1jdbZXBEjFiZNTBm2zAa0mRmlEVlMzjSsJkmsznSp11wpZ0wgyc/NnCSzR/6jFszlMfgEEkTL2mniTrgXX9gcHKaS4IhZZoxY0ZSXCsnyvxO/ReBrmNwadGUMSHZuZjUsjE41iNiYpGaD4UfHSBkI14TfcT+WVPCb7z5hPdsOjFRJ6IqGAn+smZacXyN3ucxONvYQSfHpoGYmLmSn1hsG6/byE65xDv3+OXXLINjvYXwiCpjiuMug8Gl46bspAvDSRN1xDv8pAdFab9Fn+lgidOYGTMM2gizC8RovLO1XeK0/Nmso2g6+MtjcHFdpuO2wUYZDM5OEEmvrdYqh+xGrqC3xo/ZX6vERiXDEHzj5Qn7NrOWD1pN18O3DwJdx+DiTpR1DmM08e42Y3B0OLLNOakt6/ht0ZoXvMcfP9v9hrvosyXutl6HO2QfFzvrIDoZ+xDTm2DUQ5N/eQyOTs5mo9dff32SAh0ssxrKw8aImAwr2baeOJtoDf/NMjjCER4MYuaJ2Bd3fq0wOMR96Z2sPBvmvM8iS9tm61l+GnGzWbOVlbW3eCdi3K6I1zZAMdCIO2feUU+11t94n8fgeG8K0KxJGgOnzRomZTC4uF7T+ScPabK1WPApYxcl8U+dOlXbT7yD9oUXXkjaFbM8p/6LwCIUrYgGhCzK6mG3ZR2FVCTNsvzYUV0Wn3zEqj8ksy9VIka3SZhaotgc68Ghv4MeG7o/so6jUaCsjX6RkXyYQUbnqm+DThB6cCgho2M0atSo8N3vfte8Bo6VQu8KfTnZNRaWWmopfYciLzpPaf24JGDBGw5XRg8KQq9pzpw5Yf311w/oUEHoBKFjBKFfJWIzvUfvCV0ow4R6lhllWHzxxfU9fygFo7sHUS6UjoWJ6jN/6LE1qwdnunTggmK6MP2A4rdRrAdHfQrzY3Cmr8kz/jlWbdCgQeqGYjEKxRD6heSTeNdYYw1VaEd5Xzq6QFuI9f00wL/+ZCAS0HGE0JcCH/Inazr/8tHYJdYns3ZBG9l+++01Io4ai5XIOS6MAwHwA64opKNQLTPOcPfdd6suGrgYcTSWDJD0EYV/dO5ov7FSNfqQKJxzoAB6cOiqETeHHsisSZ+JIEsPLuuoLqu3rLoXsXaif0hYFMnRn0P3MH0AAmmWrQdHnHE5N9hgA9V/vfPOOzO/Tfw79S8EuorB8bFzSggMzIhGLyPkROEad2NwnBYhIsRE4Zd3nEgRdxi4odTKB06nGxNKpnRYprRNh0onBol6QFhrrbVi76qQC2OkI7PTIKo8FHgwheJaXtOdFB0ladHRGXGKBcx2xRVXNCe9yuxKmTWngRihVM6pFnSOlN9Oi7D3Ra+kf/LJJydKzYSTDSZ68giMOmZwKA9nKQrHacHMTCEbxXQGMDCKmGSmEGTzRlhppZVi5+SeQQ0DFxitheUUERSsm6Vx48YpXqecckrYfPPNNRqU7WV2pwOf9Ak25OHcc89NGK2lSz3CaGFSRgy80qe72Du7okg9ZMgQfaQ9Tpo0SfPDwIdBG+mTN9oRCtuQMeZ02+HdMccck1v3ItVQ7KlDw5A8x/kmHqg3GBzxotDPQI5BkBEMHOsTDEad+i8CXcHg0tXHDEDEUjoi56OtR5yIQBhOtMj7IOgIOBIKYqS/xBJL1Iu6Ld4zE8K8Cp0pI3nMotQi8ysiPp0NxTO8WmEacZe1TR11gzWdbllEvmXdUWe31OHgwYOrBjVlpdNb8dC2mI2IaFIZMjPV+Ci1VtIV8WFYdNFF9cdAQtbhwvjx41s+pLmVPPVGWA6gRrrBAdSd8m32Bg7dFGdXMrhOqGBETbKdu1BW6eg4N7BsZlMo8ZQnBgOynplyrf2I2Apm02nUqfVjOMPwGYwxoDES8zGBGSZnf3Jc3Oc+9zl75VdHoCMRcAbXptVm60ZFs8eBvKyt9DXZWmLRfGCUkwN7O406tX4MZ9bHtthiC11/+/znP69nSN5yyy36On0+p4XxqyPQaQg4g2vTGmMUbYf9Fskim1PDh6IAAAQ9SURBVCBsra+I/97ygxjQNjoUSYM1rfgg3iJh2sFPp9aPYce6MetnHJJthEiYdT3Ra0w2P9k7vzoCnYiAM7hOrDXPsyNQEgKIKllPhQYOHFhSrB6NI9AeCDiDa4968Fw4Ao6AI+AIlIyAM7iSAfXoHAFHwBFwBNoDAWdw7VEPngtHwBFwBByBkhFwBlcyoB6dI+AIOAKOQHsgUJjBtUd2PReOgCPgCDgCjkAxBJzBFcPJfTkCjoAj4Ah0GALO4Dqswjy7joAj4Ag4AsUQcAZXDCf35Qg4Ao6AI9BhCDTE4Oa/Uwnrjvx7GDxokfDJVRYNO209IOyxU2ccKNxh9eLZdQQcAUfAEWgRgYYY3Pv/COE7Z74b/vjagnD7PR9o0jOmLhtGbPqhzbAW8+PBHQFHwBFwBByBUhBoiMHFKU65/P0w4dz3wrf2XTKc8K3/N9oZv/d7R8ARcAQcAUegLxFomsExg9v1W/PDLqOXCBecvHRflsHTdgQcAUfAEXAEeiDQNIP79YMfhDEHzw9f2XZAuHhieYYpe+TQHRwBR8ARcAQcgSYQaJnB7SwbTaad7gyuCew9iCPgCDgCjkAvItA0g3vgd/8Mo/d7O6y79mJh1rXL9WIWPWpHwBFwBBwBR6BxBJpmcPNeXRA+t83fNcU5Nw0Mq31i0cZT9xCOgCPgCDgCjkAvIdA0gyM/ky99P5x83nthuWUWCTtuNSCs+JFFwri9lwwfWWGRXsquR+sIOAKOgCPgCBRDoCUG96fXK2H6jPfDOdPfT1K7d+bAMHRNn80lgPiNI+AIOAKOQJ8g0DSDe0942rBRfwtvvFnRnZSH7rVk+OzQxfqkEJ6oI+AIOAKOgCOQRqBpBjf3iX+GEbu9rfG9PHuFsLTreqex9WdHwBFwBByBPkSgaQZnenBbf3nxcPXkZfuwCJ60I+AIOAKOgCPQE4GWGZwrevcE1V0cAUfAEXAE+h6Bphncbb/+IOw23k8y6fsq9Bw4Ao6AI+AIZCHQNIM77YL3wqRp74fxctjy8X7Ycha27uYIOAKOgCPQhwg0xODefS+EvY+cH17504Lw1HMLNNu/mL5s2OTzbi6nD+vQk3YEHAFHwBHIQKAhBoc9OI7nWm7ZRcKQlRcNY0cNCJsNd+aWgas7OQKOgCPgCPQxAg0xuD7OqyfvCDgCjoAj4AgURsAZXGGo3KMj4Ag4Ao5AJyHgDK6Tasvz6gg4Ao6AI1AYAWdwhaFyj46AI+AIOAKdhIAzuE6qLc+rI+AIOAKOQGEEnMEVhso9OgKOgCPgCHQSAs7gOqm2PK+OgCPgCDgChRFwBlcYKvfoCDgCjoAj0EkIOIPrpNryvDoCjoAj4AgURsAZXGGo3KMj4Ag4Ao5AJyHgDK6Tasvz6gg4Ao6AI1AYAWdwhaFyj46AI+AIOAKdhIAzuE6qLc+rI+AIOAKOQGEE/g9rQrIsm0ar8AAAAABJRU5ErkJggg==;imageBorder=default;" vertex="1" parent="1">
          <mxGeometry x="216" y="196" width="269.39" height="180" as="geometry" />
        </mxCell>
        <mxCell id="Ilp4ZEadHi4LMg1LGD61-3" value="" style="shape=image;verticalLabelPosition=bottom;labelBackgroundColor=default;verticalAlign=top;imageAspect=0;image=data:image/png,iVBORw0KGgoAAAANSUhEUgAAAZIAAAEiCAYAAADTSFSPAAAMbWlDQ1BJQ0MgUHJvZmlsZQAASImVVwdYU8kWnluSkJDQAghICb0JIjWAlBBaAOlFEJWQBBJKjAlBxY4uKrh2EcWKroootpVmx64sir0vFhSUdVEXGypvQgK67ivfO9839/45c+Y/5c7k3gOA5geuRJKHagGQLy6QxocFMcampjFInQAFw4EuQIARlyeTsGJjowCUwfvf5d1NaAflmpOC65/z/1V0+AIZDwAkHeJMvoyXD/EJAPD1PIm0AACiQm85pUCiwHMg1pXCACFepcDZSrxTgTOV+MiATWI8G+IrAKhRuVxpNgAa96GeUcjLhjwanyF2EfNFYgA0R0DszxNy+RArYh+Rnz9JgSsgtoP2EohhPICZ+R1n9t/4M4f4udzsIazMa0DUgkUySR532v9Zmv8t+XnyQR82cFCF0vB4Rf6whrdzJ0UqMBXibnFmdIyi1hB/EPGVdQcApQjl4UlKe9SYJ2PD+gF9iF343OBIiI0hDhXnRUep9JlZolAOxHC3oFNFBZxEiA0gXiiQhSSobDZLJ8WrfKF1WVI2S6U/z5UO+FX4eijPTWKp+N8IBRwVP6ZRJExMgZgCsVWhKDkaYg2InWW5CZEqm9FFQnb0oI1UHq+I3wrieIE4LEjJjxVmSUPjVfal+bLBfLHNQhEnWoUPFAgTw5X1wU7zuAPxw1ywKwIxK2mQRyAbGzWYC18QHKLMHesUiJMSVDwfJAVB8cq1OEWSF6uyxy0EeWEKvQXE7rLCBNVaPLkAbk4lP54lKYhNVMaJF+VwI2KV8eDLQBRgg2DAAHI4MsEkkANErd313fCXciYUcIEUZAMBcFJpBlekDMyI4TUBFIE/IBIA2dC6oIFZASiE+i9DWuXVCWQNzBYOrMgFzyDOB5EgD/6WD6wSD3lLBk+hRvQP71w4eDDePDgU8/9eP6j9pmFBTZRKIx/0yNActCSGEIOJ4cRQoj1uhPvjvngUvAbC4Yozce/BPL7ZE54R2giPCTcI7YQ7E0XF0h+iHAPaIX+oqhaZ39cCt4GcHngQ7gfZITOujxsBJ9wd+mHhAdCzB9SyVXErqsL4gftvGXz3NFR2ZBcySh5GDiTb/bhSw0HDY4hFUevv66OMNXOo3uyhmR/9s7+rPh/eI3+0xBZiB7Fz2EnsAnYEqwcM7DjWgLVgRxV4aHc9Hdhdg97iB+LJhTyif/jjqnwqKilzqXHpcvmsnCsQTC1QHDz2JMk0qShbWMBgwbeDgMER85xHMFxdXN0BULxrlH9fb+MG3iGIfss33bzfAfA73t/ff/ibLuI4APu94PFv/KazYwKgrQ7A+UaeXFqo1OGKCwH+S2jCk2YITIElsIP5uAJP4AsCQQiIADEgEaSCCbDKQrjPpWAKmAHmghJQBpaB1WAd2AS2gp1gDzgA6sERcBKcBZfAFXAD3IO7pwO8BD3gHehDEISE0BA6YoiYIdaII+KKMBF/JASJQuKRVCQDyUbEiByZgcxDypAVyDpkC1KN7EcakZPIBaQNuYM8QrqQN8gnFEOpqC5qgtqgI1EmykIj0UR0PJqNTkaL0PnoErQCrUJ3o3XoSfQSegNtR1+ivRjA1DF9zBxzwpgYG4vB0rAsTIrNwkqxcqwKq8Wa4HO+hrVj3dhHnIjTcQbuBHdwOJ6E8/DJ+Cx8Mb4O34nX4afxa/gjvAf/SqARjAmOBB8ChzCWkE2YQighlBO2Ew4RzsCz1EF4RyQS9Ym2RC94FlOJOcTpxMXEDcS9xBPENuITYi+JRDIkOZL8SDEkLqmAVEJaS9pNOk66SuogfVBTVzNTc1ULVUtTE6sVq5Wr7VI7pnZV7blaH1mLbE32IceQ+eRp5KXkbeQm8mVyB7mPok2xpfhREik5lLmUCkot5QzlPuWturq6hbq3epy6SH2OeoX6PvXz6o/UP1J1qA5UNjWdKqcuoe6gnqDeob6l0Wg2tEBaGq2AtoRWTTtFe0j7oEHXcNbgaPA1ZmtUatRpXNV4pUnWtNZkaU7QLNIs1zyoeVmzW4usZaPF1uJqzdKq1GrUuqXVq03XHqUdo52vvVh7l/YF7U4dko6NTogOX2e+zladUzpP6Bjdks6m8+jz6NvoZ+gdukRdW12Obo5ume4e3VbdHj0dPXe9ZL2pepV6R/Xa9TF9G32Ofp7+Uv0D+jf1Pw0zGcYaJhi2aFjtsKvD3hsMNwg0EBiUGuw1uGHwyZBhGGKYa7jcsN7wgRFu5GAUZzTFaKPRGaPu4brDfYfzhpcOPzD8rjFq7GAcbzzdeKtxi3GvialJmInEZK3JKZNuU33TQNMc01Wmx0y7zOhm/mYis1Vmx81eMPQYLEYeo4JxmtFjbmwebi4332Leat5nYWuRZFFssdfigSXFkmmZZbnKstmyx8rMaozVDKsaq7vWZGumtdB6jfU56/c2tjYpNgts6m06bQ1sObZFtjW29+1odgF2k+2q7K7bE+2Z9rn2G+yvOKAOHg5Ch0qHy46oo6ejyHGDY9sIwgjvEeIRVSNuOVGdWE6FTjVOj5z1naOci53rnV+NtBqZNnL5yHMjv7p4uOS5bHO5N0pnVMSo4lFNo964OrjyXCtdr7vR3ELdZrs1uL12d3QXuG90v+1B9xjjscCj2eOLp5en1LPWs8vLyivDa73XLaYuM5a5mHnem+Ad5D3b+4j3Rx9PnwKfAz5/+jr55vru8u0cbTtaMHrb6Cd+Fn5cvy1+7f4M/wz/zf7tAeYB3ICqgMeBloH8wO2Bz1n2rBzWbtarIJcgadChoPdsH/ZM9olgLDgsuDS4NUQnJClkXcjDUIvQ7NCa0J4wj7DpYSfCCeGR4cvDb3FMODxONacnwitiZsTpSGpkQuS6yMdRDlHSqKYx6JiIMSvH3I+2jhZH18eAGE7MypgHsbaxk2MPxxHjYuMq457Fj4qfEX8ugZ4wMWFXwrvEoMSlifeS7JLkSc3JmsnpydXJ71OCU1aktI8dOXbm2EupRqmi1IY0Ulpy2va03nEh41aP60j3SC9JvznedvzU8RcmGE3Im3B0ouZE7sSDGYSMlIxdGZ+5Mdwqbm8mJ3N9Zg+PzVvDe8kP5K/idwn8BCsEz7P8slZkdWb7Za/M7hIGCMuF3SK2aJ3odU54zqac97kxuTty+/NS8vbmq+Vn5DeKdcS54tOTTCdNndQmcZSUSNon+0xePblHGindLkNk42UNBbrwo75Fbif/Sf6o0L+wsvDDlOQpB6dqTxVPbZnmMG3RtOdFoUW/TMen86Y3zzCfMXfGo5msmVtmIbMyZzXPtpw9f3bHnLA5O+dS5ubO/a3YpXhF8V/zUuY1zTeZP2f+k5/Cfqop0SiRltxa4Ltg00J8oWhh6yK3RWsXfS3ll14scykrL/u8mLf44s+jfq74uX9J1pLWpZ5LNy4jLhMvu7k8YPnOFdorilY8WTlmZd0qxqrSVX+tnrj6Qrl7+aY1lDXyNe0VURUNa63WLlv7eZ1w3Y3KoMq9643XL1r/fgN/w9WNgRtrN5lsKtv0abNo8+0tYVvqqmyqyrcStxZufbYtedu5X5i/VG832l62/csO8Y72nfE7T1d7VVfvMt61tAatkdd07U7ffWVP8J6GWqfaLXv195btA/vk+17sz9h/80DkgeaDzIO1v1r/uv4Q/VBpHVI3ra6nXljf3pDa0NYY0djc5Nt06LDz4R1HzI9UHtU7uvQY5dj8Y/3Hi473npCc6D6ZffJJ88Tme6fGnrp+Ou5065nIM+fPhp49dY517vh5v/NHLvhcaLzIvFh/yfNSXYtHy6HfPH471OrZWnfZ63LDFe8rTW2j245dDbh68lrwtbPXOdcv3Yi+0XYz6ebtW+m32m/zb3feybvz+m7h3b57c+4T7pc+0HpQ/tD4YdXv9r/vbfdsP/oo+FHL44TH957wnrx8Knv6uWP+M9qz8udmz6s7XTuPdIV2XXkx7kXHS8nLvu6SP7T/WP/K7tWvfwb+2dIztqfjtfR1/5vFbw3f7vjL/a/m3tjeh+/y3/W9L/1g+GHnR+bHc59SPj3vm/KZ9Lnii/2Xpq+RX+/35/f3S7hS7sCnAAYHmpUFwJsdANBSAaDDvo0yTtkLDgii7F8HEPhPWNkvDognALXw+z2uG37d3AJg3zbYfkF+TdirxtIASPQGqJvb0FCJLMvNVclFhX0K4WF//1vYs5FWAvBlWX9/X1V//5etMFjYO54QK3tQhRBhz7CZ8yUzPxP8G1H2p9/l+OMdKCJwBz/e/wW9HpC5MZQvNwAAAIplWElmTU0AKgAAAAgABAEaAAUAAAABAAAAPgEbAAUAAAABAAAARgEoAAMAAAABAAIAAIdpAAQAAAABAAAATgAAAAAAAACQAAAAAQAAAJAAAAABAAOShgAHAAAAEgAAAHigAgAEAAAAAQAAAZKgAwAEAAAAAQAAASIAAAAAQVNDSUkAAABTY3JlZW5zaG90P77zcAAAAAlwSFlzAAAWJQAAFiUBSVIk8AAAAdZpVFh0WE1MOmNvbS5hZG9iZS54bXAAAAAAADx4OnhtcG1ldGEgeG1sbnM6eD0iYWRvYmU6bnM6bWV0YS8iIHg6eG1wdGs9IlhNUCBDb3JlIDYuMC4wIj4KICAgPHJkZjpSREYgeG1sbnM6cmRmPSJodHRwOi8vd3d3LnczLm9yZy8xOTk5LzAyLzIyLXJkZi1zeW50YXgtbnMjIj4KICAgICAgPHJkZjpEZXNjcmlwdGlvbiByZGY6YWJvdXQ9IiIKICAgICAgICAgICAgeG1sbnM6ZXhpZj0iaHR0cDovL25zLmFkb2JlLmNvbS9leGlmLzEuMC8iPgogICAgICAgICA8ZXhpZjpQaXhlbFlEaW1lbnNpb24+MjkwPC9leGlmOlBpeGVsWURpbWVuc2lvbj4KICAgICAgICAgPGV4aWY6UGl4ZWxYRGltZW5zaW9uPjQwMjwvZXhpZjpQaXhlbFhEaW1lbnNpb24+CiAgICAgICAgIDxleGlmOlVzZXJDb21tZW50PlNjcmVlbnNob3Q8L2V4aWY6VXNlckNvbW1lbnQ+CiAgICAgIDwvcmRmOkRlc2NyaXB0aW9uPgogICA8L3JkZjpSREY+CjwveDp4bXBtZXRhPgpCQvDjAAAAHGlET1QAAAACAAAAAAAAAJEAAAAoAAAAkQAAAJEAAEwxLex2LQAAQABJREFUeAHsnQe8FEXSwFvFA89wnDmLiPmMGDAgGBAxneeHiVNMiIIBFARUUA8xhxNRRAVFQATEhAlERD2CAVHUUwyAWTHriYiB/epfWmPvvNl9u/v2hd3X9fvtzkyn6a7uqequ6upaJiXgAgQMBAwEDAQMBAwUiIFlAiMpEHMhW8BAwEDAQMCAYiAwkjAQAgYCBgIGAgaqhIHASKqEvurPPH3WL27IXT+5+e//6j76NOXuHvRnt9uODar/xeENAQMBAwEDOWKgzjCSadOmuXvuuccdeuihbt99982x+snJfv31V3fGGWe4FVdc0V1zzTXJiUog9JPPlrpt2v5Pa7rr9g3cpk2WdV07NnSbbbxsCdQ+VDFgIGCgvmCgzjCS++67z1133XXu9NNPd8ccc0yV8P/zzz+7vffe2/31r391Dz30UM5lvfXWW27EiBFul112UYaWc8ZqSvjQlJ/diT1/cG33auDuGrhiNb0lFBswEDAQMFA1DNQZRvLSSy+5yZMnu1atWrldd921Sq0qlJHMmDHD9erVy/3jH/9wPXr0qFIdipH59nE/uV6XL3Y9T2no+nRtVIwiQxkBAwEDAQNFx0CdYSTFbFm5MJJhY39yva9Y7M4TJtJDmEmAgIGAgYCBuoiBjIzkvPPOc3/5y19cnz59Mtb7v//9r4qCWEEcfvjhmu7HH390o0aNci+++KL78MMP3RprrKGiohNOOME1apQ+q/7qq6/cDTfckFZ+u3btMq5IPv/8czdkyBD3/PPPuxVWWMHttttuqk9BLLbzzju7gw46SMvyGcktt9zi7rzzTseKB9hzzz3dqaee6ho2/I0wf/PNN+7yyy/XuE8//dTNmzfPrbnmmm7TTTfVMP7Q2ey///7RMzezZs1yY8aMcW+++aZbsmSJW2211dw222zjjjzySNesWbO0tIU+BEZSKOZCvoCBgIGaxEBGRgJB/Pjjj92jjz7qVllllcQ6QaBvu+02FQehJIfQn3XWWe6DDz5wf/7zn91GG23k3njjDc3bpEkTN3To0DRm8tlnn6lSnAQQ9B9++CGjjoSyTzrpJPf111+r7mPttdfWsnkP+Q477DDXs2dPfZcxEh7WXXddLXullVZyvA9o37696969u95/++23WmcU9JRDGsqEmRjAJI1REvbuu++6Y489VqPRw8A4PvroI8UXSv6jjz7aslbp2ufKxW7omJ9cv7MauW4nhhVJlZAZMgcMBAxUHwYwSEwCmaWn9thjj9QLL7yQFK1h5557rqZ555139Ll///763Ldv39TixYs1TAhsytINGzYsY1n33nuv5h09enRiGlm5aLzoMFI//fSTphEmpWHU8+qrr47yEU8YP94tK4bU0qVLU5MmTYrCrYwok9xMnz5d42Wnlx9c4b5fv36aThhpWtzcuXNT1KkY8NPPqdQ2bb9Lrbb9N6kHJ//W3mKUG8oIGAgYCBgoNgZcpgIfeeSRNGL5xRdfpC699NKUbNHVLBDmNm3aaJpffvkl9cknn+g9xJt7H95++22NEyW2H5x2n42R8C5jDAsWLEjLd9lll2lcJkYCczCgnlbOwoULLTi65spIZDWj5UydOjXKW6yby25anDr3sh9Su/z9NybS7eIfhHEWq/RQTsBAwEDAQPExkFG09f7777sOHTo4IbzuyiuvdDKbd5dccomKfSZOnKj6D+J33313d9VVV6ne4pxzztGl0yabbFJhCYXuAWBnFvqNOGTb/ov4Cf0HIqfHH388LSvbe6lfJtEWdUWsZXDmmWeqvmT48OEVdBm57tp6+OGH3RVXXKH1QeS17bbbuq233lp1SvaeQq9N9vjOff/Db8eftWnZQJTsjdxO2yxXaHEhX8BAwEDAQLVjICMjEZ7l2rZtqxWAiQwYMECZCQG33367g9FcfPHF7rTTTlN9wYQJE5ShoDPYcsstM1ZcxEJu5ZVXrhCfjZHIKsQdd9xxqu8YN25cWl5ZFTjKTGIkSXYk6FGeffZZbcNmm22WVlaujARdCvqeeF2OOuoorWfjxo3Tys334aNPl7q7HvzZXTXkR806476VgxFivkgM6QMGAgZqDgPZFjmyc0tFOO+9956KsYR46nXkyJGpgQMHatzLL7+sRTzzzDP6jA6jEMgm2vryyy+1bERpcZDVgcYlibYOPvjgePKU2IdoetltVSEuV9GWZaReiLcuuugiLROx2aBBgyy6yteDTvxedSTD71lS5bJCAQEDAQMBA9WFgYw6El44duxYJZDGNF5//fWUrEJSXbt2TXXq1EnjTKmOwh1CesQRR6RkB1Te9c3GSHwdiewkSytbrOH1vcVgJDNnztSyaGO+INuLNS/Mi/oWAwYN/1EZyTW3/liM4kIZAQMBAwED1YKBrIxE7ESUOMIgWA3AIPydT507d44qhSK7Y8eOmv7++++Pwu0GZT3lZYJsjIQ8ogfRslH4G6EWO5VI4V8MRsIqxdpKezIBO7Pi8azMLG+mfPmGDx2zJDCSfJEW0gcMBAzUOAYy6kgQrvn2GAceeKA7//zz1Y7jkEMOUdkbthToSAxeffVV16VLF30UoqpKaMrgDCsRfen5VRxBYsAhjSIe0kfsTTBi3GGHHVRxTSDKdWFOGo9xI3Yk6CfQbWCjIqIofSZBMXQksiVYbUCwJUG/gsEjino2FOy0005aD/44C+z7779XQ8X1119f7WaefPJJxQ3tw6amGDDivp/cOZcsdmef3NBdcEa6MWcxyg9lBAwEDAQMFAMDWRkJL7BdTijbW7dure/EMhyrdnZrQWR9EBGX7qKCMfgA8YcpWBnEmdGjn86/jyvLMQS89tprddcVTKZFixb6fupGWRhDAsYA4/mJ6927tzIgjCmTdpdR/1tvvVWNHTF+BGBg/Aw4UfiBBx6wx+iKsl3Efm655Yqzy2ryf35xx5y1yLXcpYEbf/OKbrlw6G+E63ATMBAwUHcwUCkjKbSqixYt0i3CyyyzjFtrrbWKsjXW6iJiJbfsssvqz3Z7devWzYl+xpJU+5U6cKQKzIZVC5b2Sduaq1KRr79NuR0O/J9uB153rWXdJhst6wb0bOS23rQ4jKoqdQt5AwYCBgIGDAPVxkjsBcW6itBPtxwj0jKAWbFiQnQ2ePBgFaVZXLlcX3/7VzdSRFzvfrTULfwi5a45fwW3498CIymX/g3tCBgoBwyUDCNBf7HPPvuofmTHHXd0GCk+9thj2gdmFFkOHRLaEDAQMBAwUGoYKBlGwqGK6DcwJjRAT4LvkBNPPDHtMEiLD9eAgYCBgIGAgerHQMkwEkMFIi52TAFJFvKWLlwDBgIGAgYCBmoGAyXHSGoGLeEtAQMBAwEDAQO5YiAwklwxFdIFDAQMBAwEDCRiIDCSRLSEwICBgIGAgYCBXDGQkZG89tprbtVVV9UTd3MtLKQLGAgYCBgIGKh/GAiMpP71eWhxwEDAQMBAUTEQGElR0RkKCxgIGAgYqH8YCIyk/vV5aHHAQMBAwEBRMRAYSVHRGQoLGAgYCBiofxgIjKT+9XlocS1hYNq0aQ7XCbgZ2HfffWupFpW/9mc5w25yj26acI/z+rq/bNTE+WF79r3IrbL+BlFBc+8b714bPdLt1PVM12Sf/aLwUrt598kn3Jw7b3dbH9XBNTvw4Jyq//U7b7tflixxjcTtxMrrrpeYZ7G4yvjs1Tn4fnJrbrOt+/Pqa1RI98b4sW7BE5PdmttuK3j87RRzC1t7hx3djqd2rZCnTgVk8oAivkVSH330UaboEB4wEDCQJwYqc96WZ3HVlvwHcUJ302Yb6e+z117R9yz6/HMv7NW0d79w4/Ua98b4cWnhpfbwyqg7tR0vDb0lp6p/+tLsCCdT+/ZJzPP8oH9HaQyn068YkBLvfGnpp136L033yKknR+H/ueRiDXu0S6corK7ehBVJnWLroTLljAFxx+wmT57sWrVq5Xbdddc621Rm0Hfs3lzrd8R9D7k1tt7GCXNxw/f4zbnbEfc9LGF/i+o/66aB7vkb/u32uexqt8X/1Zwrh6gCRbr56Pln3dsPT3BN27R1G7ZslbXUpeKwb+xhBzpWJMBWRx7jWl9yeVqeV+8a4f7T/0K3/Ior6mpt2QbLC56u09Vdi3N6pa0ypl/WX1dDTfbezx04ZKiWM23Av9wrI+9wG+/bxrUbfFta2XXuIROHCyuSTJgJ4QED5Y2B+roiyadXX7xlsK4WHuh4jF6n9jsvPbusOEbu21Lj5j0+MYp7bfQoDbt9tx1Tv3ruvMOKpM6xxj8qNGvWLDdmzBgnvtjdEpFjrrbaam6bbbZRb4rNmjX7I6HcSU+7Rx55xD311FOaHidVpD3llFPUaZUl5hTiiy66SJ1YceownhaZaQJ77rmnw3tkw4YNLbleyUPZ/D7++GMNw9iTWek///nPCk6/cPU7dOhQh+tiDqhs0qSJ23vvvfWkYxyFxYE6vP766+7000938+bNc1OmTHFz5sxRh1sHHXSQwyVyvpBvO7/66is91p/Tmd8VT5YAboi3FZkvnjFXlFmZwY033uho4zrrrOMeffRRbd+5556ruPzPf/7jNt98c8Xx6quvblly7p8oQ4434A380RcNGjTQPlqwYIHW++ijj05zsUyR4JdVBW6h33vvPcVx06ZN1VMnJ1HH+we83HDDDWm1adeuXdYVSb9+/RyO0y655BLVqcyYMUPHJL54TjjhBIcbax/Ap40r4vFGWhWoyorkl5+WuHmPPuy+mve2a7zRxq5Fj15unZ12qVCdX35c7GbfcrP76NkZ7pv3FriV1l7Hrb97S7fzGWe5Bo1WSEu/VL6fufeOc2/I77sP3tc49AysGnbodKroJ1aN0n/55lz31kMParlfz3/HNVx5FbfqZpu7jVrv4/52zLFuGXGI5wMrremX/csPcpv/o33WFcm3Mr7vatvaNWt3sEN/MU1WE1uJXqV1/8uicha+/JK796h/6Gqk06xX5L3LuV+FBo099AD3zbsLNN0hw0a4DfbcS+9LfUVStqItiJkRUFzuwjhE56Mf3BlnnKG+2a3XIZp9+/Z1EDFg6623VlfC3HNU/c033xy55TU3vsStu+667ptvvlFiAmEE2rdv77p376739gcDufzyy/URpgBDwxUx/udvu+02t+WWW1pSBxGDGRFHvXkHbo2BNm3aKIGNEv9+c95552ndO3To4EaPHq2h1JsyuD7++OPxLJU+59tOcEc9AFwY/+lPf9I28rzBBhu4m266SU9K4Pn4449Xgsy91ZN7wJ4hyj169NCwfPpHM+TxB5Hu1atX9F7wTd0ZPwD91rJlS73nb9CgQW7s2LGafuONN1YPmUbE99prL3fppZemMRPGBeMNYKzQJzD8Y445RsOS/piQADAyJkKA4QWfPP3799cw+/Pxed1117lddqlIuC1tLtdCGckqG2yohL5xk40jYsn7Oj49UxmFvXvRwk/dgx2P0TSIff7atJkqo4n/a7NN3RH3TkhjJjCQqef30uzEw0RQXrMBoP34B0WBvZ0V7aZffombM3yYEvBVN93M0RZjPoisDhg0xEkHRem//+Rj98BxR+vz4q++1DJ373W+2/7kzlGatBuZcD54wj+VUXV8aoab//jEREby5gP3uim9e7hNDjjItR14kxZhIkArr2W/f7ltjj1eH0udkTDTS4RSF23JrC4lM7eUzDbT2jd37tyUEPG0sIceekjTyoebEve5Gvfdd9+lhgwZouHihz1KLw62NIyyZRadkpWO6M2WpiZNmhSFk8ZAZpapgw8+WONklWDBKSGOqenTp6e+/PLLKIybCy64QNMKQUqRFxDmkhImouGvvPKb8lMjfv/r06dP9G7qvHjxYo2R1Uxq3LjCFKD5tlOYXUr82KfEa2VUNSGcqbPOOkvrdvvtt0fhskLRMFkppsRBWVR32kZ+cEtfGOTTP5Yn1yt9wPv4DRs2LMo2YcKEqB70lQH9LLuvor4h/MMPP4z6Z/bs2Za0wjVXZbvVh6usfnSsUBibX3iOg+GT9M8991w8Ou9nRC4LX3lZfz//8Ft//vrzzxXCrGBTtqNM/uj5396/6PPPUvcd/X8qxpl9282WVK+Te3bX8IlndU39vPgHDfv2/fdSD3c+UcNRUBtQF8RAlP3xrOctOLX0119SC558IsUmAB/enHC/hAvOfv92iPvmvXdTt+6wlZbx4XMz/eRp97ko29+49x4t58VbB2teYVr6HBdtzb5tiIY/0/9CTffVvHf0+YFjj0rNvPZKvX/u+mui93/30YeK36/nz/sj7MMPKoRFkXXspmwZiawKlBBMnTq1UpTL7FfTxj9SiKkRcGMwPoGFCBlA9I0ALFy40IKV0Vh4nGlEiX6/gXllSgshJu7qq6+OZ0sZI6HNxYJ825npveCUesuKL0pihM8ItOGfdwIi7lO8WwaLz6V/LE+uV2Mk9DOTAgMmB0cccYTWXc6ds+CMV/qFdt53330Z0+TLSEaMGJGxLD/inHPOSYEjfiJm9aNq5N4YyZhD2qa97+U7hirBfOqi86NwCKbtXuLeh8/feF3j7tyrRRT8y48/RulhToUCdeC9r44embGIyhgJTAuGhO5DtvxqOZkYCTuzeN9z118rTO/X1H0djtDnb2RSyK4w4p48v1fGupRaxDJU2JZa/rXUD218+OGH3RVXXKEigcMPP1xl3ois/vKXv/jNdDJ7V5ERgYhgEGv4gEwcMJGBL/KZOHGiirUsPf7j0ZcMHz5cRWkWjqxbZrJaPjoLdC/oARo1amRJ9Mq7jhexD+KvUaNGpcUhk+/WrZvbeeed3b///e+0OBNtIZ474IAD0uIKfSiknYgOZSav4jlhpg6RlDAHFSf69aaNtBW7CgARJKIke0YvheiP53z7J9/2mmirRYsW7pprrknLzvhhHP3rX/9Ks/uQlZOj72mvTA40D66fv/76a3faaadFItW0wuRBmIyOo1xFW4jQ1lsv2TYhXnZtPpvIZsfOXUQn0juqyscvPO8eOPZI3QV1wI23aPgH055xD53cUe9X23yLKK3doOMATnnpdbe8iGWBJ84927014X6HyGyL9ke6dXZo7tb42zZp4i9N+PvfJy++4N584D4nqxzZbfa5hv749Vcq5qJ+1DMJbJdVJtGW1cPXbbwididJOpKZ11zpXrrtZt2Z1bhJU/fkeT1di57y7lO6uJeGDnEzr77CbX3MP12riy9NqkrJhZUtI0EWjcJaRDtpnXLUUUe54447zjVu3FjDIWCmS8H3eyYgDYpjI7DoL0Tkkpa8Z8+e6gpYVg9pCs/333/fXXzxxe6tt96K0pMfgnrYYYepkpeI559/3sns0jVv3twNHDgwSsuNMRmY3d13350WZ4wE+f0OO+yQFlfoQ77ttPrZ+9D7oCyXVZYq/mGe6JoA2v3JJ59EupuTTjpJcWOMpEuXLrrRgOd8+8fen+vVGAkKcBErpmUbPHiw6pyYIDBuABHfpTEc+gr9BfX84IMPHG3hlwT5MhJZTbvll18+qag6FWaMJL791xTOqpv4nZG8Pu5u91S/89wKoif0dRvxBu139b9dw1V+m/R9s2C+GEie5T7/72tRMvLv1OVMIcbHumVlk4TBf+++yz198R/9uF6L3d2fRA/z9bx3VCez8xnd3c5npuswLW82RmJMcb1dWrj9r/9N50G+/44ZpVufNzv0H26PPn1FN/NnZXBz7hjqZFWiSv6PX3hODTjZNk1dn73uKtloMFg2FmSui9WpZK6ZllClriOxdiFOQrwlO61U9ID4QQiuRadkFhmFR4FZbkzkg94jDqIc1rKQ/SeB7PJJIe9H50I9+ImSOkqKnoEw2Q0WhdkN+gPiZMZrQdHVRFvkLxbk007EQKJQ1voJ8450NNQlqd6IthAlGdBe2mZAG+053/6xMnK9mmgLHMZBVihaD1mVaBQ6HxN1ks90WESOHDlS0/p6lnh5+Yq24vnr6rOJtuIGiWaw99jpnaOqz588ScU6vuFdFFnJDfqD1+8ZE4mJEA8tmPKHzmjx119FupB3p05J05Og0yC92LtkfEs20dbc+8drfsrI9jPdCboaPx06JwNZ2WhcNjGbpS2Va9nqSJI6APkxBAomAPEzMOIgu28sKOM1HwKbsRCJMJ2H7MCJkn0uMljqF5fXk+DBBx/UOD+9ZaxtRuITe1kJWrX0is6ANvkMMB9GQiH59E/ay3N4MEaCPsQfE2Q1hv/CCy9oSc8884y2xd98Ya9AB0Q7a4ORMJauvPJK/TFZqWnIh5F88eYbSkTRM6AwLxTsnSjuDeY/8biWjT4iDij2q8JIYIpTep9T4Tf6wP2i9hCPoh/4Yu5v7eSdasn+e4XQl5ji/+MXfxtXv0eV9KVsGQk7s/wZI7308ssv68cOYfJBdA4aDpGO52EHlL8TJl9GIiKiVNIKRfQo+k4ReUVVgZChaIYg3X///VE4dTAFtWwljsLtprYZieGEei8QZaIBM3hTlFeFkeTTP/buXK/GSKj7zJl/7Oh55513tB8I/9///qfF2fhhIuKPE5TxpONXG4zExgbv98dqrjioajoj6rmsSNhNhVIeAotxXhwWfbYw9enLf2wYYLfYZ6+lH8lCnlmDB2kZIvKKihARkobFjf1sZVQVRhK9JHaTSdlOsnH/OEjrg/GiwZsP3qdhMNL4MSmWphSvy1DpJDlcqSvb2aePMR+H42EYh/z6ySefVIUodgMcnGcghMJhg4GyFGMu7AYwKsTgTMRiqlBHvg3kqzv4Qgye0INQLkZvGCJiBCc7kLQ82ZnjMGgz8O0xyLf22mtrvdGvYOOAnQiGcz6YjuTWW291W221lR9V8H2+7bQ6rLnmmq5t27Yq2xdmqDilEoXqSMibT/+QPh8wHYnlQReGXgJFN3o2DPw6deqk0TyjK2GcoAPCboR7Xw8X15FwSKMp5NlAwKYJ9Fhs/ADQrwgj0Hv7MzsS0xlZeKarbV4g3jaFZEpbHeH56Eh4/yezZ7n7j2mvVeFIkHV22sn9Kpsyvnj9v05EX2nGfcJY3J0td9UjWTDe+/Nqq6sNCUaHwNEPT3Krbrq53mNXMqrNXqpUR/+Cbmbxl1/o0SOaQP7iegmU5aaQX/jKHLUPQQ+y1va/6RqXX3El1/y00y17hWsmZTsJsTGZeOZpmmezQ/7ulmvYyHEQI7Dvlde6zQ/7P70vh7+yZSTswEExGgcIgYgm3HLLLZcWhbHY9ddf75544om0cJTiMquOFKjZCGzv3r2dzHDVUhqjPABmRjiW5j5AQNiFxS6uOMC8MISDcBmw64ldWRgzxoHwp556ytUUI0lqJ8QSQzkIpQHMU+xI1CCvKoyE8nLtH3t3rldjJDA/dl5hmW+AQSCKf3+sYBzKLi4zQiQtebfbbjt31VVXVVC2H3nkkWlprWy7Jm3aKBdGgtHg+PZ/TzPKs3aL6Mc91bdPZIho4Zzh1fzU013Ttu00aIls1pBDC90ns563JHrFkLHlBRdXONsLBf/knt0iI0QSowhfd6ed3VMXnl+BkYzab6+0tGkvkQeU+ifO+GNMx+NNQY/V/F4XD4hHi5X9A+7piy5QQ0ciqfceopTnbK5ygrJlJHSSiB+c2H/orHGllVbS2T1Hn2QDGIUYmOm2U3YdrbHGGmmWytnyZov78ccftS7MriEea621VtYdOSwU2dkEAeVoDP+IkWzvqc046ix6Hv2xu2yVVVYpenWK3T/GSFj9seuOFQZjBqv1+PZsawzbmtn6C6MnXfxIHEsXrpVj4CeZaH0rR6Qss8yybiU5Msc/7sTP/cviH9z/BOdL/vedW2HV1fTI9mUz7GjjSJXvZOvvT4u+d6s220x2UTXyi6rxexFhSRvfdWJZ6ho33aTCMS01XqFqeGFZM5JqwFdJFondw/z583OqO2dFsUqKi89yylzLiQppJ1uuEXUaI6nlJoTXBwyUJAYCIynJbsuv0hgwytbTnDNxNljccDPnzLWYsJB2IqoKjKQWOy28uiwwEBhJWXRj9kagqGezQa6AErkUDOHi7SmknbK1VxkJugz0OQECBgIG8sdAYCT54yzkCBgIGAgYCBjwMBAYiYeMcBswEDAQMBAwkD8GAiPJH2chR8BAwEDAQMCAh4HASDxkhNuAgYCBgIGAgfwxEBhJ/jgLOQIGAgYCBgIGPAwERuIhI9wGDAQMBAwEDOSPgcBI8sdZyBEwEDAQMBAw4GEgMBIPGeE2YCBgIGAgYCB/DARGkj/OQo6AgYCBgIGAAQ8DgZF4yAi3AQMBAwEDAQP5Y6BsGcmoUaMcZ0b5MGTIkJI8Q8pvQ7Z7/Ffg/wJfK/hhKUW49NJL1f+5ePxT3y1JbbjjjjucOJlyZ599tmvSpElSknoXxknRV1xxhfpJESdiVWo/pxuL62Q9cRp3DKUInLY9d+5cPc150003deutt15RTvE2XHz22WdOnJ/pSdH4GPrb3/7mOC28vkLZMpIJEyY4TnYF8NUBEEanlwJMmjTJ4eQK/yn48sgFcL6FY6PTTz/d4dirFAHHUJyZRVtwkpUE559/vhO3t0X1vwLhgYkxPmBQpQYQNZxwtWjRwlWV+GfzuZMNL/Qbjtp22WWXNMdx2fJURxw+ZXAJ4APOxJic4AeoKgBurr76avfoo49WKIZJ3DpyFH59hLJlJH5n4vXu3XffLSlGMnjwYPWGeMkll7i9997bb07Ge/FJr54XW7Vqpd4YMyaswxG5MBImBMw26Ve8RhYD8BPTrl07Lc/3eFiMsmuiDDxxiu929Y8i/uer9MpCGYn5dsERXI8ePapUh0Izi1trd/LJJ2t2JmH48sHBHUwO53CcEF0VgEHBqPApJC6XtfyFCxe6iRMnatl4NK2XgKvdJHj11VdT4rwnKarkwswPunjxK5m633TTTeoDXNwDl0ydi1HRE088UdstH2cxisu5jO+++07fK0Q45zzlmvCnn35SXOCbPh8Q76CaT1ZE+WQralpZdWgdbrjhhqjcBQsWaBg+7efNmxeF53sj7se1HGGUKfGQmZZ96dKlac/17SGsSH6fPiDaYFnOseL4asfP+07iS1oIm8vkVXHWrFnuwQcfVFkprmbJw+qBGRkeGQG8NDJbwQWvDGL1eMjyd/PNN1df3eQxQO5/99136yN+3c2HPF4aDU455RTXrFkze3RfffWVk48meuaGmTX+4ZMA2e7QoUOdTBTUDTA6BqszTq0MkJNfdNFF2nZwcOeddzpWPACuYE899dQqewZ8+OGHVY8FXvBhzgwSd8FJoi1wE3edjC4g0wzw/fffdyNHjlQXx3iZpD+QlTOLbNmypTVT3ePSd0I8te+JEIITxeMBMV+dAzP6Cy+8UPVxffr0icqK3+ALhTFHXx1++OEaLQRIcYI4ltk1Yw/RJv2e1FZm2LgINthiiy0cLoKTAO+V6AkR+VLubrvtpro0xIjM1s3ts78iueWWW7L2PbjFLTSAZ0n6EpEkuDZAX7f//vvbY3RFPGR+6VlF47K4KrBkyZJIN8h4NXfXl112WSSK6tixo+vcuXNBr8HF8uTJk3W1xTce4A8MBEYiuGAAMrj4CJChMgC5x5UqLmMhvHFXt3yQKPQBxCv4Urc81157bUTI+dAgXn46iLiBrDzU3zfPMCb8xgMQfN7PEtp3MoV+YKutttI0lg7FKMC7yJNJRyIzM2UAVi71hpgBbdq0UcahD/JnxIRn0hkxpl5A+/btXffu3fW+kD/EMPyALbfcUokQjNMgriNBJ3LjjTdqtPlLz+SjHqYAMaWu9CflU3/6Z/fdd1fmYe8577zz1FcLjNN8tvgKfPJecMEFljznq/lqh1hmcjkMsbvtttvUHwobJKhD3759VTfGi2Cu1j+04+abb46Io1UEn/IwwsWLF+vEI5OOBCaC2BAcM6ZgSm+88Ybih/Hge4jMp+9hYvhxoe6UYzj39VswSWOUVm+u9OeYMWM0qCoE3srE/TGTEXCFjpGJ0ezZs9P8zOBrB8ZSCKB3ZIywiYe2MrH605/+pBM7f8wUUnbJ58m0BKtPoi3xHqhLVhnMKSE4ipLvv/8+JcxFw2XWmIYmcemq4UJ8U88991wUJ6uPlKwoUvLxR2GUM2zYsJQvqpHVT0oYkZbRtWvXKK1/U4hoy9oxevRov6joXgiivlOUyinqCrDspx0s+2mXgYk3CD/33HNTwmzF9fTSlHygmpZw0hQCQtSiMuydQrxSQtSjcB9f8XdYOh/PfhpZuWg555xzjtbZ4igT8UsSFFu0JbN0rYOscJNep2HgFTyKolyfH3roIX0WJpiS2b2GUa/KxgoJ3377bc0rugnNF/9D1MO7xBtk1G/CSDSMcFEgR1kK7ft8RVuDBg2K3i8rn+j9hd6Y6An8AXxniCoZ3yIV0HfxTRcK4Ikf37Pd2xX8Ffo9FFqfupTPZapMfWIkJpeXWW8aOl588UUdMHG5uYgrNFxEJ2np83mAqDEIGeRJUGxGYoSSd8Z1RbIy0LpkIiY+8YUB2ceTjdgntcnCjOFdfPHFFqRXESnmVHZljATGTx1F7JNWfrYHw0+8r7PlyRYns1atg6w6NJkow1MwcNnZo88wZWPgxtSRvVNvEZ+kFQ2BsrTGYNISyEM2RsK7rM+YOPggs3ONK0bf58tIZBt3ijbzk9W9X62C7kVMpm0xZmEEn8kPkw5wwLsKARsfhkfwNXPmzBSTFusb2aRRSNFlkScwEulGGwiy7E/rVGbhNnDsYycBxIZwCF8uwCBklQABhGmh/LcNAJSTpKgrNiNh1su7eG8cRKSmcSKqiqL8WansaIrCuRFRmqaHeBUCNhMV8VWF7NYX2ZhUZYzEZ0gQbwhzZRtHjFAUi5FYHVgBADYjpn0iBtKxQ3+wKgFEVKI4JYwZNatj/0c4P38FrBl//8vGSFhlk5d3x0F2wGlcJkaST9/ny0jidanqs72/U6dOKRgmbbYVmq1WCu1f8GB9IKK8tKoyASUu380JaYWU+EO9ZyT+B8wHHgcjbIhjANLYgFq0aFE8eYVnkV3rLMjyQCQgLraqIZwleByKzUggQLwr/hHwXmMyJhIgzBhJ0sfBx0lZogwmad7Qr18/zR+feVMQdaDsqjASyhk/fnw0QaA8fuDcxEik8aHYjMRWHIwf7vv37691MLzRdu5tVWuEjzCYS6bfnDlz/GpH99kYyfz58/VdSUSUXYG8M4mR5Nv3Rshra9eWbFDRtrDqQGRMu2x3lWzZ1WfZOBHhLJ8bf1UXX3nYt8L7EGXXR6j3jMQfIPFB4ItxYAgGxlyyETtLa2Ij5PWyw8qCVUfBwONXE4zElvasiOJgOh//I7OPI19iEi876VmMJrXdsmurQjTvAyfZcFvZisQKpc/QUaAfsD5jlp8ExWYkvMPqyeqE98umDb3CPAYOHKjtlN1oWh1WwzYekupXWVg2RoIok7KpQxzoA+LKgZGIdX+EQ9o0duzYqLnWTtnMEIX5N9AB+/nh/r2Nzbjey6cTla18/fLK6b5eMBJTmqNcTAKbBceVtzZLjH+AJtrJxcbDRFiyeyTt1bYKYMAnMRLZoaMfhWwvTsuX7cF0D0nKdlNw0xZEdj7wDurBrNmgOhkJ8nDeh4jLB9kBFBGCYjCSeNm0nfcmiSSZRBBHGghKMQBCRpnGNJgxoxditoz4hbikCYrNovOpQzZG4k+W4mUbUy8GI0FnQJviuq9M7XjiiSdS2H3wYzVTVWDDhvUx+PXF0dSJusU3zvBO+26I55dJ0mCbI5gc+uBvWoh/W366cr6vF4zExAoo35LAPnSxm0gjInxcDKwBAwakZTPCCwPyVxkkgvl8+OGHUXpESZSBLNqAAV6ZaAvRDPkQA+UK9kEkMRKIiTG1+++/PyoSQsYsnXehIDaoTkaCSIz38dHDPAxQTBPOryqMhD6Iry55NiJDfBLYu2WbcFJ03mG2CrS2Ihb1d72ZUtgKZnMAaRmvPhEknn7KpB8hPhsjId4M9dAZGaNknBpOisFI/H6N1586xMF0ZbS5GLu2KN9Ewv6OPTnVIhpXrFriYN+a9T/i7iQwMSDfC0zLgE0D5E3SP1qacr/WCzsSkSurbQV7tTfbbDM91gBDQDtKgb3vts+dfficyyPKuWg/vxBmt+GGG0ZbvYUgqJEa+/DZk3/ggQfqVWTRavjk25Fw/o4wKt3bvt9+++nhcdhECJGJypsyZUoF4z7KkgGrabBlwThy+eWXdyLnTjvPh/KxIwCoj+w00/pjgwCwp97K4ewuEbdoOHYD2BLIx6EGgNiK0M4GDRpovNkS0D7Zlqph9mfHRGAHAj4LASuDtmFAiW0IBooGvh2JrNjUKE4+Ro2mzqTHgM2MNTGAs4MqMdITpqrlNm3aVA0vn376aT0mRwhnmr2MvY+rzFqdzJI1CHsD8EP9RObuJ8v53nBIBsYINkDYcRxyyCFaBke8+MaOHNPSoUOHyBAVw8mGDRuqgezUqVPVqBK8GHAkiYgl9RHDVGxWsN/wjf+wfcAOSZiG2pFg/2DfgKwC1B6CApLsSPLte5l8RPY75MXgEUNQbHcYv3Eoth0J5fvtbN68uR4Zw/cF3q0P4vVgrDBmDER/lWiELKsNPc8MWxLsi+gff9xeddVV2lYrpz5d6wUjoUMZTFgRY5QGMBAwBjMgHGMwM0ojHOIKcfENAC09xA1DRTOosnDKlZWNWrkTBtPB8pzBasBHxhlastrQAZ7ESEgLocDS3SzKCYMp8YEYmOGbPcevcWIAQcISGYJigFUzbceo0sCIYDw/8b1791ZLfd962PLleuX94ADmZiArPLVEhyH6jMRn9JY2foUZmeEgjA9jRYiHDzJrdCKeyHhKK0aLIo5ShmZ5sSrHELBQOPPMM7X/ZFXrWrdurcVwKgATiSTCQx0wSjWGZu+lH2BoGBUacDhj3Nrf4uzK+LTTEzhvjkkO44kJBpMmiDx1YxxhWAhUpe9FZKu4pw8Nh9TZr7fVrToYCWXzLTNhgsgbwCg5jHO55ZazoOjKWOOwU4NMjIR4DDChCZyAYQAuZQONY6JYX6HeMJJcO5iZHUdyr7XWWhkJjl8WjIL0DLBseYjH8hZiTbraBGb21BmixaF2cav9mqybKLl1FollMB9ksYA2Ys3Nag3iAc79EwKK9Z7qKgdizuxaRFo6Dll5+UfYVOW9InZyyy67rP6MiHbr1k1Xu1Upt67l5SBL+p9jbrBALyYwkRQRqZ5awJFH4LM+Q2Ak9bn3i9B2mKM/O6usSMQdtc1IK6tjUjwiJMSNuQAEn3OrTEyYS57qTgNj5fwxJg4GolR2rJg424zTprfddluLCteAgbwwEBhJXugKieMY4HBBxGK5As6XOPSx1MD0LrnWm/OY6tIKCP3FPvvso/qRHXfcUVfQjz32mDYnfv5Yrm0M6QIGDAOBkRgmwrUgDCA+MoVvLgWgc/AP9MslT11Iw6zd159VVieU9WyOqCuACBbdFr40DBAlonfhdOdGjRpZcLgGDOSNgcBI8kZZyBAwULoYQMQlW6G1ASuvvHLpNiTUvE5hIDCSOtUdoTIBAwEDAQOlh4HASEqvz0KNAwYCBgIG6hQGAiOpU90RKhMwEDAQMFB6GAiMpPT6LNQ4YCBgIGCgTmEgMJI61R2hMgEDAQMBA6WHgcBISq/PQo0DBgIGAgbqFAYCI6lT3REqEzAQMBAwUHoYCIyk9Pos1DhgIGAgYKBOYSAwkjrVHaEyAQMBAwEDpYeBesdIxLGP+qUQRz9u1VVXTewxcVTjxAWqHjvNqbTlChy1zSmmvi+GUmrrq6++qkf0cxzJcccdl7Hqpd7OjA2rQkQxxzh+UMRZmjv++ONL8hw10Mjho+IcTE/z3WKLLYp6ErV1E/5mOHUb4ETiunSEjtWx4KscmZAI8pGmytH/MD7L8WZWFQ98iQirxUC85+GLGrep+YB5hMsnT11Ka65dfe9+SfWrjnZOnDgxJf5PUvi7L0UQ5qrfQdy9dCFtwfUsOMYvej5QF3DIt9OjRw+tv40TrnIYaT5NySmtueqlfGEoOeUplUT1wtWu3xm5MBJc6eKatFQYqfj00A9BvCf6Ta30XhxupSojwpUWUosJcmUk1dFOc+mK+9VShGKO8UIZSV3AIZMBCDtucsU3S0qcmEVMRaQSReta/NP7jCowkqKhtnYKyoWR1E7NCn9roYyk8DfWjZy5MpLqqG1dIILV0a5CyixVRgIxN+LuE3bxXKrhXIsB4tQuJS6eU127do3e9+mnnxaj6DpTRlnrSPABjl8IXG/iw/yoo45SN6AcCe67ckUuiE4k7rYUf9r47U6CadOmqS9z/EDjvY53zZo1Sz3a4cv59NNPT/M8SPm42zVf7c2aNXP408Y/fBIgsx05cqQ6HcJTHp4Vd9llF/ViZ65TcdWKBzh8TZhzKfkwouKQw/o+wYmgjdTFAM9x+BLPBBwRj7vfN998U5PgGx2/8XEf3Pglwb8FcRy3jl91XLtSV+qw3XbbZXpFTuEcVz9kyBB1E4vDKBxkbb/99uqu2Pc3boXl006OWGec8DP3rOjPdt11Vycz1civCHgDF8Drr7+urmTxf25+4wk/5ZRTHH2bD+CeFrfPuDxu3759xqyMMVwTM25oOyAEyQ0fPtzh2hbvnhtuuKH6bD/00EMreFTMd4zjshj9B98Px//z/eCml3eec845zk4PRt8ybNgwdW/LWMzW94XiEE+RuGY2wJ01/uyrAnfddZe6Ud57772jsnH+1aFDh6hYxrS1MwrM84bvdMKECQ7X1OiRAGhBKTp4y9T0smUkMkty/AD8qDP4zYc0YXFG8swzzzh8SANGTPD7neSvnTTjx49X39p8sPjXxgc5/h3MFzpMAEIO4DfbyobwQBStLvhtb9u2raazP4gFCmIAX90o/CHK5EGpjM9vgDQQbQih+crwNwfQbvNjrhnkD2LMhw5YO2GKSUC78E8NbLDBBuqylnoA+Kim7QZGTPBzT7mktzqRJo5vy5fLFZ/tJ598srYffMDcIZwGSYwkn3bCQPBjD4A/mDbl05cQePAIMFHAnzpAnYinPr4DK5hypjGjGRP+zCf9JptsosQmIYkGmf/3UaNGaT1nz57t+vTpo/UA77gUNpwffPDBGueXlc8Yt/4kf3zMEub3p6XNpe8LxSGuqvE6aZDNr7qlqex62WWXKaOEKR5++OGI+dVvPczSABpC+wsFGOcZZ5yhTJj+M6du5cZIylJHIoQ6WkKaMlR8YKdMwchytqrK9nvuuSd6B8o63gmIP+yUzGKiZ/HrHKWbM2eOppFZWwrZOvVgySu+0zWcP8RUhBEnM6bU0qVLo7jp06cnKjQLFW3xDn5JILu5UkKMNF5mplESv97i1yIKN/EG5cmHqOGyWkrJakTLEOIXpc33Bh0H5dJ/9CNAv1r9K9PzWLqk99Jf1k7rH9IJc06Bb9qQBMUWbYmDKW2PMKek1+m4oh2MDcbEkiVLUpZn9OjR0TgBLxYuRDuxLALtW0hStvvfj/UleJJJRYRz//sptO/zwSHfiPUj10x4ytjghAhTsk+dOlVjZUKh76A9nTp10vvnnnsuIWduQXxD6C3pM75RwNpQbqKtsmQkwu21wxj4Prz33ntRR/ofgp+G+2wfmaU1RsIg8QmqxdsVpT2DJ4nY2XtkdmXJU+PGjdP0MkuKwiq7qQ5GAhGl3igh42CyXr/eRkw6duyYllxWYxnbn5Ywy4N9fDBlH/r3759T2Zbfz2v3EGSLz8Q0LK1/zYcI+vky3cu2dK2HMTMIOGFGyET8pfGyAtEiJk2apM9HH320Mj2/XBv/jL1MYGMviZFYfhEfpWUXEWuEK//7KbTv88EhYxwGaT92W1UVGKv0vYiFUyIWVIIPPpnoGZNhZ1mhIOI+LZ+JpYGNtcBIDCN1+Dpo0CDtQFl+V6ilzfb9DyGeKNtHZmmNkfCxZ4POnTtrXXgvA9f/WV1uueWWqAgYDoMtn62U1cFIjJiwGoiDfSAjRoyIooyYsOvFBwgi7QGnhYDNRMFVHNh5RNlJTNpPax+vH+bfG0OCiIhIMiXiiFRlhCofIui/K9M9qz7qCeMFRNSmz6bwZTwQLzoajRexqz4T5o8p7m1Fwqw6E2Qb47YCzPX7KbTvi43DTG3NFG4bb8T9cGrAgAGKT5NgMJEDt/5kKVM5SeGiV9L8fP++VIEy+QVGkoS1OhZmuy6SBgHEgo4sFiPhI8oGxiyYxbOPPOnnf7Ddu3fX+jG4c4XqYCQwN/AkCsIK1TAm49utGDGJM8DXXntNyymUkcyfP1/zJ21tZq8/dawqI2GlakSF8vgh7mKyYKK0OBKKTQSN8DB2ITwmbmP8IFayla0ROhMzsWJMGlOEZcNLNkZi3w9izDgkfT+F9n2xcRiva2XP4Ii+tomEP55NtMVqpRAQvYiWzc5CVjv2s/Elm1c0rJCy62KeshRtMSDosDhRowPsAy0WI0E+nQ340KnL3LlzsyWL4mxQJzHBKFHspjoYCTNf6h1fYfBqZu3EDR06NKpJocQkKiDDjcnr6bc4mEw7G8EkD3XlVxnAUFgZmOiOPLLxITFbsYkgOhmYBu00MRY6MuoA87BxhCgOsFXD2LFjE+tXWWA2RiInHeh7WfHFIen7KbTvi43DeF0rezbmDI5ply+itnbSF3GA0fu/eDzPlp+ys/2S8pZiWFkyEhS7dB4iLh/Yz22dWlOMBItz3pmrrPWOO+7Q9P7syG9D0j0fAO+AEPnL6KS0fpjhwg+ze1OqIyuOg82GfSV8ocQkXnb8GQJr9fQ3JZBu8ODBGlcsRuK/29oDY08CM1xLIrZJ6XMJk51w2p6BAwfqFaYBQTLCDoMzYBULXhCBFQLZGInpteJlG1Pnvf73Y7iKT9wqW43mg0OU6xB+ftdcc03GlWI+uLCVNe2RnYtRVnRxNuaSRJxmxEiaTOJDxibisvjPygX/xJULlCUjYdlIh0FYYR4GiGmsI/0PweLtmu0jszSmI6lsRWLiF0QCrBx8gOizdGZ3h4GJOKinbEG1YL3SFhNtpEXIg7WL/LmC5UlKL1tSozL9WZmvcJWtplHWQolJVECWGxTM1NXXycBU6F/Cq8JIEF0xXuIgthladnzDhqWT7d8abzoMC6/KlbFkfWLl+rNm2YocFY+M3dLKGVFRuN3QZ9lOZsg2xslnZft9bwyNOP/7KbTv88Gh6cqsXsXYtSXb6aN2wvQMTD8F7pPAcEddMjGSpHyEWf3LTUdStnYkPXv2dKJnUHuGdu3aqW2DzJii7eAyo3NrrrmmPnNwIcZC0s/6LLNxTY99hxmbYYi37777RvnNjgTDQwzEsoHVBZsD9sJj7IatxYwZM/QqM6M04ySZqTmMpQBsJLDJEMtbN2XKFCcz1MiOxH+nEDy1ZyGMQwyxtSCfKF6jZDLTcrLbJ3rGHgE49thjo7BWrVpFdhOyonMiOlH7GAzlsFPA0A97FgwxfUNGWUlFRmn+fn8MMLF7oU7s2y8ErAzyYruCIZes8CKbibgdST7t/OKLLxTH2ApggEjfYGwookWtqjAv17Rp0wrVFt2NE8W2hoNnDDQ5hA+DzHXWWadC+lwCOISyS5cumlRWsu6AAw5QA0QhXBomM3HXokWLqChhPE5mvvoMXrCBwShRdn45ymJM7Lfffhqf7xjHXoYxDuyzzz5q+0SZBv73U2jf54PD6rAjoS0iInSyU1LHON874wE7LgCagG1PHBj32OQA2Bhha5QrlKsdSdkyEpmxqLWqDQo6WlYF+pFhbOZ/CGYQlm0wwIx84z7yi/hJLdgrYyQy63UQbax/fcCAESt4DKJWXHHFKAqGhkWxiDgiA0ciYXwwpd133z1KazcyY1OiD7M0Y0eskWFKBr6BoYXFr3wkMAkAQ0eZbVYwksPCGWt1//TSTMQEXGPt7VsPx9+ZyzNMF8JIvwIwZdEbqKFnnJHk004RC7revXvruPDrQd9069YtzQjOj+eeOmHpLjvToij6rHnz5tFzPjciyoomKzDs1Vdf3S1atCgyWGVMrLLKKmlFcqLAtddeG/W5RcIURRQWEcJ8xzhjEEKKRTZ5IagnnHCCjmGMUkWsqX3A+6rS97niUFbz0bjknTD6FVZYgdsqAe3EWJgJkwHfmYidMhqWFoORcFqyTVLtvaV8LVtGYp3CAOSIEWZrEIfaBBFlOREJ6KyHmS8D1ifG8boxyDkChTyNGzfWVQargpoGGCFHRwDMvjlWpTYA/IlCXFdG1GOZZZYpWjWYsYu4wXHUN0yKVU+2vinai4tUECsRVq1MSKh7MYisVQ0Gx3EkjEdm7TBzJmjFxL+9q7aujHFWsnxnJqmorbqU4nvLnpGUYqeUc50Rz0GscwE+6tatW+eStE6lgSkhessVEJtyFlxdAlYhrH4aNWoUVctWeqy4WHkFCBgwDARGYpgI1xrBAGJAOw+qshdWdvZUZflrK55V5N///vecX4/IlfOY6hIg0uTHCoQZOisQO2ct2xl0dakNoS41h4HASGoO1+FNggE58sOhl8gFENP4yuVc8tSFNIhJTBmbS30Q01XlYMBc3pFvGnQvYpSaxvRRLJ911ll6EnC+5YX05Y2BwEjKu39D6wIGqoQBjoWH8XPCcW3o56pU+ZC5xjAQGEmNoTq8KGAgYCBgoDwxEBhJefZraFXAQMBAwECNYSAwkhpDdXhRwEDAQMBAeWIgMJLy7NfQqoCBgIGAgRrDQGAkNYbq8KKAgYCBgIHyxEBgJOXZr6FVAQMBAwEDNYaBwEhqDNXhRQEDAQMBA+WJgcBIyrNfQ6sCBgIGAgZqDAOBkdQYqsOLAgYCBgIGyhMDZclIOKKCoxw4dE6c01Tacxy9Lp7unPjtTjyivdICSjQBfi44YFAcFpVkC/CPgT8JfJ0cd9xxGdtQ6u3M2LAqRHD0+8svv+zOPvtsPRm7CkWpywOORT/++OOd+duoSnm1kVeceTlxEKY0Y4sttij6SeG4duCwUk5lLqfj46O+kqOhE0E+0qwe1hIz1ZFA3GPiiUycOuVUIzmETtPn6g43p0JLIJF5ayuBqiZWcebMmdpvVfGQmFhwDoGMFVyuZvJYmUMRtZrEvPyJ07Aq1yOTh8TKCq4LOIRW4E7avgW74tm0GCBH06fEoVtUPngvRyhLV7uBkeQ2VGU2X6mb2txKqp1UuTKS6mjnTTfdpMQB3/alCPiax5VsNne8ubarUEZSF3Bo/tfFSVpKnNWlzI88DEVWbLmiIDHdpZdeGjEQY1CBkSSiqm4GBkZSN/ul2LXKlZEU+72UVxeIYHW0q5AyS5WRiCOwiNBzb9CvXz8N51oVELfYKX7iRVOZFMykXBlJWepIkPvjqxo/Crhnxc0t8uCNNtpIXZniKtb37obPZdyK9unTR70pPv3003ri6fbbb69uYjfccMNIFGg3ItJQN6tvvvmmBuGcCH/d+O72AT/bn3/+uevQoYPbbrvtoigZoOriE++N+K5Icp8bJc5ygzvcRx55RH/4gQfwvoirVVzRcmqrD7hwBRcGeDv0fa9bOFfk6PhLzwQXXnhhmutX2kRdOIIcvCAPxt0vrnbxIV8VAIdDhgxRt7YNGjRwu+22m6N/5GNXn+u4IPYhn3bmikPwhmtdAL/uyL05/t2XedPWZs2a+VWp9P6dd95Rv98777yza9++fcb06PLwC4JPF9oO4NVx+PDhDpfGeElkrO6///7q294f46Sl/uDFB1wmZ+ob3Oni3nfevHnaj3w3uBXmnbiHXnnllbUo39UupwXLKk19l6y//vrqktkf94XiUCaH6jrb6n7RRRep10Z7LuR61113qStq3w00nkD5Vg0ee+yxqJ0WlusVR2DojHAOZk7B0OeJqCvXIkomXVkzEusFXOxuvPHGETJuDlcAAAvxSURBVFGM+/g2RmLpIQ74QMdLHHlx5IOrXgMbFDzjS4Ljtc3pT69evfQjtrSzZs1y3bt3V/etMDQj7Pfee68qufHxMHjw4ILdukK4L7/8cn0ddVxttdWUqOAOlXZRvg8QYz50wBjPtGnT/CTRPb7Aqb8PuF0FLwAbFHgfADHu27evEjqe8fhnTAgc4jseR1WFAO87+eSTlXDjBhfCB+E0iPcn4fm0M1ccgovrr79eX0udwDH1sT4lAqa81VZbaZpc/yjr8MMPV/wwockEZ555phJyxhF9PXv2bJ38UI91111Xx6E5DZOZsMb5ZeEjBf/kgPV9JidVxhxIy/cAI4dxGogYKHJJa2mpA+XyTVg9SO+nLRSH3377rTvooIPs9UXx2Q5Bh1HCFME/EyE26cAsDXDuVQxfMUYzypWRlLWOhKWkDIwUoi5AZn6pNm3a6LIVJZiBKdtJj7gEEP/gKSHQmlZWNZY0JasdXa6SVmZsUTiycsIoX/w3ROHcDBs2TOOEyWi5MluP0sqHl5Y2n4dffvklqsucOXOirELUU9OnT0+Jp74oLOmG+vLLB2SFpXlQUPIeA3BBWeLtLyUzVg3+7rvvUkLQNbxr166WNO8rOg7KRiwgO/I0P0puq39VlO2F4rDYoi02htAeYQqJ+KGexDO+GJvC0HUzCWGjR4/WMDKCFytLiHZiWQSCS/ImKduFaUS4FaKqZfB+vgPy8Fu4cGFUtom2CLf0jD1Z7WhaYXxRWv8mHxzKxC56N+/JhCe//MruTck+depUTSoTCn0H7enUqZPeiyO2yorJKX7y5MlaXrmKtsqekcR31chWV+1QiLuBMRKZmViQXr/44gtNy8A1ZgSB5hnlXBwglsQxaHzgIxRXqhonYggltqQTEZqfLO97iAnl8KuMaSQVbnmT4pLCRLSi7xIRXgom4YMRr3jbRdQRMW9jMH6+XO6tnj7zJ1///v21PlVhJIXiMB8imEsbTTFrEwIIMmFGyJgEgQcRv2pxkyZN0mcYt8/QiZTVrsahTM8E2RiJ5RfxUVp2EcNqudQjiZF07NgxLf2YMWM0fab+yQeHjDfGmP3se0x7YZ4P1Je2vPDCCykRC+o4BZ+MWWMyxdrJyXfBuwIjybOTajM5g4xO4wcR98FWDhAhA2MkIlawoOgK0aQcWaprmH1kzJLjYCuPESNGxKNSzPJsNUR5AwcOrJCmkAAjpnwAI0eO1J0muX5khqNc3svM1dKLzDwtC7NDi6MefKD+z+KMKKZlruTBZqLgLg7sPKLsTITK0tv77Tl+LQSH+RDB+PuSnm1FB/EFbDVsCl9j4ihuARuztM3HNffG1JlVZ4JsjMRWgOxiioON4SRGwo4nH2CG1C8T8Sw2Dv1353IvdmNav2effTY1YMAAvbeJJ5NK6h6fGOVSblKawEiSsFLHw4yRJBEfiBkDBJGXgX2UEKY4dO7cWdOLklCjxI+1PicxHWMy1113XbwYfTYxD++HsRQD3nvvvZR9EJTLj50i99xzTyQGyvQeS58p3sJZ7VAm6U0MYHFcWSlYWeeee24q089m237eyu7nz5+vZcPQ48Bef95bVUZSCA6LTQRhzrQFxoHoyvDNGGYyxOqCeCN0JmZiZZwJ39nwko2RUAfexaQrDkwUiEtiJDA7H1577TVNW1cZCXijLTaR8L9bE22xWikGBEZSDCzWcBnGSBgkfJQ+iMJRB4/N9IgzRmKzPT89Hyrl2CycNDzHZ1/kYUVA3NChQ/0i9N5EE8TzM31JhYQFBkAMmdWaeI13yA6frKVZXbIlYplvsm6YaBKIElbbRHnFBpPXQ1jjYDLtbASTPLm0k3T54LDYjATxFEyDdtpYkV1FWneYh41DRHGArRrGjh2rz/n+ZWMkJv5NmlgZgysHRmLMmfFBu3zdprWTvogDNMX/xeOTngMjScJKHQ/zGUnc4MqIveyUilphjAQLVB9QrBsRMp2AicaQocbBZom+Ep40DFATkSFzNcKMkrQ6wJSfvvgu6T3WtqQ4C2OWRrq4ct3i7Woij6psHrCy/CsE1uqJmMsH+pC4YjESv+zKcGiGa0nE1i8nn3smF7QHsSdXmAYEzQi7v2EBsRNpEIEVAtkYiek24mUbU+e9xWAk+eAQ8SmEnx8bPmzTRSFttzwmQaA9snPRglMLvBV2kpjYjBjJl018GBUoN4GR+NgokXufkQwaNCiqNYPRCLq/ZDVGwsCQrZhRepPBI94yIJ50/PzZiq+INH2K5TEGYx8mxNYIr4kqLG0+Vz4mdoDFAYU+9eO92cDakSmNzfjBmTHSTGmN2MG84nop+qMQ/Yi9CwUzdfV1TzAVw2FVGEmhOBw/frzWyV/ZWn0LvTKxsD6xcv1Zs2znjopm44KllTOionC7YWzGJ1EWxzUbIyGfle2Pcetj4orBSPLBoenKrF7F2LXlr6QRwxmYfgrcJ4HhjroERvIbhuqFHYkQHN2jL6sJ99Zbb6lthTCPyCjRtyPBiPHQQw9VOxIZ6LqdHKPCFi1a2NZyJ8zJiUhBbUwwIMOOBEMv9tkfeOCBaQZ+EyZMcFdddZXurb9DDPwwTgIw2sPuAjsE374kekkON7KrTI3x2OeOASKGiBjKyexHcwvhdU2bNo1KkpmWk90+0TPvBY499tgorFWrVpHtCYZt8sGqTQgGl3HAmG2llVbSYA6kw5ALHFCfli1bqsGYiIuc6FU0HfYEhQD2KKeeeqpmpW/WWmstJyu7yFYhbkeSTzvzxaHVX3Q3ThTb+ojdBIaoyy+/vBqlrrPOOpYsryuHUHbp0kXzMDYOOOAAtcsRwqVh8XEojEdtkIgEL9iWYJQouihHWTKRUMNc4jHSxUZFPnse1ZYIm4+2bdtGBpX08b777qvx2MvY+N9nn33UjoQyDXzbEMa1bDRx1NO39bB+y2Q7kQ8Oq8OOhLaIiNCNGzdOv2VwwXjA6BMAX0m2T9gKYZMDYKcF/UgC8EX5APUH39hUYRgNtG7dWo2G9aHE/8qakcAUsBr3O7p58+ZOZs1pRmTGSLBK9gkUfYv1NgTVBxG3OBF96EDzw7H8hbhCUACMFI1IyyqhgsUzhAEGBNGVWZBfVE73IjJzvXv3VsLhZ2CwduvWLe2jJt6Movy08Xs+EpghUNlJrrJiiwwSSS+zRjXY4z0+wCxlJ5E76aST/OC87mfMmKGEEcYGUKboDdTALs5I8mlnvjj0K02dsHSX3UlRsIilHGOsEBBRVkTIGRerr766W7RokRJ7ysN4jhOtfWBCguEoDNwHJhYiCosIoRk9+mni9+3atXMittFgGA6ElIkQeSGoJ5xwgjIMxrWIb7UPSJyJkWA0yjflW47H35krDmVFHI1LymCyxMkJVQXaiZEmE0MD6Ibs4spoWJorI6FtGChnAr4JERlnii6p8LJkJPEeYDbGLBWLaAhQZSBLe53BMcNjtZEJRCziOFIBYFbKcSO1AbSPYytYFdA+ZuzGzGqjPuCFo19EpKXEkCNE4sd1FFIvUXA6Vjj0CfguRplWj7qGQ6tXrldWInJelFtxxRW1/4tBZO3dMLiGDRvqaoZZO8ycWXsx8W/vqq0rYxYa0bhx48hiv7bqUorvrReMpBQ6RnQljqV+LsAHjAiBM6dKDaZMmaIML5d681Gz/C81gCmxss0VEClxpExdAlYhrH5MFEvdbKXHiouVV4CAAcNAYCSGiVq+iiLTyS6SnGvB+VD+GU85Z6zlhBw46J/DlK06iFMQr5QaiN2NilRzrbfYZjg5+SDX5DWSDtEtP1YgiHpYgSDSAtAv5nuemGYMf2WLgcBI6kjXsgkgVwJLlVFg1qb4qlC0ye4tPVk5l/yIafxNDrnkqQtpEJOYMjaX+iCmK8bBgLm8K9c06F7EbihtTKJY5lBDTnQOEDDgYyAwEh8b4T5gIGAgDQMcC8+GBFa/2fSFaZnCQ73DQGAk9a7LQ4MDBgIGAgaKi4HASIqLz1BawEDAQMBAvcNAYCT1rstDgwMGAgYCBoqLgcBIiovPUFrAQMBAwEC9w0BgJPWuy0ODAwYCBgIGiouBwEiKi89QWsBAwEDAQL3DwP8DAAD//5W/da0AAEAASURBVO2dCbQdRfH/GyTsARUwoAiyaYSjRMHDohgEwhJBNEYUZAfFLUaQzYVFloAoSoCACBEEUQMooiCCIkaQRDEoiguKKCAoi7hGwB9y//Up/zXpO+mZN3PvvPfuva/qnPfuTE9PL9/uqequ7upapiUUEnTXXXeF5z73ueH5z39+4qkHOQKOgCPgCDgC/0NgGRck3hUcAUfAEXAEukHABUk36Pm7joAj4Ag4AsEFSZed4E9/+lM4/fTTw0tf+tLwrne9q8vU/PU6CPz85z8PZ599dnjta18b9ttvv8JXP/ShD4Unn3wyfPrTny6MM9YeXHzxxeGnP/1pOPzww8OLXvSirqr/zW9+M1x99dXhgAMOCK95zWu6Smu0Xn7wwQfDb3/727DaaquFiRMnhpVXXrnRovz1r38N//znP8NKK60U1lprrUbT7onEUG2lSD7SloCbeuRhEQLS+VqvfvWrWx/84Aej0O4vv/Wtb7U+8pGPtH72s591n9iAprBgwQLF/hOf+ERpDWkf/pqkfm8fEa6KyS9+8YuuYfnc5z6naV177bW10uoFDJ944gn9dq2P2O/3vve9WnUpivz73/++NWvWLMWHtMF9ECkUVcoFSREy7eGPPvpo6+Mf/3jriiuuaH/Q5d2cOXO08333u9/tMqXBfb2qIJFZS2soYVMXpX5vn2uuuUb7bRODxU4FSS9gyGANBv/2t7+99dWvfrV1/vnnZ0xfZmx1u0Vb/FNPPTVLywSUC5I2iPxmuBHohY9suOvYbfpVBUm3+aTe9/ZZgkq/ChJRS2eMnmuj4447TsP57YZ23333Fn9f+tKXVEgN8oxkINdI0IefdNJJ4dnPfnbYeeedwxe+8IUgKqKwwQYbhF122SVMmzZtKbUi71x66aXh9ttvD/fdd19Yd911w5ZbbhkOOugg1WvmX0Df/ve//z0LRq/6tre9Lbu3i9/97nfhs5/9bHjFK14RNt544yCjnoBuf/XVVw9vfvObw5ve9CaLqjpr6XR6/8tf/jKgV33xi1/cplN9xzveoelkL9W4kA8+3H333WHGjBnhG9/4Rli4cGF4/PHHw8te9rLwgQ98IDzvec/LUnv66afDiSeeGFZdddVw7LHHZuFcfP7zn1d98nve8x7dHv6b3/wmzJ07V3XLt9xyS/jXv/6lGKN7P/fccxUn9OfTp09vS6fOjcz8wmc+85nwk5/8JCy33HJhm222CZMmTQrysYc3vvGN4cgjj2xL7mtf+5riaYHLL798+PCHP2y3bb///e9/w3XXXad/Dz30kD5j6/tWW20VZKSqbUUgawrD0T733HNPuPDCC8OrXvWqUoxEdRTAd++999a6U6Y///nP4ZJLLgm/+tWvtC3XW2897fNveMMbwjLLLEOUjCg/uMTEut7aa68dB2XX9BHWP+jD9JG3vvWtij95HnHEEWH8+PEal/UW2p+1qP/85z9BZtHhD3/4g35DpL/55ptnaXaKoaigwsknn5ylc8IJJ4QVVlghu+/k4vLLLw8yAwmve93rsrTvv//+sM8++2TJXX/99Vk9s8CKF9/5znd0zWjFFVcMXPM9sZ4nqq6KKfRPtIEUJCxq7bbbblkrsHC2/vrr68dGIB0FJmj01FNPhXe+8536wRB3o4020ut///vf4YUvfGG46KKLwiqrrGLR9ffd7353+Mtf/hLo4DD8rbfeOnzyk59si8PNHXfcEd7//vcrk37kkUf0F0ZL2tApp5wStt9+e73+8Y9/HM466yy9Ji5xnvOc52SMjAcww0033VTj1P333ve+N9x5553K/GGY1O2BBx7QZGD6l112WcZ8/u///k8/MPKHocQE00YIIZgQdLfeemsmbIgPHkbxPUxszTXXtEeVf8HikEMO0XRJD8YH4zRKCRKEDgwNMuFAOVOEEDnttNP0ETisscYamj74w+DZSAENV/tQPwY39DuEdBExAECQMjCinPQthDzlxN7rWc96VtaeMhLO2sTS+/73v6+CnXvDhEFOqj+ZcCAubYwgj9uVAZENPCwuZcj3K96P43aKIYO217/+9SSn9O1vfzs5wLPnVX5h6AhKhCL4y+xDv1UwNrI+bved/g66IBnINZJ//OMf2ZRVOklLZhs6Q5XReBYuHT6btX7lK1/R8P3337/1t7/9TcOF2bdEuGi4zFSyuPmLoRbbFy1alOUpI0d9nQU+mdFoOOVL0XCoTkR4ap4yC2o9/PDDmq2MNltTpkzRcDFCzYoiI0sNY2qeJzYWME0HT0hGyXqP/veZZ57J9MzEk9F+y1QfN998s8av+481DlMLiIDT19mEYHrnodY/LF4qX5l5qfqBOCJksyiU+wc/+EFLBgtZWHzRdPvQJpRBhEKcTXZNOXlOW4GxDH5a9s4Xv/hFDSMyuFi4MO3s/fwFbUV6qcV21v14xp8wVX2V/GVEnYVb/+GhtW8cH9xkNqLxRfDls9f7OhjyXVqZ+C3CKZlRQaD1Y+uXMqDQPKjPoYceqtc//OEPC96uFyyCT9PzNZJ6uI1q7FiQiIqorSwwHTpi3LlFfaVhMmJri2tC4C1veUtbeHxTR5DIqCp7VUbUmmdR2nU+sizRIS5MkJB2TEcffbSWhc5u1IkgMYFrHw0fJDR//nxNnwXeTsgYCDtgYhL1pabbjSCBIVv6RUIjztOum24fW5g1YQYDJ8wYmai/tJwyA9Ei3HDDDXov6lQV1lYufm1gxCaQIioTJPa+qI/aXv/jH/+YYZUSJAzEYvryl7+s8Yvapw6GfNMISPtjMNYtUV7aXtTZLVHxqpAGT/q+CRl2ljVB9k24IGkCzRFKIxYkjN5iomPQeUQNlQXbiFym7lkYFzGTYUSWoqqChBFOTIysjYHF4XZd5yOzd4b6NUHCInVMzJQoy1VXXZUFdyJIrrzySn0fgUx6jJQhWxS3ew2s+M9GorRRnhBM5FPEqCx+Gc7EMYEEExH1XovdOkMxqqbbR9SHWheYLySqNr23BV+21lIPFm4hUUnpPWEwxPjPZiT5Pqcv/v9/ZYLEZoDsYsqTfSspQcKOp5gQhpSviHk2jWGcd5VrG0CKmrYlKmYtq223R1NA2REATZALkiZQHOE0TJCk1DKoK+ggjMIhpsjc84c6I0/24TDdT1FVQQKzypPlmw/nfjg+MhMksi7SlqUsOmr9uxUkxngMY9sSzYiPusKk69K9996r76Zmbuz1J91uBYlsrmgZU7E2oe8gGE2Vli930+2DipG8ERwMfsife/ofgxhmF9wbozM1E9tWjzrqqORfGS5lgoQykFdq6znClmcpQZK3I0FVStxeFSTgRvlsIPGpT30qa2ZTbdF3myAXJE2gOMJpmCChk+SJj8M6D8/4aLnnj3WRmEwvzbOiEepYFCTGdPNrJMMhSExfnxoUmE67jGHSnta+cdumrhEozAxM4PIe6z8palqQMIhBaFBPU2OZgEd4IDAoD7NkyGYN8+bNSxVvyLAyQWLrdylVpAm4QRAkJpzBlXrF37/Vk7bIEzwj/ss/T927IEmh0uNhsSCJOzzFtoVB2YmV1cJGWfmFx9+LTp5OxgdeRMMlSMwwKvUxF5VlqHBjkFVmJLGAjdd2uAYT/kZCkMBgLT/bCGH1PO+88/RZU4LE0uXX+klqJsnz4WgfW6uaPXu21guhAUMzxk77GSG0wQUVWCdUJkhsbSOftgl18o2/K8Oq7oykDoZoDmD8/KGWLpop1sHC1oKoj+zoy161757w1ADSjBh5XqY+zBKUCxckMRp9ch0Lklhvy4jD9MeydTKrjX24LC7CQI1gUHQW9KdFNFyCBDUTeZuOvCj/OuF1BAnpok6iDPGo3D4IwkdCkFAOFpjJzxbzCUOomNqxG0ECQ7J6kK6RrRuhQkrRcLQPa0jUkz9r93jULFuRs6KILUcWlz6YJ0bSZVbrZYKE96wc8YjcBBrPmhAkdTC0tTIrVxO7tlgTtfTiHYu2PgX2KTLseNcFyf8QGhN2JBghsu+evdxmXCUCJtsSbvv4CcAeBONB/LFg/AXJBx4w9DK67bbb1MCRewz62IvOnnqMH40wGsPo0OxIKIMwB3usv3bAXcq+QdYGgiygajzsPTCOHDduXBDmHtZZZ522dKremB2JjDjVWMzeo34yutcD/DCSNMIWA5sFaOrUqbpvX0Zx9ngpOxLZ6aIGluAjo+swc+ZMLS+2Axg8Ypy27777Zu9XvZCZYjjssMM0OoZ2EyZMCLJpIrOZyNuRyIgyyK6mLHmrQ5z35MmT1T7kscceU4NGbCUwQMQQEWNQEZj6PkaqG264YZaWXQxH+2Coin0S9NGPfjTsuuuu2geFcWkYdkr0TyNrN+7BhT5Of8RWiLRECIaddtpJo2Nwi42KfPZ6j40NNh/0SztEcJNNNgk77rijPseeSRi9Xu+www5qR0KaRjIjWsqOhHLGth7WbkVGeHUwHA47EuoiKsIga3l6SCNY0B/suwcvbHvyhC0XNjkQNkbYGqUIvEgfovzgbTZthGE/hsHrINBACxIMpGDuMrrM2grr4Y997GN6ymcWKBcIGD5eM9DjGe/zMeYNtvig8xbCcVpcG7PGkvd973ufMuK8ZTWChI5144035l/XexgyltSxgZTMnsIWW2yRjD9UYJEgoaxYoJthlqVD56fMMCYj6kJ5ZEFdGRMfmhkk5gWJpdetICFvsKAtZCSqRcEwkY+QcucFiRl/WZlTv9QL4Siz1HDMMce01ZH4tAuCMGaM+XSabh9RZWWM3Iw3Fy9erMyevBmwcDptTLLhIJx55pltxoI8RyjKDDRjhPFgKX4/vsaIV9Q2GoTAgZF+/etfD7xLOx944IFqwY7VOkaqtAF0cWTZHuOF0SgnMcSW4/pC9K8qhqJl0PayVxH0nKTbLVFP+pCsNWVJMSjEUDj/3VuEqoKEujGgKiLRjgS+mUGggRckjDYYjTH6QTBwbEoZMaLjaHhGvZ1YYZel3Y/P+NDAA4bLyJzjSUaLRO2ox9dgwc0sLX8ESDfloo9w9AenIsAgaX9mgP1C1m85gYGyN8Fkre4IOI4joS8wakeYM2pvEn/La7R+RcUZmMnCH8xif7TK0o/5jglB0o8NU1ZmmB6qnaqEymKzzTarGn1Y4910003KrKtkwkdtx8dUid8rcfq5fQxDZiHMfjgnyshmesyImRk7OQKGgAsSQ6KPfjnja88996xcYtmVpuq1yi8MY0TWjmL1YVlWQ509VfbuaD7r5/Yx3GQnlq6BMQNhhM4MBJUWVHQ+lz70f2MSgYEWJCw+2kLrILUu03Bb7KtSL9RALCb3AsmRH6omq1IW1DTx4nKVd3ohTj+3j+HH2ssFF1zQJvRZWOYAUk4CdnIEYgQGUpDEFfRrR8AR6BwBOSpHBT87EFmbcnIEUgi4IEmh4mGOgCPgCDgClRFwQVIZKo/oCDgCjoAjkELABUkKFQ9zBBwBR8ARqIyAC5LKUHlER8ARcAQcgRQCLkhSqHiYI+AIOAKOQGUEXJBUhsojOgKOgCPgCKQQcEGSQsXDHAFHwBFwBCoj4IKkMlQe0RFwBBwBRyCFwEAKEnGGpEeCYBnNSb11idNMObX38MMP16O5677v8UcGATumm2PK99tvv8JMOd6c86/En0ZhnLH2oMk+zqnEV199dTjggAOCuUboRzw5nJRTCTi0c/z48V1XgRPF4UUpWnvttZc6yTkVr1/CBlKQ0Bk4upoOwXHXdcmOiW7yTCEY2amnnqr+LhBQTt0jsHDhwnDkkUcudYx8PmVjbim/L/m4Ve/xd8L5U29961v78siQJvt40THyQ2HZKxji5oAj881dA99n7JdnqHoUPd9jjz2WOt7f4h5//PFt/ossvF9/XZAkWg4fDL/+9a/VCRNHzzdBHE+OvwfS42h7p+4RqCpIzjnnnMBR6AidpghHYDiWOvnkk3XQ0lS6I5VOk328U0Ey2hjib4c+gd+UmJoWJNOnT1/qeBl4wcYbbxxn29/X4mMgSaI2KHXVmXypRwLlfCB1oYm/614hc/+L+1qnZhBYsGCBtvNQrnabya09lTlz5mje4mmw/cEYvCvy2T4UFKONoZxCrW0onkhbtKNoDPQeF8BNEPwHd7yiIWkiuZ5OY+BnJJxgGk9bUXPgthVHPTGxJpL3eohrWHSZKWI6jGdB8feto9011lhDVRx77bVX20jjjDPOCBwrzuF3t99+uyYlnStLcoMNNlAXtFmAXOAL4qKLLlJ3qTiU4hRjVHV4VMs7EyJdjvxGbcMICzfB6Kovu+yyQJlmzJgRJx3++Mc/BkboEydODEy9cadq73K6K171yA9ixM8psLgdpkz4B3nJS14S5ANRD3waSf795je/Uc95pIm6hzJPmzZN08H7HOWiTIzMOqVHH3004PoX9QPOtbbZZpswadIkdV+c95BIHrQlbWq0/PLLq7dHu49/0WNfd911+oc7VAiXu3gZxAsjBxZCpIfHSgh3vOLzW09VNle1hOMRsO5IU/yiq7tWvHeWYXTttdcqvhzFT90hnHHhAZRRNc6tcAmNV1Bc7+b7St0+jlqY9Q9zT40aD/zJE++Xto4Qz0joj7jx5cj5ddddV/v25ptvrmXlX6cYPvHEEzr7s4ROOOGEpb5he1b1l36JO2D6EljxrTJTa3pGwjc0mg7hquLRTbyBFiQAgyrpb3/7W1h11VWVGRLGx4oP8Zg4lh2mBxkzKVoj4SMx/9+sw8A4HnzwQX0PV7T4/zBioRf/GzAr88NhjJo4MG9zb8o9XtoQdHihI23KT2eHpkyZEviAjGSIovVYtGiRBnG8Nx89xPspNRpM/+CDD1aBw7pNflp/1FFHZb5OqCN1pRwwqN/+9reZq1uOE0doQuZql2viwmCN4ntzH2vPqv4ixA455BBNl/QQ7nG5U4IEoQNDg6w9i9ZIECKnnXaaxqVtEMCkD4b446aNIAYP+DKHKJO1kQkawll7KHLRyvMUkRaCdyj/KwwKYOS4RqCcd9xxRzj22GOztuZ0XutjCHuexVSnj5tw4H1cECDI43ZN+Wynv4E1bgusHLwfx+0UQ5h+7Ma3KVe7lM9ouAQJ6yEMrvDrQhuvs846luXg/BbNlwZBtcW0UhhjS/TjLXHT2pLFPZ1qEo76q4iE+Ws8YeDJKMcdd5w+l5lO23NZV2kJA2oLs5uqqi0RKpo20+ynn35aXxfh0hIhouE/+9nPLMmWMAYNk5lK6+GHH9ZwEZotEWQanlKjyQxKn4EBz+PyymixxZ8R9Yufg6HMOLL35ePQqBYGbsQ5//zzNY74o26JAG2Z6uPmm2+2pGv9nn322Zoe6ZuaAByoA39DqbYsXipTMDYVhPimz6JQbvFL35LZZBYWXzStlqENKacIpzib7Jpy8px+AMb0aXtH1mo0jMjgYuHCtLP38xdlfVyERoatCC59lfxPPPHELNz6Gw+tfSmfxQc3mdFrfBF8+ez1vg6G9GtrxzKckhlVDPz4xz+ueTSt2orLzbVoBLT9KharL6LhhzlJgyJIYAZG9jHSmPGHYM/tt+wjI47MZrTD1WGMVQSJxaF8eQZmH2vMNK2c11xzjRVdf8UNr5ZvKEESC6W2BEpuYGKkSxlFJaMxTZBceumlei+jRX1OmaH58+frfb6c+rDCP/Li7/ciUGM66aSTNDzGJH5u1/a+3ce/MGR7nsc8jpe/rsME8++m7k0/b8IMhkyYOALT6GBNOWWWofc2KGLQgNCL6Stf+YrGhTEWkfWd1GDJ3pfZb9vrohbNsIq/H+ubrDXEJKpfjV/UPnUw5NtAQNqfqLrirBq5blqQiFq0xSBIVJItUZm1rL/SjqK6bqTMvZLIwAsS2S3VhrWonrRzi5qmLTy+KfvIiCe6Y02D0SGjb4QVI6YyMiGRYu72njELOmCeGF3SARFiRsQjzBi6hYs6SsNTedmMhFH4UITgRSgwEmV0SX785WdHJkiuvPJKTdJmSoyUIVsUt3sNrPjPRqLkmScEE/UvYlQWnzj8FZF94DBlWVvSWdlQjKoOEyzKNw63PgXzhUTVpmVm9gvBjKiDrNHovahd9Z4wGHj8ZzOSQw89VOOm/pX1cZsBikpqqVet7VOChG8hJoQh5SOvFDWNYSqPOmFNC5JU3taO4CLqulSUvgwbaEGSYpaoW2hEGGoRlX1kvLN48eLW7Nmzsw+Z9PjjAxQ9cjLZKoKE0SfpyPrDUmmYkIHZGdlHjSoiJlNNlAkSWVSPX0lemwqPMoElakJGxKYKks0D+p4JEmM8CFbekW3O+px43MOk69K9996r76bqIouY+qxbQXLfffe1DjroIE2Lclp9EYymSsuXu2kmKGtbmi+YM+szjGljBLoxOZtFmpoJwU67pP7KcCnr49buqR1ppjZNCRKYZEyySUPr5IJkCSpx21pbLnnav1cuSBJtV/aRxdFRhaDeQgVgDAj9Z4qqCBLUDKQDU8sTnY5nzAyM7KPOq3xkoVPjppivzUgQqGUkC7maBoyM9GKSHTv6bCQEiQnF1KBAFsm1HGUMk3Jb28R1SF0jUJgZIGTtHYRkipoWJKinwJp62qDh8ssv13LQ9jb7RBUH2axh3rx5qeINGVbWx+UEAM03pYo0ATeWBQnCIP4bEuxchHe+852Kb0pQ56L2za0LkkRTlX1kiegaZNN4PjQ6WZ5YmIY5wSxSz4lvTJM4xjAsHVPjoIYxOvroozVN1kRiooOSVzeCxBiVrXNY+mxSMGYyEoIEBmtMPa8+FIM2fdaUILE68mt6/xjv+LltKEgx2zhenWtrT5vt0gfA2hh7PItk9gcuqMA6obI+bmsb+bStf5JvE4KkDoZsQmBWxp8ce1Q4U+wEC3vHZn1DLbbbhhhwKFMfWrrxL98P3zfvsjlnUMgFSaIlyz4yorOTCXVDTOx2onPQSYqI5/yhxkgRAsZGnnJ2URYFfT06cN5lFG5kC668Y2tBxKVzE7cbQSK2CZoGKpSYWOeweoyEICFv1GnkaYv5hCFU7IPsRpCgukqpOYvqT94QzIYy2RrG/0K7+x9ja+kacyMv2YqcZSC2HFk7pNb7mNXIlvQsfv6irI/znrVxvP5mAo1nTQiSOhjaWpmVq2h3W76ede4N66EEiWFHWYoECbixOSEmBkUmPOm7sv0+ftzX1wNtR4LNAUZVMXEkAoZ2MuLU/fE8w54Co0VpSY2K/QH74XfZZZdgxmabbLJJ2HHHHfU5BmHsC+ceoyv2zPMO++xlVKnGYBox90+YcvjOd76joRw0iD0Ee+5lcTSLKaqUIB1V77GPIA5pY//BPn1hNplxkwgzta/AdoQ96hgjcpCh2U2U2ZFsvfXWpQdackSMfCRaDvlgNG2M8CiLETYVW265ZWZHIuoyrcttt92mOMycOTOIMFP7C+x2MPA0+xtLo8ovdjTY1kAY2k2YMCHILCyzVcjbkYiqL4iQzZLG7gKK8548ebLahzz22GN6Vhe2EhggYohIPWWTgb4jwitsuOGGeh3/k7WbIMJdg2hDcBg3bpzWt1M7Adru3e9+t6b50Y9+NOy6665qgGj9gQNIaTcj+gLHjEDggm0JRomy80v7Af1tp5120ud1+zhtKwxV391hhx3UjoTyGcW2IRfLIadz587Vfhvbeli70ddnzZplr2a/dTAcLjsS6nH99ddrmUS1qTY5fEvYEkH0O9o2JjunjDBsjLA1yhP8hHBsuzA6xsZHtBZql0XcuG3y7/bj/ZgTJMccc0yQxWAVHBgHQWYQVtaAnI1jhoN80HkreN7F8hfLcDpNimRUFUSnHWRRMjPuoqPJKKUtuqy7qIEcBm9GWD3DXKyDW7gs/IdPfepTynCIjzA58MADA0wcxmJM1OIjdLAyH0qQED821LP3MbiEAWDxPJQgwfoZQzuM0LoRJOSNcOLjM0wYJMhMTI1I84IEYU3cMoIZTJ06VQcE9AmYb0wrr7yyYhgzxvg515QJS3cYhJGopcIWW2xht7V+RZWVDVbMeJP2ZUADgflqq63WliZW02eeeWbWn+whQpG+2GkfZ1AFM8TSm++DdOhXCAyMVBmg0QZQkSCRmbta+nMqA2eSpagqhrLGqO1laSDoV1ppJbvt+BfD1fw3EieWOkutiiC58cYbdaBm/dXSZHDHt7Dtttta0ED8DqQgGYmWYTbAURHMQrCaZ+bQRMe2svMhc6w1wmf99dcPHIlfRsSnTIyKTVhst912mcV22btlzxjJcqwKwpFyLLvssmXRh/WZqP4Co0bKwiwgfwRIN5lTT9qTwzVhkMx6wLJfiJkI/YV+Qtmb7IsIOI4Uoo8h1GCOzJybxL9fcK5TTvqrfcO8x0yVGe8gkguSPm9VmDyjHGPwoocNslAexKgsyO6QTP3SK9W86aablFlXKQ9ne22//fZVovZUHIQSqreqhNp0s802qxp9ROIxC2H2s+KKK2b52UyPGRczLydHwBBwQWJI9OkvOnWECQyXgwmZUjNLYlTNoZJDzWRGutqsL8XnMJXljzoF9Uq/kWwLz84rq1J22catjtiqxB2pOKwh8scMhDUDZiCotKCiM+j0of8bkwi4IOnzZuejRl+N8DBicRM9LAyg10iMLnVdokq5EILx4nKVd3ohjuwECxyQWJVQ07HY30vE2gsnZ8dCn4VlDutkXc/JEYgRcEESo9HH17LtV3efoQ5y3XUfN2SPFZ1j4dmhyAnHRZtIeqzIXpxRQMAFySiA7lk6Ao6AIzBICLggGaTW9Lo4Ao6AIzAKCLggGQXQPUtHwBFwBAYJARckg9SaXhdHwBFwBEYBARckowC6Z+kIOAKOwCAh4IJkkFrT6+IIOAKOwCgg4IJkFED3LB0BR8ARGCQEXJAMUmt6XRwBR8ARGAUEXJCMAuiepSPgCDgCg4SAC5JBas2adcHPBQcMisOiWm+eeuqpeu6SOAIakdNMOT5dHH3p8fevec1rapWVyHXqyQnAnFGGTxM7Apzj8kfzzDL8gHAQJ0ff7Lfffsn6c8rs6aefrv4x8Pvi9D8E6rT9UJh12w+HSn8knovTsiCO0PRAzokTJwbcJTRCcjR0kqTzlnpYS77kgYUI4LlQ/Im0xHdIYZyRfmDe5urmi0953o295NVNo058c3srflzqvJbFrVpPERyZG2HewfMknilpuzzh3hiXq/hTH25asGCB4l3mCRIviZRZnIs1Whw8+lFPcSzVaLojlVjVtq9Snk77YS9gSB+mbxge9itnqlWp+pBx8DGQJBckSVg6DhTHPNqIKfe3HSfa5Yv4ZS9jTkXJ95sgqVpPOWhR2wjf6CnhEeMxZ84cjSseI+PgYbmuIkjwp46r2CuuuKLRMpiLZ9LvR6ra9lXq1qkg6QUMzc88gyPxCpm5/EWg4Ca8W3JB0i2CFd/vRUFSsehLRes3QbJUBQoCxIeLCgc5ur4gxpLgXhMkS0rW7FUvMMFma9R5av0qSETtqf0aocG10XHHHafh/HZLA79GgpvXa665Jtxzzz0BPxH4WMf1J37S8WxoJECqa1mOz7777rvVwxzHZb/jHe9Q74cWD8dRJ5xwgj4Xhqr+MszVKvp7fDzjTc7ojDPO0Hw5RfX222/XYGlQe6z+nPM6bfyLnHPOOQEd5h577KG+s2+99daA32qO8saFKm50jXDdi+tRXOBSp0033TQcfPDB4QUveIFFyX5x4SojkOweHya4Di0i0sblLl4Xcb6EO2GOrseHfOy3u+j9snDahvUI8MYLH26EwXyvvfYKG2+8cfZq7MoVHPEbj28M2hLsNt988yyuXVStJ/WiPtD999+vx6ZzrPt6661nSanbXjwOghuudSH8unN0P8e/r7XWWllc+ktc9uxBxQsZ+Qfcv9KnlltuubDNNtuESZMmBfnY1bf8kUce2ZYS61v0CyP6DP5NUoT3R/CeP3++us+ln4Ih/Ra3xUa0K8f9Q7ilhnD1TF8xYp2M8tUhfOXg2Iz2LXNHzJoUaz6sb3CaNQT2OGvDDzwExvi2wbV0nqq2Pe/Rn0RABPu+SA9X1Jdddpn2xxkzZmTJ1+mHnWL461//Olx66aWaJ/0Qf0Pd0uWXX67uvGOXx/T1ffbZJ0sav/Xjx4/P7uteDLQgif0x40UQRgXjYBEVP9f4tYYQDvhDx3kPBMO0DstiFD7Vzfc1viZoEIg0cYUL88ajHDR9+nT1BaI38o+PAZ8O5GG+HWIhgGAwX/D2DkwaQUCnZjEc39cxHXXUUZnjJOrBQjREWghLykK5EUYveclL4leVScGIoYceekh/+YhSxAfGH0Ta5lrY4nYjSBAE++67ryaFEy4YAwuBlAm/8DEztA8YvHnOB2ZYkkCqHLR9lXqC9UknnaTlADf6BuXh2HQj/HKw2I7gg8lBRXERygjyTog0DznkkMwxGe6b47bP+6YnDxgNbS6qOH0P/y2f/OQnk9njf/yGG27QZwhsXMFaP4/7AD7MzcMj7QSBeXyMPG1S1xWxeViEgTEYSpH5raf/UlZcIiD8zj33XI2O4EbYmv8dBKz5tLf0qrY9g0f89ixatEhfBRP4A0Q/oL+JqlDv+VenH3aKIe1w7LHHap58cxdeeGGWf6cXs2bNCmwUOOKII8K0adPUZTJ+ZWwATLp85135xCma0vT7GgmLoEzlpkyZ0pLRVVZN8WveklFlSz6gLEwcQ2lcYV4tYZYajipKOqSGozM3khGMhpG2MPSWdPyWfJAt6fRZOHHyVEe1JSP0LC3WVISZZMmhz+QPkllWFo93IMoio1QNl49Ew4r+UQf+UoRO3J7bgrII0ZYIxiy8m8V2m1bn1UgyImurL2WTTp7lKZ1fiyvMsyWzEQ2XjzZVhSzM6pEFFFwIw9L0rrzyyoIYS4KHQ7WFPp+ygjFYQ9aPCS9bzxpqsV0YpKbN9yAzk6wibDBg40ARNanakkGAlkFcQBdlp98ldWVjCiS75/Qdwu68804N4/tibYow6iODOQ1P/SMOfymyNTHRTmQbR0gLPsA7+fXMTvthHQxlMJvV99BDD00Vu3aYLbLffPPN+q5oGDQP6kMe1DXmkbUzkBcGdo1EpLoCJFPUIXGhIwGmqIfa4tJh6ag8MwETCxKZ9mfxEVDE4y/FYDsVJMbEs4yiC3aDkB8MKCZxRFRaFotr5bX7+NfWC0488cQ4uHXfffdVSrvtpcQNQo78rXMnomRB9gHzQcZkjL+MwRK/rJ6p9EZLkFg5YZ4xyYxJ61BWz6EEiQkkmGQdqsMEq6S7++67a11ssCVqqJaoyTLdvfU72zTABgJwSdXdBjX57zYuh2Eah9m1vS+qbwvSXwQr7xUJkrr9sA6GMHT4EX/wsCbI8hfVeuvxxx9XnkY/oA1MyJQNJqqUYWAFCZ2AzgDjKyNGZNbZABfQ4z97ZhI7FiTxyI48RCWjafFR56kTQcJHV0aM2igfI6s82Wi9TBBZ3fLvci9qMU1b1EZLPTbhmhKYS0UuCLBZIGkhEBHKRSNLEyTEi4nZCXWAIZRRWT3j90wwjYYgoe6UEzzyBKPjWYqZWtyhBAkDHWPiCHEYOLNYZrBlZEyoqV1bJhRtlm2DOFHPajHsuWkMmL0YLvF3ybX1Q1E9FlahrO3ZwcRzZvYxiTpPw4sESd1+2DSGcVmrXNvmmIULF7ZOOeUUrZvxBVF36X2ZMK6Sx0AKElmPUHDoJIsXLy7FIZ46o6oq+oun1aSbYvIm3U3NFGfciSCJVWpxWnZt01Irm4Xza0IGFUARlX1kpnpKdTCb+ncjSGiX2bNnZ+1kZWF2JfrvtiKbIMnbkdx11136/iAIEtkooXXJMy+AYK8/+HQjSEgHYW3CxPCGycUza+LF1DQTRGCQN7/x7NZG3yZYbMZiwoJvoejbTA12rA5WT7uPfy3tvJA0tW6+LTrth01jGNehyjW4gYMJ6diWzXgIs5VuaCAFCYBYJxmK2cG0yjpbHlybkYyEIEEwlZF1EOwM8mSqo7IOUlZvOhvP88ybfIwZDYVtvkype9Y6UG/JTrisHZgNxdTpB2xplNXT4vA7mjMSY16pfmU67W4FCXVkkMVoH5WvzdrBB5VHippmgjZzQp1laqxLLrlE2x71MWWRheCsKDZrYO2sEyprexsQ5VWJspFDyzEogsTUg2BB/0L1bWTfcn5WZs+r/g6sIDE1U9mI3EAyocNi4FDUqSCxdQvyGkqdYIvtQwkSY/Zf/OIX24odqzHKVHtlHxkL2DzPM3UsnO29JgRJXHBTVdG5Y4x6UZDY+lRevx7Xp851PIvOq/jOO+88xbwJQRKXCYztO0HVmCJTi+SZbSpulTBbS4RJH3300TrLMFWSbTagvY1sZt2pDt/6qqUX/5I/z/Np20J+U4KkDoZ8+zB+/vLfdVz2OtcmsKmr7ArLXo21MUMZ4GYvFVwMrCAxvTKjjvxoCwDFViODxHY5MfWjo8cEwLY+QningoR3rVOzg6aMqgoSsQfQNOnw8SgDdRR5oSaw3T+p/Kw8qWdWBgRffDwGu6zsvW4ECTryPNbsRiNt8oypFwXJVVddpWVFBdgU2QYRsSPIkkSo2ECnG0HCjMc2jGSJywWjfzAvEoi2IG1rGPG7nV6bCph8LV1TaREWz6JNrcd3jHo4JgQhcWWLfBzcdk16/KXIdloy67H1Tr53U/c0JUjqYDgcu7ZirQvqYKPTTjtNsUFodUsDa0eC3QbGauzDxy5g6tSp+ovRHnuqYzsSDLXY287edPZSb7fddmpUKKP5IGoXtRPBVgEyOxLSlFGchtk/jMVkQatwT7bsgArspYc4gA87Afbny0dkSeiv2ZGU2QQQURo/HHjggbr3HduUnXfeOYjQVANGnstoLuy6665cKokAzewICGCvO2T2HFxPnjxZbUa4tvpQxt12201tODBQNErZb9izoX4xJhPhF3bccUc1isMuREaC2gYyUgxveMMbsiQuFpuFuXPnqk3O61//+iwcGwgMQMGSvfJGdetp782bN09tb0QtqPZAFp76pR+J2kcfgc+WW26pdhXCfMI666yTemXIMKsPEan/hAkT1J7DbGbydiS33XZbkEVTTZd2p18/73nP035gmYEzNjH0Y2wutt12W7VzwQbkjjvuUMND3pHRb1hxxRXttez361//esCoFsLwc5NNNlFDROxAll122SxenQv6HbYeEJhjOIvNE9eQzBDajIWtH/LN0f7Pfe5ztS9Sf+yKZMStWPFunbaXgYza7WA7AgbYbXFAJmlCRXYkIhi0HBpJ/lm75fuhPa+D4XDYkVAOme2pTQz2OdjdPPbYY5ndnAwOMzs5K3Pd34EVJACBMd9FF12kBk0xMBj6iE5eGZiFy8hPjc2M0Vs4nRdGj4EgVCZIjjnmGLUELmoY8uBjgRkjtCCMoERNotf2j459gFjXDiVIiI9VM6e+mjGlpYFhHMIzJjMIi8Py1/F7GGVhxBanLSPDIIv7KqC7ESQYzWGBnCcs52FSeeO3lCBhkIAleWyxS3p162llkFmG9gEz3LLwol8YGZbusWGXbCAotdouSsvCSZMBB9hD9D+szjHIywuSIgwtLX5l3Uf7OcxORqBB1EjxY2UgMGr6YYoYkMlsJchOtjYjUIR+bOmeercoDCt1jE4RwHZSwI9+9CM1mMPwl+8nJr45hA99ICaYIoM+2stOZ67b9rLpI4iKWPs4mCNMGJzNnDkzMDizwRb5Fg1oivqhlbUOhrLxIcBHoKYMEkmLQSd9yIQ1YQhP2cXVsQEtaRgNtCCxStKQHLkA02WUt+aaa9qjpX7ptBxRgqUw8Tj+AuvaXic+AmZQHHPASKrT0WKqnqJSUEz4sPh4myJGhKJuUaHK6QDM0DiKZKyTqGy0LRGmMNsm+x/fgKi59Ega+na/9G/6BLiIOlVH08xKYIR1reuL+haMlv5IejaQQ0ghfAeJ4G/M2jh6BvyaojEhSJoCy9NZGgGONRE99dIPCkI4OwphPsjETBj1TFVCXcSxPP1Gg9D2DBrjgReDTtRAqMvEhiVTX/Zb24x0eV2QjDTiA5afLIbqWkzVaqGG68Q5VdX0eyEeZ1/tueeelYuCuhBVT7/RILQ9Z5UhTLbffntV1XGwJGpnVIqoBU1l1m9tM9LldUEy0ogPWH6oSWzBt0rV0MU3OaWukudIx0F9IKcNVM4W9VVXB+ZVzqnZiIPQ9pz8zKYZW7MEIRbN2XAx6P20yd7ggqRJND0tR8AR6EsEWBNFJcnaQZNrUn0JRgeFdkHSAWj+iiPgCDgCjsASBFyQLMHCrxwBR8ARcAQ6QMAFSQeg+SuOgCPgCDgCSxBwQbIEC79yBBwBR8AR6AABFyQdgOavOAKOgCPgCCxBwAXJEiz8yhFwBBwBR6ADBFyQdACav+IIOAKOgCOwBAEXJEuw8CtHwBFwBByBDhBwQdIBaP6KI+AIOAKOwBIEBlKQcESFOOwJq622WhCnLUtqW3DFse4clS2ezNRfQ0G0ng/GlwHHfePLAj8f/UjiglWPOqfdOOE1RRznzVHkhx9+uB71nYoz1sI43ZpzzDh6HD883RAHF3L2F+dMcVR9PxJW6uKeV48+4VBMfJ64xfowtmSRZyxx8NKS0z2LHvd0OF7O8IqG17UqJOftaPy8y80q7/ZSHHOp2ZSLztGom7klLfO+aB7nxMdGY0Wkz+DWFffF/UjmC30o98xV6lbmBbTsfbxqfuQjHyn0tlj2bpPPFixYoN+zeUfkF5fC4nukyWw8rQiBgZyRMBrZaaed9NA182xYJosvvPBCdaaDBzm8h/Ur4WBJ3Oyql8OtttqqL6uBAzE8RJY5zcLjHKNNPDtyBHgThJdMvEDmveI1kfZIpIHHO3FJHDbYYIOAl8ZuiBk9zsI4ATfvBbQsXZxy4d0SR3Ai0MqiDtszEWbq9ZAMcJK2/vrrqwM1+tSrXvWqIG61hy3vMZ1wJFTaLn1G0gaH34wQAlVmJMNRFPyBM3LN++kejrx6Pc1OZyTi3U8xFHXYqFUR/+O0o/gUycogjpyyGYo4rcrC/aI5BAZ+RoLbUtxlolNndMLaASOVWF9qM5Jjjz1WfRPMnz9f/YlPmjRJXbmut956Sw02ODodN6GMgCD0sIwE8d0dEzpmjtvGJzw+r42kCdX1Jb4Q8F2BL+1OCF/dOOKJiZF10YzkkUceUffD+KbGZzpeDxl9MoqMMcFbHNjhuRBcYsIVqqhS1CVuNzMC1qauu+469UiHYyfahWO9UzMS2i/vmpe1ALwqpuj+++8Pl112mboFxsUx9aCNdt99d3XPau/gjxz/IcI8MwddwojssY7w6645MKI//vjj1Vd6HrssYbnA/e2ll16qbTVt2jR9RL8AE3x90LfwGMnR+7gUTtWVETZeD40mTpwY8G+SIvohvtJxa0u6OBnje2D2x2gdf+hQPCO54IILdLZu7oTxJXPYYYeFFVZYQeOCrXkRxNul+T8HayPy2Hnnne02+8XHPOt60OTJk7vWBjz11FPZ2mDs7nrWrFnqz5589t9/f3VYxbVTcwgMtCAxmHAPy5SfDxfK+742QWLx8Q3BBwLT5V2YGwzXKPYLjS8JXKKaL2ym9ix2G/34xz9W3waoCRBoq6++uj7CAxtMgMXR8847r2OXoZTRnCJRZlzuvve97w177723FSH7xcUmTIA4lAchYJhMmTJF/dhb5JiZ5NUb+PheuHChqlI69aOBGoY/CAzM5a7ln1dt4d8Dn9PQQw89pL+0y6abbqrX8T+EAszU2o/0wQYmh8BGeBjJeov6ImeB+YEHHtDguK15V/T+Fr3y71577aXlhFmy6SNFMDv6nvUZyiDrNOo/nPgIV2sf+uH555+vPtbjtHDMhCDkGHR8amy99dbJBXKECGpDc9qEUMLXOOnSH+JvwtqefOgjYIcgBk9o+vTp2qe5RoixsYWyk45hHvvyQEiaoOQdI9oT51FQEwwej40MRqjTDTfcoAOjO+64Q8tneeJrBMHi1DACRZObQVBtMcWVTt5iIRW65557WsIwdZrLdNfIFtuJz0IdJP6hWzLS0rgyMreoLVl/acmoVsOFwWbh3/3udzWM9GWkn4VzMXfuXH0mDEPTZVGSvIgrTLEtbjc3Qy22sxBKvrIzqiUzDs0KHAwTmWVl2ZepN1jQJR3q0QkJU9P3ScPyFObVskV0wrtZbJeZi6Z/xBFHKN5WRtJE/ZKiplVb1nfEDXEqOw076qijtJz0S4j+RN1FCLZEsGoY5ZJZhIa/5z3v0bDUv6EW21H1kDZ9kLaFRJBoGOGf+MQnsmSt7QmnjDLSVxyFOWfxLY3sJbmoq9o655xzsvRk5hMn1dH1XXfdpemBH8S3iqqS/s1GGuoj7nM7SttfKkcgFD0eFEFijMrqKbMA7VAwdyMTJDCemGQBM+voJozsY3n7298eR9VrPnQ6qyx4tz2DabNrhGeXXHKJMgquRYXWFq/bmzJBYoySfGUE25aVzAy0bClmgtDMU7eCxMoZC2jyuO+++zK8uxEkoi7SdGjrqmT4NLVGIuopLYPMOrQI9CUEuGzP1nsGKibATaizyzDVf2DaFtcETL5eZYKEvEiXPwYOMcnoXMNTbU/8WPBSTksn1T72bVRdI5Ft3LqzknrLbD0uVkfXoibT8pmwsAEcAlBmdvqMvJyaR2DgBYl9pAadzRxOOukkC2qZILGPPnsgFzAWPh5Re2iwMcF4Mc/iW8eFkeWJUbgxA9KbPXt2PkrX91a21PZfRr3kmxKAon7TZ+JeNCuDjUqHQ5DYSFTUV1l+dmEYpRiVxbGZC8whRbFAgnkj2Ifayt60ILEyMAOAbERM/UQNlAlNRvyQqIW0DWgjRtSi6mn7I5y/H/7whxo//69MkIhqSt8l7zzJDjh9ViRIZDdb2ys2ICK/PNUVJPn3u723/A899FAVmOBl26FtttLUQKHbsg7a+wMtSFIfDh8iHQyVl5EJEjFKtKDsl9EN8WWxV8OYgnOfEjrGyItsEUxFwfsIlqbJ8k8JklS9LX8TMqYSIHw4BYlss1YM8zM38qUM4NONICGdq666qk1wk6YsfKt6k+d5alqQ2IyDPsg1AxfKwB8qQerOtWwI0KIwU7DnCJeivzvvvDNfdL0vEyT33nuvpp1iojawSgmSuoMIY+RVZyTJinQR+Mtf/lLryazDtAOmOpY1PX0mGye6yMFfLUJgoAUJHyYfcUyyaKsdCmZmZIJEdmFZUPbLCJ50bNsgcbiXhc8sjl3AFHh20UUXWVD2a8ya5/zZekkWoYGLMkFiU3u21+YJ9R9lij+yMkFiW3Q7XSNB0JKf7NrKFyVbf+pWkJAw6kjWKJg9wtDJk5F+ipoWJORhMydmJ+RPv+CXfsKMlPLYAEUWwfWesE6oTJCgyiRd8s4TbcCzQRAkYt2fYUid5s2bl1XX6onRqVPzCAy8IMmrNIzZy06pDE0TJOiLY2Kxjg7JH4wGshGcTZnj+Oj8iRsvwvOcxXdTkaHigGETLzVziNOre10mSGyBG2bC4mlMzMQoT6zui/XqsjMni841cfnrVJCgD+d9VFwxxWk3IUjyaVN38oWx54k24hlx8oOPfNyq9zAy0jShwYiZPsJoGfULz2ztjTStfDaKrpoP8coESdyW+bRNqDchSMyiPL/2VVQP2f3Ywu6DP2Yz3RIbNgxD8I3V2vZtptTO3ebr78ue9SIQBmWxPWZW6KGNoce7aUyQ8GHL9sUMEmOwtnjHA54Tjz/bbUO42INk4baeQjhknZidPBAfs3X4/GYAjdDhvzJBAjOx2dXVV1+d5QAjY5ROfVggjsmwuuWWW7JgU8kQv1NBwnu8DwaxkEJdSDh/3QgS1ET5nXPcG+Y8T5HlbbPPVJw6YTYLtLqyNhLvfIr7FenaRhAEeswEeUY7Fa2P8LxMkPDcDPVYMzJBSZ81TJoQJHG75stPGfJka2Xg08SuLdKfM2eO9p94x55szc/6FbMWp+YRWIYkUzuKZXFKD83rxuAsle5IhNkRKZaXfCy6/15mE2rshm2ACI/MAC+2I2H/O3Yg7J0XPbsmgVEh+/ON5AMIMtrU/ersqceOBGM59uhPnTo1fPjDH7aogeM8sFvA3kR2qYQVV1xRn2Fwhs1A3r4ke7HiBYc0YkcAYRewaNGi8IpXvEJtEAhjTz179CERCEHULXqN3QC2BIYJ7SwzpLDccsvpc/5hvIbtC0S9MGITYaX3/MMOpFM7ErNFARcMKEW4BgwUjWI7EtpThAyDHn1MmYnPcTZrrbWWhmEAZwdVYp9DOUl3ww03VMNLjEyx9aEvnHDCCZZN268I/ICNEIS9AfhQPtG5t8WrehPbY1i/oI/ssccemgRHvMTGjhzTguEqccB1u+22U8M/mUGFm2++WW05wMWII0lkIKK3GKZis0L/jY3/sCfCdgnDV+xIsPUgbYxzZRag9ySQsiNJHZFi7ZZqe1GHZvY7vIvBI/Yn2O7kDXXJs2k7EtKM67nFFluo/dhNN92U/DaJ79QMAgMtSPiosBpHUBjRuWTElxkGEm6CBOthUT1lhmk8w0I5/jAJw/iKDwnmFhPGUDCGcePGaTCMC2YBybbfsPHGG+u1/UNAIYBgGGYdbM+q/prhW1H8PDOAIZEXDMUIq2aE2hprrGFB+iuzBRWKssCbhWP8iJUzTIj6b7TRRtmzOhfkf/LJJ2fGd7wrC+1qiY5AjAUJRm4pg7Y4P4SGGQ5iQMlAAYYck4x8gyxihzXXXDMOzq4ZPDBAQKDZu1iVYwjYKc2YMUPxOuWUU8L222+vyWAUKrMVHWDkTzSgDGeddVYm0Cxf2hGBhjAwsv5j96lfDP7WXXddfUR/PPPMM7U8DDAYHJE/ZaMfYVgImQDM9x2eHXPMMaVtL7N0xZ42NAwpc1xu0oGGQ5CQLoanDJgYbBghKDktmkGfU/MIDKQgycPEiFbUGTrC5OMYirCQ5R0snMs6Hh8cR3FAjFyXX375oZLuieeM7Dl2HKbFyJTjwovI4opqSEf38Yyl6J064bL2pKNIsIa5NUWUW9aFdLZGG06YMKFt8NBUPsOVDn2L0bWotFTwMfOKj7DpJl9RO4Vll11W/xDYsk4SZs6c2fVhj92UaTje5SBLZuucatEv3+Zw4DASaY4JQTISQHabByoK2aZZKRkYCuciNc3UK2Wei4TQlfWmXGjxLeoOmHq/Ub+2j+GMYGXQw8DBSI5VD8yYONuMY3pe/vKX2yP/dQRqIeCCpBZcwxfZ9PpVc+BgPzu3q+o7wxHP1nqqpo3zJQ7+6zfq1/YxnFm/2GGHHXR95JWvfKWekXX99dfr4/z5Y/aO/zoCVRFwQVIVqWGOx6jQDg2skhWLwbYWUyX+cMVBfWQLvlXyYM0hPtCvyju9EKdf28ewY12P9Q0O2zRClci6i9gFZZtA7Jn/OgJ1EHBBUgctj+sI9DkCqLhY74LGjx/f57Xx4vcKAi5IeqUlvByOgCPgCPQpAi5I+rThvNiOgCPgCPQKAi5IeqUlvByOgCPgCPQpAi5I+rThvNiOgCPgCPQKAoWCpFcK6OVwBBwBR8AR6G0EXJD0dvt46RwBR8AR6HkEXJD0fBN5AR0BR8AR6G0EXJD0dvt46RwBR8AR6HkESgXJ4n+3wmZT/hkmrLVMeOE6y4Y37jIu7PvG/jiYsOeR9wI6Ao6AIzAgCJQKkqf+E8KHzngi/OmRZ8K3b3laqzxvziphx22X+KwYEBy8Go6AI+AIOAIdIlAqSOI0z/38U+HEs54M7z9ohXD8+//nnCl+7teOgCPgCDgCYxOByoKEGcne718c9tp9+XDeySuNTbS81o6AI+AIOAJLIVBZkHz/R0+HaYctDm/ebVy4YFZzDoiWKpEHOAKOgCPgCPQVArUFyZtkwf3C012Q9FUre2EdAUfAERhGBCoLkoU/+W/Y/eB/hc02eVbwSFXxAAACJ0lEQVSYf8Wqw1gkT9oRcAQcAUegnxCoLEgeeviZ8PJd/6l1W3Tt+LD+C5btp3p6WR0BR8ARcASGCYHKgoT8Z1/8VDj57CfDqisvE/bceVxY4znLhBkHrBCes/oyw1Q8T9YRcAQcAUeg1xGoJUj+/GgrzJ33VPj03Keyet161fgwcSOfnWSA+IUj4Ag4AmMMgcqC5EmRHZOm/iM89nhLd269b/8VwssmPmuMweXVdQQcAUfAEcgjUFmQ3Pmr/4Yd9/mfr+cHFqweVnKbxDyWfu8IOAKOwJhEoLIgMTuSXV67XLh89ipjEiyvtCPgCDgCjsDSCNQWJG6QuDSIHuIIOAKOwFhGoLIgufH7T4d9Zrpl+1juLF53R8ARcARSCFQWJKed92Q488Knwkw5tPE4P7QxhaWHOQKOgCMwJhEoFSRPPBnCAR9cHB788zPh7nufUYC+MXeVsM0r/Rj5MdlbvNKOgCPgCCQQKBUk+CPhWJRVV1kmrLv2smH61HFh8lYuRBI4epAj4Ag4AmMWgVJBMmZR8Yo7Ao6AI+AIVEbABUllqDyiI+AIOAKOQAoBFyQpVDzMEXAEHAFHoDICLkgqQ+URHQFHwBFwBFIIuCBJoeJhjoAj4Ag4ApURcEFSGSqP6Ag4Ao6AI5BCwAVJChUPcwQcAUfAEaiMgAuSylB5REfAEXAEHIEUAi5IUqh4mCPgCDgCjkBlBFyQVIbKIzoCjoAj4AikEPh/KFhmxSbmm1UAAAAASUVORK5CYII=;imageBorder=default;" vertex="1" parent="1">
          <mxGeometry x="492" y="196" width="260" height="180" as="geometry" />
        </mxCell>
      </root>
    </mxGraphModel>
  </diagram>
</mxfile>
